<?xml version="1.0" encoding="UTF-8"?>
<!DOCTYPE svg PUBLIC "-//W3C//DTD SVG 1.1//EN" "http://www.w3.org/Graphics/SVG/1.1/DTD/svg11.dtd">
<svg xmlns="http://www.w3.org/2000/svg" version="1.1" width="70px" height="70px" style="shape-rendering:geometricPrecision; text-rendering:geometricPrecision; image-rendering:optimizeQuality; fill-rule:evenodd; clip-rule:evenodd" xmlns:xlink="http://www.w3.org/1999/xlink">
<g><path style="opacity:0.369" fill="#e1c067" d="M 35.5,6.5 C 37.4147,6.21552 39.0813,6.54885 40.5,7.5C 40.5,7.83333 40.5,8.16667 40.5,8.5C 40.1667,8.5 39.8333,8.5 39.5,8.5C 38.5,8.5 37.5,8.5 36.5,8.5C 36.1667,8.5 35.8333,8.5 35.5,8.5C 35.5,7.83333 35.5,7.16667 35.5,6.5 Z"/></g>
<g><path style="opacity:0.875" fill="#5dcbe8" d="M 32.5,8.5 C 32.1667,9.16667 31.8333,9.83333 31.5,10.5C 30.5,10.5 29.5,10.5 28.5,10.5C 28.1667,9.83333 27.8333,9.16667 27.5,8.5C 28.172,7.73261 29.0053,7.06594 30,6.5C 30.7083,7.38053 31.5416,8.0472 32.5,8.5 Z"/></g>
<g><path style="opacity:0.298" fill="#eb5c37" d="M 35.5,6.5 C 35.5,7.16667 35.5,7.83333 35.5,8.5C 35.1667,8.5 34.8333,8.5 34.5,8.5C 33.8333,8.5 33.1667,8.5 32.5,8.5C 32.8212,6.95186 33.8212,6.28519 35.5,6.5 Z"/></g>
<g><path style="opacity:0.898" fill="#f8f8f0" d="M 44.5,9.5 C 43.0413,9.56745 41.7079,9.23411 40.5,8.5C 40.5,8.16667 40.5,7.83333 40.5,7.5C 42.8293,5.99763 44.1627,6.6643 44.5,9.5 Z"/></g>
<g><path style="opacity:0.784" fill="#64717f" d="M 27.5,8.5 C 27.8333,9.16667 28.1667,9.83333 28.5,10.5C 27.2921,11.2341 25.9587,11.5674 24.5,11.5C 24.5,10.8333 24.1667,10.5 23.5,10.5C 24.3449,8.2381 25.6783,7.57144 27.5,8.5 Z"/></g>
<g><path style="opacity:0.435" fill="#b53751" d="M 49.5,10.5 C 48.209,10.2627 47.209,10.596 46.5,11.5C 46.1667,11.5 45.8333,11.5 45.5,11.5C 45.5,10.8333 45.5,10.1667 45.5,9.5C 45.3691,8.62356 45.7025,7.95689 46.5,7.5C 48.2131,7.87929 49.2131,8.87929 49.5,10.5 Z"/></g>
<g><path style="opacity:0.004" fill="#00fffe" d="M 17.5,10.5 C 16.8333,9.16667 16.8333,9.16667 17.5,10.5 Z"/></g>
<g><path style="opacity:0.665" fill="#f9f9f4" d="M 34.5,9.5 C 34.3284,10.4916 34.6618,11.1583 35.5,11.5C 35.5,12.1667 35.1667,12.5 34.5,12.5C 34.1667,12.5 33.8333,12.5 33.5,12.5C 32.8333,12.5 32.1667,12.5 31.5,12.5C 31.5,12.1667 31.5,11.8333 31.5,11.5C 32.5,10.8333 33.5,10.1667 34.5,9.5 Z"/></g>
<g><path style="opacity:0.796" fill="#f8f8f2" d="M 34.5,8.5 C 34.8333,8.5 35.1667,8.5 35.5,8.5C 35.8333,8.5 36.1667,8.5 36.5,8.5C 36.5,9.16667 36.5,9.83333 36.5,10.5C 35.8333,10.5 35.5,10.8333 35.5,11.5C 34.6618,11.1583 34.3284,10.4916 34.5,9.5C 34.5,9.16667 34.5,8.83333 34.5,8.5 Z"/></g>
<g><path style="opacity:0.752" fill="#fbfcf3" d="M 36.5,8.5 C 37.5,8.5 38.5,8.5 39.5,8.5C 39.5,9.16667 39.8333,9.5 40.5,9.5C 40.8417,10.3382 41.5084,10.6716 42.5,10.5C 42.5,10.8333 42.5,11.1667 42.5,11.5C 41.8333,11.8333 41.1667,12.1667 40.5,12.5C 40.1667,11.1667 39.8333,11.1667 39.5,12.5C 38.8333,12.5 38.5,12.1667 38.5,11.5C 38.1583,10.6618 37.4916,10.3284 36.5,10.5C 36.5,9.83333 36.5,9.16667 36.5,8.5 Z"/></g>
<g><path style="opacity:0.792" fill="#deeed8" d="M 40.5,8.5 C 41.7079,9.23411 43.0413,9.56745 44.5,9.5C 44.5,10.1667 44.1667,10.5 43.5,10.5C 43.1667,10.5 42.8333,10.5 42.5,10.5C 41.5084,10.6716 40.8417,10.3382 40.5,9.5C 40.5,9.16667 40.5,8.83333 40.5,8.5 Z"/></g>
<g><path style="opacity:0.633" fill="#f0f4e3" d="M 17.5,10.5 C 19.5,10.5 21.5,10.5 23.5,10.5C 24.1667,10.5 24.5,10.8333 24.5,11.5C 24.5,12.1667 24.8333,12.5 25.5,12.5C 25.5,13.1667 25.8333,13.5 26.5,13.5C 26.8333,14.1667 27.1667,14.8333 27.5,15.5C 27.5,15.8333 27.5,16.1667 27.5,16.5C 26.5,15.8333 25.5,15.1667 24.5,14.5C 24.1667,13.5 23.5,12.8333 22.5,12.5C 21.1667,11.1667 19.8333,11.1667 18.5,12.5C 17.8333,12.5 17.5,12.1667 17.5,11.5C 17.5,11.1667 17.5,10.8333 17.5,10.5 Z"/></g>
<g><path style="opacity:0.816" fill="#f1c458" d="M 49.5,10.5 C 51.099,10.2322 52.4324,10.5655 53.5,11.5C 51.5853,11.2155 49.9187,11.5489 48.5,12.5C 47.8333,12.5 47.1667,12.5 46.5,12.5C 46.5,12.1667 46.5,11.8333 46.5,11.5C 47.209,10.596 48.209,10.2627 49.5,10.5 Z"/></g>
<g><path style="opacity:0.467" fill="#74727f" d="M 28.5,10.5 C 29.5,10.5 30.5,10.5 31.5,10.5C 31.5,10.8333 31.5,11.1667 31.5,11.5C 31.5,11.8333 31.5,12.1667 31.5,12.5C 30.5,12.5 29.5,12.5 28.5,12.5C 27.8333,12.5 27.1667,12.5 26.5,12.5C 26.1667,12.5 25.8333,12.5 25.5,12.5C 24.8333,12.5 24.5,12.1667 24.5,11.5C 25.9587,11.5674 27.2921,11.2341 28.5,10.5 Z"/></g>
<g><path style="opacity:0.855" fill="#dbe1bb" d="M 35.5,11.5 C 36.5,11.5 37.5,11.5 38.5,11.5C 38.5,12.1667 38.8333,12.5 39.5,12.5C 39.8333,13.1667 40.1667,13.8333 40.5,14.5C 39.8333,14.5 39.1667,14.5 38.5,14.5C 37.8333,14.5 37.1667,14.5 36.5,14.5C 35.8333,14.1667 35.1667,13.8333 34.5,13.5C 34.5,13.1667 34.5,12.8333 34.5,12.5C 35.1667,12.5 35.5,12.1667 35.5,11.5 Z"/></g>
<g><path style="opacity:1" fill="#f6724a" d="M 48.5,12.5 C 49.9187,11.5489 51.5853,11.2155 53.5,11.5C 53.5,11.8333 53.5,12.1667 53.5,12.5C 53.5,13.1667 53.5,13.8333 53.5,14.5C 52.1667,14.5 50.8333,14.5 49.5,14.5C 49.6716,13.5084 49.3382,12.8417 48.5,12.5 Z"/></g>
<g><path style="opacity:0.537" fill="#42b6bf" d="M 17.5,11.5 C 17.5,12.1667 17.8333,12.5 18.5,12.5C 18.5,12.8333 18.5,13.1667 18.5,13.5C 17.8333,13.5 17.5,13.8333 17.5,14.5C 16.8333,14.1667 16.1667,13.8333 15.5,13.5C 15.5,12.1667 16.1667,11.5 17.5,11.5 Z"/></g>
<g><path style="opacity:0.969" fill="#c6f7e3" d="M 22.5,12.5 C 21.7611,12.369 21.0944,12.5357 20.5,13C 21.5707,13.8518 22.5707,14.6851 23.5,15.5C 23.1667,15.5 22.8333,15.5 22.5,15.5C 21.8333,15.5 21.1667,15.5 20.5,15.5C 20.5,14.8333 20.1667,14.5 19.5,14.5C 19.5,13.8333 19.1667,13.5 18.5,13.5C 18.5,13.1667 18.5,12.8333 18.5,12.5C 19.8333,11.1667 21.1667,11.1667 22.5,12.5 Z"/></g>
<g><path style="opacity:0.384" fill="#fdd6c5" d="M 28.5,12.5 C 29.5,12.5 30.5,12.5 31.5,12.5C 31.5,12.8333 31.5,13.1667 31.5,13.5C 29.8041,15.129 28.8041,14.7957 28.5,12.5 Z"/></g>
<g><path style="opacity:0.918" fill="#e4ebdf" d="M 42.5,11.5 C 42.5,12.1667 42.8333,12.5 43.5,12.5C 43.5,13.5 43.5,14.5 43.5,15.5C 43.5,15.8333 43.5,16.1667 43.5,16.5C 43.1667,16.5 42.8333,16.5 42.5,16.5C 41.8333,16.5 41.1667,16.5 40.5,16.5C 40.5,15.8333 40.5,15.1667 40.5,14.5C 40.1667,13.8333 39.8333,13.1667 39.5,12.5C 39.8333,12.5 40.1667,12.5 40.5,12.5C 41.1667,12.1667 41.8333,11.8333 42.5,11.5 Z"/></g>
<g><path style="opacity:1" fill="#5bb7d2" d="M 22.5,12.5 C 23.5,12.8333 24.1667,13.5 24.5,14.5C 24.5,15.1667 24.1667,15.5 23.5,15.5C 22.5707,14.6851 21.5707,13.8518 20.5,13C 21.0944,12.5357 21.7611,12.369 22.5,12.5 Z"/></g>
<g><path style="opacity:0.576" fill="#eb940e" d="M 44.5,9.5 C 44.8333,9.5 45.1667,9.5 45.5,9.5C 45.5,10.1667 45.5,10.8333 45.5,11.5C 45.5,12.1667 45.5,12.8333 45.5,13.5C 45.5,14.1667 45.5,14.8333 45.5,15.5C 45.1667,15.5 44.8333,15.5 44.5,15.5C 44.1667,15.5 43.8333,15.5 43.5,15.5C 43.5,14.5 43.5,13.5 43.5,12.5C 43.5,11.8333 43.5,11.1667 43.5,10.5C 44.1667,10.5 44.5,10.1667 44.5,9.5 Z"/></g>
<g><path style="opacity:1" fill="#f5672a" d="M 46.5,12.5 C 47.1667,12.5 47.8333,12.5 48.5,12.5C 49.3382,12.8417 49.6716,13.5084 49.5,14.5C 48.209,14.7373 47.209,14.404 46.5,13.5C 46.5,13.1667 46.5,12.8333 46.5,12.5 Z"/></g>
<g><path style="opacity:0.314" fill="#6dc1c2" d="M 18.5,13.5 C 19.1667,13.5 19.5,13.8333 19.5,14.5C 20.1667,14.5 20.5,14.8333 20.5,15.5C 20.5,16.1667 20.1667,16.5 19.5,16.5C 18.8333,16.1667 18.1667,15.8333 17.5,15.5C 17.5,15.1667 17.5,14.8333 17.5,14.5C 17.5,13.8333 17.8333,13.5 18.5,13.5 Z"/></g>
<g><path style="opacity:0.71" fill="#e13237" d="M 26.5,12.5 C 27.1667,12.5 27.8333,12.5 28.5,12.5C 28.8041,14.7957 29.8041,15.129 31.5,13.5C 31.5,14.1667 31.5,14.8333 31.5,15.5C 30.8333,15.5 30.1667,15.5 29.5,15.5C 28.8333,15.5 28.1667,15.5 27.5,15.5C 27.1667,14.8333 26.8333,14.1667 26.5,13.5C 26.5,13.1667 26.5,12.8333 26.5,12.5 Z"/></g>
<g><path style="opacity:0.722" fill="#e2f1df" d="M 31.5,12.5 C 32.1667,12.5 32.8333,12.5 33.5,12.5C 33.5,12.8333 33.5,13.1667 33.5,13.5C 33.5,14.1667 33.5,14.8333 33.5,15.5C 32.8333,15.5 32.1667,15.5 31.5,15.5C 31.5,14.8333 31.5,14.1667 31.5,13.5C 31.5,13.1667 31.5,12.8333 31.5,12.5 Z"/></g>
<g><path style="opacity:0.92" fill="#eb7a06" d="M 38.5,14.5 C 39.1667,14.5 39.8333,14.5 40.5,14.5C 40.5,15.1667 40.5,15.8333 40.5,16.5C 39.8333,16.8333 39.1667,17.1667 38.5,17.5C 38.5,16.8333 38.5,16.1667 38.5,15.5C 38.5,15.1667 38.5,14.8333 38.5,14.5 Z"/></g>
<g><path style="opacity:0.804" fill="#c3344f" d="M 45.5,13.5 C 45.8333,13.5 46.1667,13.5 46.5,13.5C 47.209,14.404 48.209,14.7373 49.5,14.5C 50.8333,14.5 52.1667,14.5 53.5,14.5C 53.5,14.8333 53.5,15.1667 53.5,15.5C 53.5,15.8333 53.5,16.1667 53.5,16.5C 52.8333,16.5 52.1667,16.5 51.5,16.5C 49.7354,15.5386 47.7354,15.2053 45.5,15.5C 45.5,14.8333 45.5,14.1667 45.5,13.5 Z"/></g>
<g><path style="opacity:0.208" fill="#c75a5e" d="M 53.5,12.5 C 54.8333,12.5 56.1667,12.5 57.5,12.5C 57.5,13.5 57.5,14.5 57.5,15.5C 56.5,15.5 55.5,15.5 54.5,15.5C 54.5,14.8333 54.1667,14.5 53.5,14.5C 53.5,13.8333 53.5,13.1667 53.5,12.5 Z"/></g>
<g><path style="opacity:0.012" fill="#bedae9" d="M 15.5,13.5 C 15.5,14.5 15.5,15.5 15.5,16.5C 15.0623,17.5063 14.3957,17.5063 13.5,16.5C 13.2852,14.8212 13.9519,13.8212 15.5,13.5 Z"/></g>
<g><path style="opacity:0.788" fill="#f8870d" d="M 33.5,13.5 C 33.8333,13.5 34.1667,13.5 34.5,13.5C 35.1667,13.8333 35.8333,14.1667 36.5,14.5C 36.8417,15.3382 37.5084,15.6716 38.5,15.5C 38.5,16.1667 38.5,16.8333 38.5,17.5C 37.5,17.5 36.5,17.5 35.5,17.5C 35.5,16.8333 35.1667,16.5 34.5,16.5C 34.5,15.8333 34.1667,15.5 33.5,15.5C 33.5,14.8333 33.5,14.1667 33.5,13.5 Z"/></g>
<g><path style="opacity:0.02" fill="#f8f8f6" d="M 57.5,15.5 C 59.5518,16.0527 59.8852,17.0527 58.5,18.5C 58.5,17.8333 58.1667,17.5 57.5,17.5C 57.5,16.8333 57.5,16.1667 57.5,15.5 Z"/></g>
<g><path style="opacity:0.882" fill="#eed8cf" d="M 20.5,15.5 C 21.1667,15.5 21.8333,15.5 22.5,15.5C 22.5,15.8333 22.5,16.1667 22.5,16.5C 22.1667,17.1667 21.8333,17.8333 21.5,18.5C 21.1667,18.5 20.8333,18.5 20.5,18.5C 20.1667,17.8333 19.8333,17.1667 19.5,16.5C 20.1667,16.5 20.5,16.1667 20.5,15.5 Z"/></g>
<g><path style="opacity:0.867" fill="#93ceb1" d="M 27.5,15.5 C 28.1667,15.5 28.8333,15.5 29.5,15.5C 29.5,15.8333 29.5,16.1667 29.5,16.5C 29.1667,17.1667 28.8333,17.8333 28.5,18.5C 28.1667,18.5 27.8333,18.5 27.5,18.5C 27.5,17.8333 27.5,17.1667 27.5,16.5C 27.5,16.1667 27.5,15.8333 27.5,15.5 Z"/></g>
<g><path style="opacity:0.98" fill="#a8bfb8" d="M 31.5,15.5 C 32.1667,15.5 32.8333,15.5 33.5,15.5C 34.1667,15.5 34.5,15.8333 34.5,16.5C 34.5,16.8333 34.5,17.1667 34.5,17.5C 33.8333,17.5 33.1667,17.5 32.5,17.5C 32.1667,17.5 31.8333,17.5 31.5,17.5C 31.5,16.8333 31.5,16.1667 31.5,15.5 Z"/></g>
<g><path style="opacity:0.871" fill="#abc6a7" d="M 44.5,15.5 C 44.8333,15.5 45.1667,15.5 45.5,15.5C 47.7354,15.2053 49.7354,15.5386 51.5,16.5C 51.1667,16.5 50.8333,16.5 50.5,16.5C 49.5,16.5 48.5,16.5 47.5,16.5C 46.2022,17.1157 45.2022,17.1157 44.5,16.5C 44.5,16.1667 44.5,15.8333 44.5,15.5 Z"/></g>
<g><path style="opacity:1" fill="#fbca4a" d="M 12.5,17.5 C 12.5,16.8333 12.8333,16.5 13.5,16.5C 14.3957,17.5063 15.0623,17.5063 15.5,16.5C 15.8333,16.5 16.1667,16.5 16.5,16.5C 16.5,17.1667 16.5,17.8333 16.5,18.5C 16.5,19.1667 16.5,19.8333 16.5,20.5C 16.1667,20.5 15.8333,20.5 15.5,20.5C 14.8333,19.1667 13.8333,18.1667 12.5,17.5 Z"/></g>
<g><path style="opacity:1" fill="#f64651" d="M 17.5,15.5 C 18.1667,15.8333 18.8333,16.1667 19.5,16.5C 19.8333,17.1667 20.1667,17.8333 20.5,18.5C 20.1667,18.5 19.8333,18.5 19.5,18.5C 18.0937,18.0269 17.427,17.0269 17.5,15.5 Z"/></g>
<g><path style="opacity:1" fill="#f9f9f2" d="M 22.5,16.5 C 22.8333,16.5 23.1667,16.5 23.5,16.5C 23.8333,17.5 24.5,18.1667 25.5,18.5C 25.5,19.1667 25.8333,19.5 26.5,19.5C 26.5,19.8333 26.5,20.1667 26.5,20.5C 25.609,21.1098 24.609,21.4431 23.5,21.5C 23.1667,20.5 22.5,19.8333 21.5,19.5C 21.5,19.1667 21.5,18.8333 21.5,18.5C 21.8333,17.8333 22.1667,17.1667 22.5,16.5 Z"/></g>
<g><path style="opacity:1" fill="#2b597d" d="M 24.5,14.5 C 25.5,15.1667 26.5,15.8333 27.5,16.5C 27.5,17.1667 27.5,17.8333 27.5,18.5C 27.5,18.8333 27.5,19.1667 27.5,19.5C 27.1667,19.5 26.8333,19.5 26.5,19.5C 25.8333,19.5 25.5,19.1667 25.5,18.5C 24.5,18.1667 23.8333,17.5 23.5,16.5C 23.5,16.1667 23.5,15.8333 23.5,15.5C 24.1667,15.5 24.5,15.1667 24.5,14.5 Z"/></g>
<g><path style="opacity:0.8" fill="#a9cdc6" d="M 40.5,16.5 C 41.1667,16.5 41.8333,16.5 42.5,16.5C 42.5,16.8333 42.5,17.1667 42.5,17.5C 41.5,17.8333 40.8333,18.5 40.5,19.5C 40.1667,19.5 39.8333,19.5 39.5,19.5C 38.8333,19.5 38.5,19.1667 38.5,18.5C 38.5,18.1667 38.5,17.8333 38.5,17.5C 39.1667,17.1667 39.8333,16.8333 40.5,16.5 Z"/></g>
<g><path style="opacity:1" fill="#f2d8ab" d="M 43.5,16.5 C 43.8333,16.5 44.1667,16.5 44.5,16.5C 45.2022,17.1157 46.2022,17.1157 47.5,16.5C 46.0582,17.8195 45.3915,19.4862 45.5,21.5C 45.1667,22.5 44.5,23.1667 43.5,23.5C 43.5,21.1667 43.5,18.8333 43.5,16.5 Z"/></g>
<g><path style="opacity:1" fill="#fc6762" d="M 50.5,16.5 C 50.8333,16.5 51.1667,16.5 51.5,16.5C 52.1667,16.5 52.8333,16.5 53.5,16.5C 53.5,17.1667 53.5,17.8333 53.5,18.5C 52.5,18.8333 51.8333,19.5 51.5,20.5C 51.1667,20.5 50.8333,20.5 50.5,20.5C 50.5,20.1667 50.5,19.8333 50.5,19.5C 50.5,18.8333 50.1667,18.5 49.5,18.5C 49.8333,17.8333 50.1667,17.1667 50.5,16.5 Z"/></g>
<g><path style="opacity:0.557" fill="#3c9ed0" d="M 53.5,15.5 C 53.8333,15.5 54.1667,15.5 54.5,15.5C 55.2905,16.4013 56.2905,17.0679 57.5,17.5C 58.1667,17.5 58.5,17.8333 58.5,18.5C 58.5,18.8333 58.5,19.1667 58.5,19.5C 57.8333,19.5 57.1667,19.5 56.5,19.5C 55.791,18.596 54.791,18.2627 53.5,18.5C 53.5,17.8333 53.5,17.1667 53.5,16.5C 53.5,16.1667 53.5,15.8333 53.5,15.5 Z"/></g>
<g><path style="opacity:0.373" fill="#e27c15" d="M 12.5,17.5 C 13.8333,18.1667 14.8333,19.1667 15.5,20.5C 13.5,20.5 12.5,19.5 12.5,17.5 Z"/></g>
<g><path style="opacity:0.118" fill="#c9214c" d="M 17.5,15.5 C 17.427,17.0269 18.0937,18.0269 19.5,18.5C 19.5,19.1667 19.1667,19.5 18.5,19.5C 17.8333,19.1667 17.1667,18.8333 16.5,18.5C 16.5,17.8333 16.5,17.1667 16.5,16.5C 16.5,15.8333 16.8333,15.5 17.5,15.5 Z"/></g>
<g><path style="opacity:1" fill="#f7fbed" d="M 29.5,16.5 C 30.1667,16.8333 30.8333,17.1667 31.5,17.5C 31.5,17.8333 31.5,18.1667 31.5,18.5C 30.3478,19.625 29.3478,19.625 28.5,18.5C 28.8333,17.8333 29.1667,17.1667 29.5,16.5 Z"/></g>
<g><path style="opacity:0.578" fill="#9ea4ac" d="M 32.5,18.5 C 32.5,18.1667 32.5,17.8333 32.5,17.5C 33.1667,17.5 33.8333,17.5 34.5,17.5C 34.8333,17.5 35.1667,17.5 35.5,17.5C 35.8417,18.3382 36.5084,18.6716 37.5,18.5C 37.1583,19.3382 36.4916,19.6716 35.5,19.5C 34.391,19.4431 33.391,19.1098 32.5,18.5 Z"/></g>
<g><path style="opacity:1" fill="#e6e0b3" d="M 47.5,16.5 C 48.5,16.5 49.5,16.5 50.5,16.5C 50.1667,17.1667 49.8333,17.8333 49.5,18.5C 48.1667,19.1667 47.1667,20.1667 46.5,21.5C 46.1667,21.5 45.8333,21.5 45.5,21.5C 45.3915,19.4862 46.0582,17.8195 47.5,16.5 Z"/></g>
<g><path style="opacity:0.973" fill="#ec3850" d="M 19.5,18.5 C 19.8333,18.5 20.1667,18.5 20.5,18.5C 20.8333,18.5 21.1667,18.5 21.5,18.5C 21.5,18.8333 21.5,19.1667 21.5,19.5C 20.6618,19.8417 20.3284,20.5084 20.5,21.5C 19.5,21.1667 18.8333,20.5 18.5,19.5C 19.1667,19.5 19.5,19.1667 19.5,18.5 Z"/></g>
<g><path style="opacity:0.98" fill="#88b19d" d="M 27.5,18.5 C 27.8333,18.5 28.1667,18.5 28.5,18.5C 29.3478,19.625 30.3478,19.625 31.5,18.5C 31.8333,18.5 32.1667,18.5 32.5,18.5C 32.5,19.1667 32.5,19.8333 32.5,20.5C 31.8333,20.5 31.1667,20.5 30.5,20.5C 29.5,20.5 28.5,20.5 27.5,20.5C 27.5,20.1667 27.5,19.8333 27.5,19.5C 27.5,19.1667 27.5,18.8333 27.5,18.5 Z"/></g>
<g><path style="opacity:0.337" fill="#96a7ab" d="M 37.5,18.5 C 37.8333,18.5 38.1667,18.5 38.5,18.5C 38.5,19.1667 38.8333,19.5 39.5,19.5C 39.1583,20.3382 38.4916,20.6716 37.5,20.5C 36.8333,20.5 36.1667,20.5 35.5,20.5C 35.5,20.1667 35.5,19.8333 35.5,19.5C 36.4916,19.6716 37.1583,19.3382 37.5,18.5 Z"/></g>
<g><path style="opacity:0.627" fill="#68717f" d="M 42.5,17.5 C 42.5,19.5 42.5,21.5 42.5,23.5C 41.8333,23.8333 41.1667,24.1667 40.5,24.5C 40.5,23.5 40.5,22.5 40.5,21.5C 40.5,20.8333 40.5,20.1667 40.5,19.5C 40.8333,18.5 41.5,17.8333 42.5,17.5 Z"/></g>
<g><path style="opacity:1" fill="#fb6255" d="M 49.5,18.5 C 50.1667,18.5 50.5,18.8333 50.5,19.5C 49.5,20.1667 48.5,20.8333 47.5,21.5C 47.1667,21.5 46.8333,21.5 46.5,21.5C 47.1667,20.1667 48.1667,19.1667 49.5,18.5 Z"/></g>
<g><path style="opacity:0.753" fill="#fe7c75" d="M 50.5,19.5 C 50.5,19.8333 50.5,20.1667 50.5,20.5C 50.1667,21.5 49.5,22.1667 48.5,22.5C 48.1667,22.5 47.8333,22.5 47.5,22.5C 47.5,22.1667 47.5,21.8333 47.5,21.5C 48.5,20.8333 49.5,20.1667 50.5,19.5 Z"/></g>
<g><path style="opacity:0.549" fill="#7de3f1" d="M 53.5,18.5 C 53.8417,19.3382 54.5084,19.6716 55.5,19.5C 54.8333,20.1667 54.1667,20.8333 53.5,21.5C 53.5,21.8333 53.5,22.1667 53.5,22.5C 53.5,22.8333 53.5,23.1667 53.5,23.5C 53.1667,23.5 52.8333,23.5 52.5,23.5C 52.1667,23.5 51.8333,23.5 51.5,23.5C 51.5,22.5 51.5,21.5 51.5,20.5C 51.8333,19.5 52.5,18.8333 53.5,18.5 Z"/></g>
<g><path style="opacity:0.51" fill="#e2313b" d="M 35.5,20.5 C 36.1667,20.5 36.8333,20.5 37.5,20.5C 37.5,20.8333 37.5,21.1667 37.5,21.5C 37.5,21.8333 37.5,22.1667 37.5,22.5C 36.8333,22.8333 36.1667,23.1667 35.5,23.5C 35.1667,22.8333 34.8333,22.1667 34.5,21.5C 34.5,20.8333 34.8333,20.5 35.5,20.5 Z"/></g>
<g><path style="opacity:0.91" fill="#faca5c" d="M 55.5,19.5 C 55.8333,19.5 56.1667,19.5 56.5,19.5C 57.1667,19.5 57.8333,19.5 58.5,19.5C 58.8333,20.1667 59.1667,20.8333 59.5,21.5C 59.1667,21.5 58.8333,21.5 58.5,21.5C 56.8333,21.5 55.1667,21.5 53.5,21.5C 54.1667,20.8333 54.8333,20.1667 55.5,19.5 Z"/></g>
<g><path style="opacity:0.957" fill="#1a3d62" d="M 16.5,18.5 C 17.1667,18.8333 17.8333,19.1667 18.5,19.5C 18.8333,20.5 19.5,21.1667 20.5,21.5C 20.5,21.8333 20.5,22.1667 20.5,22.5C 20.7271,24.9328 19.7271,26.5994 17.5,27.5C 17.5,27.1667 17.5,26.8333 17.5,26.5C 17.5,26.1667 17.5,25.8333 17.5,25.5C 19.332,24.8595 19.6653,23.8595 18.5,22.5C 17.7025,22.9569 17.3691,23.6236 17.5,24.5C 16.5,24.5 15.5,24.5 14.5,24.5C 13.5,24.5 12.5,24.5 11.5,24.5C 11.5,24.1667 11.5,23.8333 11.5,23.5C 13.7812,23.9227 15.4479,23.256 16.5,21.5C 16.5,21.1667 16.5,20.8333 16.5,20.5C 16.5,19.8333 16.5,19.1667 16.5,18.5 Z"/></g>
<g><path style="opacity:1" fill="#f54752" d="M 21.5,19.5 C 22.5,19.8333 23.1667,20.5 23.5,21.5C 23.5,21.8333 23.5,22.1667 23.5,22.5C 22.8333,22.5 22.1667,22.5 21.5,22.5C 21.1667,22.5 20.8333,22.5 20.5,22.5C 20.5,22.1667 20.5,21.8333 20.5,21.5C 20.3284,20.5084 20.6618,19.8417 21.5,19.5 Z"/></g>
<g><path style="opacity:1" fill="#f19316" d="M 27.5,21.5 C 29.1436,21.8102 30.1436,22.8102 30.5,24.5C 30.5,24.8333 30.5,25.1667 30.5,25.5C 30.1667,25.5 29.8333,25.5 29.5,25.5C 29.1667,24.8333 28.8333,24.1667 28.5,23.5C 28.1667,22.8333 27.8333,22.1667 27.5,21.5 Z"/></g>
<g><path style="opacity:0.976" fill="#f5f8ec" d="M 30.5,20.5 C 31.1667,20.5 31.8333,20.5 32.5,20.5C 33.1667,20.8333 33.8333,21.1667 34.5,21.5C 34.8333,22.1667 35.1667,22.8333 35.5,23.5C 35.5,23.8333 35.5,24.1667 35.5,24.5C 34.6043,23.4937 33.9377,23.4937 33.5,24.5C 31.7376,23.7377 30.7376,22.4044 30.5,20.5 Z"/></g>
<g><path style="opacity:0.82" fill="#c4c8c7" d="M 38.5,21.5 C 39.1667,21.5 39.8333,21.5 40.5,21.5C 40.5,22.5 40.5,23.5 40.5,24.5C 40.5,24.8333 40.5,25.1667 40.5,25.5C 40.1667,25.5 39.8333,25.5 39.5,25.5C 39.5674,24.0413 39.2341,22.7079 38.5,21.5 Z"/></g>
<g><path style="opacity:0.792" fill="#ea4124" d="M 53.5,22.5 C 53.5,22.1667 53.5,21.8333 53.5,21.5C 55.1667,21.5 56.8333,21.5 58.5,21.5C 58.8333,22.1667 59.1667,22.8333 59.5,23.5C 58.8333,23.5 58.1667,23.5 57.5,23.5C 56.4324,22.5655 55.099,22.2322 53.5,22.5 Z"/></g>
<g><path style="opacity:0.522" fill="#f4c150" d="M 58.5,21.5 C 58.8333,21.5 59.1667,21.5 59.5,21.5C 60.9063,21.9731 61.573,22.9731 61.5,24.5C 60.8333,24.5 60.1667,24.5 59.5,24.5C 59.5,24.1667 59.5,23.8333 59.5,23.5C 59.1667,22.8333 58.8333,22.1667 58.5,21.5 Z"/></g>
<g><path style="opacity:1" fill="#9ea9af" d="M 16.5,21.5 C 15.4479,23.256 13.7812,23.9227 11.5,23.5C 10.9569,23.44 10.6236,23.1067 10.5,22.5C 12.396,21.5344 14.396,21.2011 16.5,21.5 Z"/></g>
<g><path style="opacity:0.982" fill="#fa8276" d="M 26.5,20.5 C 26.5,21.1667 26.8333,21.5 27.5,21.5C 27.8333,22.1667 28.1667,22.8333 28.5,23.5C 27.609,24.1098 26.609,24.4431 25.5,24.5C 25.1667,23.5 24.5,22.8333 23.5,22.5C 23.5,22.1667 23.5,21.8333 23.5,21.5C 24.609,21.4431 25.609,21.1098 26.5,20.5 Z"/></g>
<g><path style="opacity:1" fill="#f1b944" d="M 27.5,21.5 C 27.5,21.1667 27.5,20.8333 27.5,20.5C 28.5,20.5 29.5,20.5 30.5,20.5C 30.7376,22.4044 31.7376,23.7377 33.5,24.5C 33.5,25.1667 33.5,25.8333 33.5,26.5C 32.5,25.8333 31.5,25.1667 30.5,24.5C 30.1436,22.8102 29.1436,21.8102 27.5,21.5 Z"/></g>
<g><path style="opacity:0.656" fill="#b5bcc0" d="M 37.5,21.5 C 37.8333,21.5 38.1667,21.5 38.5,21.5C 39.2341,22.7079 39.5674,24.0413 39.5,25.5C 38.8333,25.5 38.1667,25.5 37.5,25.5C 37.5,24.5 37.5,23.5 37.5,22.5C 37.5,22.1667 37.5,21.8333 37.5,21.5 Z"/></g>
<g><path style="opacity:0.82" fill="#96f5e7" d="M 50.5,20.5 C 50.8333,20.5 51.1667,20.5 51.5,20.5C 51.5,21.5 51.5,22.5 51.5,23.5C 50.8333,23.5 50.5,23.8333 50.5,24.5C 50.1667,24.5 49.8333,24.5 49.5,24.5C 49.5,23.8333 49.1667,23.5 48.5,23.5C 48.5,23.1667 48.5,22.8333 48.5,22.5C 49.5,22.1667 50.1667,21.5 50.5,20.5 Z"/></g>
<g><path style="opacity:0.933" fill="#4cb0d3" d="M 17.5,25.5 C 17.5,25.1667 17.5,24.8333 17.5,24.5C 17.3691,23.6236 17.7025,22.9569 18.5,22.5C 19.6653,23.8595 19.332,24.8595 17.5,25.5 Z"/></g>
<g><path style="opacity:1" fill="#eb374a" d="M 21.5,22.5 C 22.1667,22.5 22.8333,22.5 23.5,22.5C 24.5,22.8333 25.1667,23.5 25.5,24.5C 25.5,24.8333 25.5,25.1667 25.5,25.5C 25.5,26.1667 25.1667,26.5 24.5,26.5C 23.5,25.8333 22.5,25.1667 21.5,24.5C 21.5,23.8333 21.5,23.1667 21.5,22.5 Z"/></g>
<g><path style="opacity:1" fill="#fcf9eb" d="M 35.5,24.5 C 36.1667,24.8333 36.8333,25.1667 37.5,25.5C 37.5,25.8333 37.5,26.1667 37.5,26.5C 36.5084,26.3284 35.8417,26.6618 35.5,27.5C 34.8333,27.1667 34.1667,26.8333 33.5,26.5C 33.5,25.8333 33.5,25.1667 33.5,24.5C 33.9377,23.4937 34.6043,23.4937 35.5,24.5 Z"/></g>
<g><path style="opacity:1" fill="#fd8b27" d="M 45.5,21.5 C 45.8333,21.5 46.1667,21.5 46.5,21.5C 46.8333,21.5 47.1667,21.5 47.5,21.5C 47.5,21.8333 47.5,22.1667 47.5,22.5C 46.1667,23.5 44.8333,24.5 43.5,25.5C 43.5,24.8333 43.5,24.1667 43.5,23.5C 44.5,23.1667 45.1667,22.5 45.5,21.5 Z"/></g>
<g><path style="opacity:0.553" fill="#fa5d57" d="M 47.5,22.5 C 47.8333,22.5 48.1667,22.5 48.5,22.5C 48.5,22.8333 48.5,23.1667 48.5,23.5C 47.5,23.8333 46.8333,24.5 46.5,25.5C 45.5,26.1667 44.5,26.8333 43.5,27.5C 43.5,27.1667 43.5,26.8333 43.5,26.5C 43.5,26.1667 43.5,25.8333 43.5,25.5C 44.8333,24.5 46.1667,23.5 47.5,22.5 Z"/></g>
<g><path style="opacity:0.514" fill="#f2f5f0" d="M 53.5,24.5 C 53.5,24.1667 53.5,23.8333 53.5,23.5C 54.8333,23.5 56.1667,23.5 57.5,23.5C 57.8333,24.1667 58.1667,24.8333 58.5,25.5C 57.8333,25.5 57.1667,25.5 56.5,25.5C 55.791,24.596 54.791,24.2627 53.5,24.5 Z"/></g>
<g><path style="opacity:1" fill="#f16d6b" d="M 28.5,23.5 C 28.8333,24.1667 29.1667,24.8333 29.5,25.5C 28.6618,25.8417 28.3284,26.5084 28.5,27.5C 28.1667,27.5 27.8333,27.5 27.5,27.5C 27.1667,26.5 26.5,25.8333 25.5,25.5C 25.5,25.1667 25.5,24.8333 25.5,24.5C 26.609,24.4431 27.609,24.1098 28.5,23.5 Z"/></g>
<g><path style="opacity:0.592" fill="#42323e" d="M 42.5,23.5 C 42.2627,24.791 42.596,25.791 43.5,26.5C 43.5,26.8333 43.5,27.1667 43.5,27.5C 43.5,27.8333 43.5,28.1667 43.5,28.5C 43.1667,28.5 42.8333,28.5 42.5,28.5C 42.1583,27.6618 41.4916,27.3284 40.5,27.5C 40.5,26.8333 40.5,26.1667 40.5,25.5C 40.5,25.1667 40.5,24.8333 40.5,24.5C 41.1667,24.1667 41.8333,23.8333 42.5,23.5 Z"/></g>
<g><path style="opacity:0.8" fill="#9cf7ea" d="M 48.5,23.5 C 49.1667,23.5 49.5,23.8333 49.5,24.5C 49.1667,25.5 48.5,26.1667 47.5,26.5C 47.5,25.8333 47.1667,25.5 46.5,25.5C 46.8333,24.5 47.5,23.8333 48.5,23.5 Z"/></g>
<g><path style="opacity:1" fill="#5fabd1" d="M 53.5,24.5 C 54.791,24.2627 55.791,24.596 56.5,25.5C 55.6618,25.8417 55.3284,26.5084 55.5,27.5C 54.8333,27.5 54.1667,27.5 53.5,27.5C 53.5,26.5 53.5,25.5 53.5,24.5 Z"/></g>
<g><path style="opacity:0.945" fill="#f8df92" d="M 11.5,24.5 C 12.5,24.5 13.5,24.5 14.5,24.5C 14.1667,25.1667 13.8333,25.8333 13.5,26.5C 12.5,26.5 11.5,26.5 10.5,26.5C 9.24258,25.3774 9.57591,24.7107 11.5,24.5 Z"/></g>
<g><path style="opacity:0.949" fill="#c0831a" d="M 14.5,24.5 C 15.5,24.5 16.5,24.5 17.5,24.5C 17.5,24.8333 17.5,25.1667 17.5,25.5C 17.5,25.8333 17.5,26.1667 17.5,26.5C 16.8333,26.5 16.5,26.8333 16.5,27.5C 16.1667,27.5 15.8333,27.5 15.5,27.5C 15.1583,26.6618 14.4916,26.3284 13.5,26.5C 13.8333,25.8333 14.1667,25.1667 14.5,24.5 Z"/></g>
<g><path style="opacity:0.745" fill="#65b1de" d="M 20.5,22.5 C 20.8333,22.5 21.1667,22.5 21.5,22.5C 21.5,23.1667 21.5,23.8333 21.5,24.5C 21.5,25.5 21.5,26.5 21.5,27.5C 20.8333,27.5 20.5,27.8333 20.5,28.5C 20.1667,28.5 19.8333,28.5 19.5,28.5C 18.5084,28.6716 17.8417,28.3382 17.5,27.5C 19.7271,26.5994 20.7271,24.9328 20.5,22.5 Z"/></g>
<g><path style="opacity:1" fill="#fb8477" d="M 29.5,25.5 C 29.8333,25.5 30.1667,25.5 30.5,25.5C 30.5,25.8333 30.5,26.1667 30.5,26.5C 30.1667,27.1667 29.8333,27.8333 29.5,28.5C 28.8333,28.5 28.5,28.1667 28.5,27.5C 28.3284,26.5084 28.6618,25.8417 29.5,25.5 Z"/></g>
<g><path style="opacity:0.447" fill="#f7971f" d="M 30.5,24.5 C 31.5,25.1667 32.5,25.8333 33.5,26.5C 34.1667,26.8333 34.8333,27.1667 35.5,27.5C 35.5,28.1667 35.8333,28.5 36.5,28.5C 36.5,28.8333 36.5,29.1667 36.5,29.5C 35.5084,29.3284 34.8417,29.6618 34.5,30.5C 34.1667,30.5 33.8333,30.5 33.5,30.5C 32.9744,28.7697 31.9744,27.4363 30.5,26.5C 30.5,26.1667 30.5,25.8333 30.5,25.5C 30.5,25.1667 30.5,24.8333 30.5,24.5 Z"/></g>
<g><path style="opacity:1" fill="#76c9d3" d="M 49.5,24.5 C 49.8333,24.5 50.1667,24.5 50.5,24.5C 51.0431,24.56 51.3764,24.8933 51.5,25.5C 50.8075,26.5178 50.1408,27.5178 49.5,28.5C 48.8333,28.5 48.5,28.8333 48.5,29.5C 47.8333,29.8333 47.1667,30.1667 46.5,30.5C 46.5,29.8333 46.5,29.1667 46.5,28.5C 46.8333,27.8333 47.1667,27.1667 47.5,26.5C 48.5,26.1667 49.1667,25.5 49.5,24.5 Z"/></g>
<g><path style="opacity:0.728" fill="#cf4726" d="M 59.5,24.5 C 60.1667,24.5 60.8333,24.5 61.5,24.5C 62.625,25.3478 62.625,26.3478 61.5,27.5C 60.8333,27.5 60.1667,27.5 59.5,27.5C 59.5,26.5 59.5,25.5 59.5,24.5 Z"/></g>
<g><path style="opacity:1" fill="#842144" d="M 25.5,25.5 C 26.5,25.8333 27.1667,26.5 27.5,27.5C 27.5,28.1667 27.1667,28.5 26.5,28.5C 25.8333,28.1667 25.1667,27.8333 24.5,27.5C 24.5,27.1667 24.5,26.8333 24.5,26.5C 25.1667,26.5 25.5,26.1667 25.5,25.5 Z"/></g>
<g><path style="opacity:0.929" fill="#fbfcf3" d="M 37.5,26.5 C 38.1667,26.8333 38.8333,27.1667 39.5,27.5C 39.5,27.8333 39.5,28.1667 39.5,28.5C 38.5,28.5 37.5,28.5 36.5,28.5C 35.8333,28.5 35.5,28.1667 35.5,27.5C 35.8417,26.6618 36.5084,26.3284 37.5,26.5 Z"/></g>
<g><path style="opacity:0.827" fill="#a8f1e2" d="M 46.5,25.5 C 47.1667,25.5 47.5,25.8333 47.5,26.5C 47.1667,27.1667 46.8333,27.8333 46.5,28.5C 45.5,28.8333 44.8333,29.5 44.5,30.5C 44.1667,30.5 43.8333,30.5 43.5,30.5C 43.5,29.8333 43.5,29.1667 43.5,28.5C 43.5,28.1667 43.5,27.8333 43.5,27.5C 44.5,26.8333 45.5,26.1667 46.5,25.5 Z"/></g>
<g><path style="opacity:1" fill="#369ccd" d="M 50.5,24.5 C 50.5,23.8333 50.8333,23.5 51.5,23.5C 51.8333,23.5 52.1667,23.5 52.5,23.5C 52.8719,26.0217 52.0386,28.0217 50,29.5C 49.6012,29.2716 49.4346,28.9382 49.5,28.5C 50.1408,27.5178 50.8075,26.5178 51.5,25.5C 51.3764,24.8933 51.0431,24.56 50.5,24.5 Z"/></g>
<g><path style="opacity:0.251" fill="#2e99d3" d="M 56.5,25.5 C 57.1667,25.5 57.8333,25.5 58.5,25.5C 58.5,26.1667 58.5,26.8333 58.5,27.5C 57.8333,27.5 57.5,27.8333 57.5,28.5C 57.1667,28.5 56.8333,28.5 56.5,28.5C 55.8333,28.5 55.5,28.1667 55.5,27.5C 55.3284,26.5084 55.6618,25.8417 56.5,25.5 Z"/></g>
<g><path style="opacity:0.89" fill="#f7cd67" d="M 30.5,26.5 C 31.9744,27.4363 32.9744,28.7697 33.5,30.5C 33.1667,31.1667 32.8333,31.8333 32.5,32.5C 31.8333,32.5 31.5,32.1667 31.5,31.5C 30.8333,30.5 30.1667,29.5 29.5,28.5C 29.8333,27.8333 30.1667,27.1667 30.5,26.5 Z"/></g>
<g><path style="opacity:1" fill="#2d73a0" d="M 53.5,27.5 C 54.1667,27.5 54.8333,27.5 55.5,27.5C 55.5,28.1667 55.8333,28.5 56.5,28.5C 56.5,28.8333 56.5,29.1667 56.5,29.5C 55.8333,29.5 55.5,29.8333 55.5,30.5C 55.1667,30.5 54.8333,30.5 54.5,30.5C 54.1667,30.5 53.8333,30.5 53.5,30.5C 53.5,29.8333 53.5,29.1667 53.5,28.5C 53.5,28.1667 53.5,27.8333 53.5,27.5 Z"/></g>
<g><path style="opacity:1" fill="#c83a25" d="M 58.5,28.5 C 58.5,28.1667 58.5,27.8333 58.5,27.5C 58.8333,27.5 59.1667,27.5 59.5,27.5C 60.1667,27.5 60.8333,27.5 61.5,27.5C 61.5,28.1667 61.5,28.8333 61.5,29.5C 61.1667,29.5 60.8333,29.5 60.5,29.5C 60.1667,29.5 59.8333,29.5 59.5,29.5C 59.5,28.8333 59.1667,28.5 58.5,28.5 Z"/></g>
<g><path style="opacity:1" fill="#205876" d="M 21.5,24.5 C 22.5,25.1667 23.5,25.8333 24.5,26.5C 24.5,26.8333 24.5,27.1667 24.5,27.5C 24.5,27.8333 24.5,28.1667 24.5,28.5C 23.5084,28.3284 22.8417,28.6618 22.5,29.5C 22.1667,29.5 21.8333,29.5 21.5,29.5C 21.5,29.1667 21.5,28.8333 21.5,28.5C 21.5,28.1667 21.5,27.8333 21.5,27.5C 21.5,26.5 21.5,25.5 21.5,24.5 Z"/></g>
<g><path style="opacity:1" fill="#ec454d" d="M 27.5,27.5 C 27.8333,27.5 28.1667,27.5 28.5,27.5C 28.5,28.1667 28.8333,28.5 29.5,28.5C 30.1667,29.5 30.8333,30.5 31.5,31.5C 30.8333,31.8333 30.1667,32.1667 29.5,32.5C 29.1667,32.5 28.8333,32.5 28.5,32.5C 28.5,31.1667 27.8333,30.5 26.5,30.5C 26.5,29.8333 26.5,29.1667 26.5,28.5C 27.1667,28.5 27.5,28.1667 27.5,27.5 Z"/></g>
<g><path style="opacity:1" fill="#fbe7bf" d="M 36.5,29.5 C 36.5,29.1667 36.5,28.8333 36.5,28.5C 37.5,28.5 38.5,28.5 39.5,28.5C 39.5,28.8333 39.5,29.1667 39.5,29.5C 38.6618,29.8417 38.3284,30.5084 38.5,31.5C 37.8333,30.8333 37.1667,30.1667 36.5,29.5 Z"/></g>
<g><path style="opacity:0.961" fill="#2e72bb" d="M 39.5,27.5 C 39.8333,27.5 40.1667,27.5 40.5,27.5C 41.4916,27.3284 42.1583,27.6618 42.5,28.5C 42.5,29.5 42.5,30.5 42.5,31.5C 41.5,30.8333 40.5,30.1667 39.5,29.5C 39.5,29.1667 39.5,28.8333 39.5,28.5C 39.5,28.1667 39.5,27.8333 39.5,27.5 Z"/></g>
<g><path style="opacity:0.914" fill="#d18f73" d="M 10.5,26.5 C 11.5,26.5 12.5,26.5 13.5,26.5C 13.8417,27.3382 14.5084,27.6716 15.5,27.5C 15.8333,27.5 16.1667,27.5 16.5,27.5C 16.5,28.8333 15.8333,29.5 14.5,29.5C 13.5,29.8333 12.8333,30.5 12.5,31.5C 12.1667,31.5 11.8333,31.5 11.5,31.5C 10.8333,30.8333 10.1667,30.1667 9.5,29.5C 9.55688,28.391 9.89022,27.391 10.5,26.5 Z"/></g>
<g><path style="opacity:0.957" fill="#22374f" d="M 16.5,27.5 C 16.8333,27.5 17.1667,27.5 17.5,27.5C 17.8417,28.3382 18.5084,28.6716 19.5,28.5C 19.5,28.8333 19.5,29.1667 19.5,29.5C 19.1667,30.1667 18.8333,30.8333 18.5,31.5C 18.1667,31.5 17.8333,31.5 17.5,31.5C 17.1583,30.6618 16.4916,30.3284 15.5,30.5C 14.8333,30.5 14.5,30.1667 14.5,29.5C 15.8333,29.5 16.5,28.8333 16.5,27.5 Z"/></g>
<g><path style="opacity:1" fill="#316f8d" d="M 20.5,28.5 C 20.8333,28.5 21.1667,28.5 21.5,28.5C 21.5,28.8333 21.5,29.1667 21.5,29.5C 20.3995,30.6049 19.7329,31.9382 19.5,33.5C 19.5,33.8333 19.5,34.1667 19.5,34.5C 19.1667,34.5 18.8333,34.5 18.5,34.5C 18.5,33.8333 18.5,33.1667 18.5,32.5C 18.5,32.1667 18.5,31.8333 18.5,31.5C 18.8333,30.8333 19.1667,30.1667 19.5,29.5C 20.1667,29.5 20.5,29.1667 20.5,28.5 Z"/></g>
<g><path style="opacity:0.533" fill="#1f4b6c" d="M 24.5,27.5 C 25.1667,27.8333 25.8333,28.1667 26.5,28.5C 26.5,29.1667 26.5,29.8333 26.5,30.5C 26.5,31.1667 26.1667,31.5 25.5,31.5C 25.4431,30.391 25.1098,29.391 24.5,28.5C 24.5,28.1667 24.5,27.8333 24.5,27.5 Z"/></g>
<g><path style="opacity:0.676" fill="#fdf8ec" d="M 39.5,29.5 C 40.5,30.1667 41.5,30.8333 42.5,31.5C 42.5,32.1667 42.5,32.8333 42.5,33.5C 42.6716,34.4916 42.3382,35.1583 41.5,35.5C 41.1667,35.5 40.8333,35.5 40.5,35.5C 40.2671,33.9382 39.6005,32.6049 38.5,31.5C 38.3284,30.5084 38.6618,29.8417 39.5,29.5 Z"/></g>
<g><path style="opacity:1" fill="#e66649" d="M 57.5,28.5 C 57.8333,28.5 58.1667,28.5 58.5,28.5C 59.1667,28.5 59.5,28.8333 59.5,29.5C 59.5,29.8333 59.5,30.1667 59.5,30.5C 58.8333,30.5 58.5,30.8333 58.5,31.5C 58.1667,31.5 57.8333,31.5 57.5,31.5C 57.1667,31.5 56.8333,31.5 56.5,31.5C 56.5,30.8333 56.1667,30.5 55.5,30.5C 55.5,29.8333 55.8333,29.5 56.5,29.5C 57.1667,29.5 57.5,29.1667 57.5,28.5 Z"/></g>
<g><path style="opacity:1" fill="#5dd3ee" d="M 24.5,28.5 C 25.1098,29.391 25.4431,30.391 25.5,31.5C 25.1667,32.1667 24.8333,32.8333 24.5,33.5C 24.1667,33.5 23.8333,33.5 23.5,33.5C 23.1667,33.5 22.8333,33.5 22.5,33.5C 22.9528,32.5416 23.6195,31.7083 24.5,31C 23.9056,30.5357 23.2389,30.369 22.5,30.5C 22.5,30.1667 22.5,29.8333 22.5,29.5C 22.8417,28.6618 23.5084,28.3284 24.5,28.5 Z"/></g>
<g><path style="opacity:1" fill="#245e82" d="M 52.5,23.5 C 52.8333,23.5 53.1667,23.5 53.5,23.5C 53.5,23.8333 53.5,24.1667 53.5,24.5C 53.5,25.5 53.5,26.5 53.5,27.5C 53.5,27.8333 53.5,28.1667 53.5,28.5C 51.7376,29.2623 50.7376,30.5956 50.5,32.5C 49.1667,32.8333 47.8333,33.1667 46.5,33.5C 46.5,33.1667 46.5,32.8333 46.5,32.5C 47.9063,32.0269 48.573,31.0269 48.5,29.5C 48.5,28.8333 48.8333,28.5 49.5,28.5C 49.4346,28.9382 49.6012,29.2716 50,29.5C 52.0386,28.0217 52.8719,26.0217 52.5,23.5 Z"/></g>
<g><path style="opacity:0.675" fill="#0f2d4a" d="M 53.5,28.5 C 53.5,29.1667 53.5,29.8333 53.5,30.5C 53.5,30.8333 53.5,31.1667 53.5,31.5C 52.391,31.5569 51.391,31.8902 50.5,32.5C 50.7376,30.5956 51.7376,29.2623 53.5,28.5 Z"/></g>
<g><path style="opacity:0.863" fill="#6b7e88" d="M 54.5,30.5 C 54.8333,30.5 55.1667,30.5 55.5,30.5C 56.1667,30.5 56.5,30.8333 56.5,31.5C 56.5,31.8333 56.5,32.1667 56.5,32.5C 55.8333,32.5 55.5,32.8333 55.5,33.5C 54.8333,33.5 54.1667,33.5 53.5,33.5C 53.5,32.8333 53.5,32.1667 53.5,31.5C 54.1667,31.5 54.5,31.1667 54.5,30.5 Z"/></g>
<g><path style="opacity:0.384" fill="#de615d" d="M 9.5,29.5 C 10.1667,30.1667 10.8333,30.8333 11.5,31.5C 11.5,31.8333 11.5,32.1667 11.5,32.5C 11.5,33.5 11.5,34.5 11.5,35.5C 10.8333,35.5 10.1667,35.5 9.5,35.5C 9.04607,33.2589 9.04607,31.2589 9.5,29.5 Z"/></g>
<g><path style="opacity:0.243" fill="#f7a83b" d="M 14.5,29.5 C 14.5,30.1667 14.8333,30.5 15.5,30.5C 15.5,31.1667 15.5,31.8333 15.5,32.5C 14.8333,32.5 14.1667,32.5 13.5,32.5C 13.1667,32.5 12.8333,32.5 12.5,32.5C 12.5,32.1667 12.5,31.8333 12.5,31.5C 12.8333,30.5 13.5,29.8333 14.5,29.5 Z"/></g>
<g><path style="opacity:0.816" fill="#627285" d="M 15.5,30.5 C 16.4916,30.3284 17.1583,30.6618 17.5,31.5C 17.5,31.8333 17.5,32.1667 17.5,32.5C 17.7678,34.099 17.4345,35.4324 16.5,36.5C 16.7678,34.901 16.4345,33.5676 15.5,32.5C 15.5,31.8333 15.5,31.1667 15.5,30.5 Z"/></g>
<g><path style="opacity:0.957" fill="#f5d067" d="M 33.5,30.5 C 33.8333,30.5 34.1667,30.5 34.5,30.5C 34.8333,31.1667 35.1667,31.8333 35.5,32.5C 35.5,32.8333 35.5,33.1667 35.5,33.5C 34.8333,33.5 34.5,33.8333 34.5,34.5C 34.1667,34.5 33.8333,34.5 33.5,34.5C 33.1667,33.8333 32.8333,33.1667 32.5,32.5C 32.8333,31.8333 33.1667,31.1667 33.5,30.5 Z"/></g>
<g><path style="opacity:1" fill="#fa554c" d="M 36.5,29.5 C 37.1667,30.1667 37.8333,30.8333 38.5,31.5C 39.6005,32.6049 40.2671,33.9382 40.5,35.5C 39.8333,35.1667 39.1667,34.8333 38.5,34.5C 38.0269,33.0937 37.0269,32.427 35.5,32.5C 35.1667,31.8333 34.8333,31.1667 34.5,30.5C 34.8417,29.6618 35.5084,29.3284 36.5,29.5 Z"/></g>
<g><path style="opacity:1" fill="#5dbbd9" d="M 46.5,28.5 C 46.5,29.1667 46.5,29.8333 46.5,30.5C 46.1667,31.1667 45.8333,31.8333 45.5,32.5C 44.6618,32.1583 44.3284,31.4916 44.5,30.5C 44.8333,29.5 45.5,28.8333 46.5,28.5 Z"/></g>
<g><path style="opacity:1" fill="#6fb2c6" d="M 48.5,29.5 C 48.573,31.0269 47.9063,32.0269 46.5,32.5C 46.1667,32.5 45.8333,32.5 45.5,32.5C 45.8333,31.8333 46.1667,31.1667 46.5,30.5C 47.1667,30.1667 47.8333,29.8333 48.5,29.5 Z"/></g>
<g><path style="opacity:0.533" fill="#f7f6ea" d="M 53.5,31.5 C 53.5,32.1667 53.5,32.8333 53.5,33.5C 52.1667,33.8333 50.8333,34.1667 49.5,34.5C 49.8333,33.8333 50.1667,33.1667 50.5,32.5C 51.391,31.8902 52.391,31.5569 53.5,31.5 Z"/></g>
<g><path style="opacity:1" fill="#56c8e7" d="M 21.5,29.5 C 21.8333,29.5 22.1667,29.5 22.5,29.5C 22.5,29.8333 22.5,30.1667 22.5,30.5C 21.8333,31.8333 20.8333,32.8333 19.5,33.5C 19.7329,31.9382 20.3995,30.6049 21.5,29.5 Z"/></g>
<g><path style="opacity:1" fill="#a2e8d1" d="M 22.5,30.5 C 23.2389,30.369 23.9056,30.5357 24.5,31C 23.6195,31.7083 22.9528,32.5416 22.5,33.5C 21.5416,33.9528 20.7083,34.6195 20,35.5C 19.6012,35.2716 19.4346,34.9382 19.5,34.5C 19.5,34.1667 19.5,33.8333 19.5,33.5C 20.8333,32.8333 21.8333,31.8333 22.5,30.5 Z"/></g>
<g><path style="opacity:0.549" fill="#932d3f" d="M 26.5,30.5 C 27.8333,30.5 28.5,31.1667 28.5,32.5C 28.5,32.8333 28.5,33.1667 28.5,33.5C 28.5,33.8333 28.5,34.1667 28.5,34.5C 27.8333,34.1667 27.1667,33.8333 26.5,33.5C 25.8333,33.5 25.1667,33.5 24.5,33.5C 24.8333,32.8333 25.1667,32.1667 25.5,31.5C 26.1667,31.5 26.5,31.1667 26.5,30.5 Z"/></g>
<g><path style="opacity:1" fill="#912545" d="M 31.5,31.5 C 31.5,32.1667 31.8333,32.5 32.5,32.5C 32.8333,33.1667 33.1667,33.8333 33.5,34.5C 32.1667,34.1667 30.8333,33.8333 29.5,33.5C 29.5,33.1667 29.5,32.8333 29.5,32.5C 30.1667,32.1667 30.8333,31.8333 31.5,31.5 Z"/></g>
<g><path style="opacity:0.2" fill="#e26504" d="M 59.5,29.5 C 59.8333,29.5 60.1667,29.5 60.5,29.5C 60.2322,31.099 60.5655,32.4324 61.5,33.5C 61.1667,34.1667 60.8333,34.8333 60.5,35.5C 59.5489,34.0813 59.2155,32.4147 59.5,30.5C 59.5,30.1667 59.5,29.8333 59.5,29.5 Z"/></g>
<g><path style="opacity:0.259" fill="#dd9225" d="M 60.5,29.5 C 60.8333,29.5 61.1667,29.5 61.5,29.5C 62.4345,30.5676 62.7678,31.901 62.5,33.5C 62.1667,33.5 61.8333,33.5 61.5,33.5C 60.5655,32.4324 60.2322,31.099 60.5,29.5 Z"/></g>
<g><path style="opacity:0.247" fill="#f03839" d="M 13.5,32.5 C 14.1667,32.5 14.8333,32.5 15.5,32.5C 15.8693,34.9935 15.2027,35.6602 13.5,34.5C 13.5,33.8333 13.5,33.1667 13.5,32.5 Z"/></g>
<g><path style="opacity:1" fill="#e5484c" d="M 23.5,33.5 C 23.8333,33.5 24.1667,33.5 24.5,33.5C 25.1667,33.5 25.8333,33.5 26.5,33.5C 25.4863,34.6737 24.153,35.3404 22.5,35.5C 22.8333,34.8333 23.1667,34.1667 23.5,33.5 Z"/></g>
<g><path style="opacity:0.961" fill="#d93458" d="M 35.5,33.5 C 35.5,33.1667 35.5,32.8333 35.5,32.5C 37.0269,32.427 38.0269,33.0937 38.5,34.5C 38.5,34.8333 38.5,35.1667 38.5,35.5C 38.1667,35.5 37.8333,35.5 37.5,35.5C 37.1667,34.5 36.5,33.8333 35.5,33.5 Z"/></g>
<g><path style="opacity:1" fill="#52bceb" d="M 43.5,30.5 C 43.8333,30.5 44.1667,30.5 44.5,30.5C 44.3284,31.4916 44.6618,32.1583 45.5,32.5C 45.8333,32.5 46.1667,32.5 46.5,32.5C 46.5,32.8333 46.5,33.1667 46.5,33.5C 45.596,34.209 45.2627,35.209 45.5,36.5C 45.1667,36.5 44.8333,36.5 44.5,36.5C 44.4431,35.391 44.1098,34.391 43.5,33.5C 43.5,32.5 43.5,31.5 43.5,30.5 Z"/></g>
<g><path style="opacity:1" fill="#12385d" d="M 50.5,32.5 C 50.1667,33.1667 49.8333,33.8333 49.5,34.5C 48.8333,34.5 48.5,34.8333 48.5,35.5C 47.8333,35.5 47.5,35.8333 47.5,36.5C 46.8333,36.5 46.5,36.8333 46.5,37.5C 45.8333,37.5 45.5,37.1667 45.5,36.5C 45.2627,35.209 45.596,34.209 46.5,33.5C 47.8333,33.1667 49.1667,32.8333 50.5,32.5 Z"/></g>
<g><path style="opacity:0.329" fill="#e0f2f1" d="M 57.5,31.5 C 57.8333,31.5 58.1667,31.5 58.5,31.5C 58.634,33.2915 58.3007,34.9582 57.5,36.5C 56.8333,36.5 56.5,36.1667 56.5,35.5C 55.8333,34.1667 55.1667,34.1667 54.5,35.5C 54.1667,35.5 53.8333,35.5 53.5,35.5C 53.5,35.1667 53.5,34.8333 53.5,34.5C 53.5,34.1667 53.5,33.8333 53.5,33.5C 54.1667,33.5 54.8333,33.5 55.5,33.5C 56.1667,33.5 56.5,33.1667 56.5,32.5C 57.1667,32.5 57.5,32.1667 57.5,31.5 Z"/></g>
<g><path style="opacity:0.941" fill="#6e8ca1" d="M 11.5,32.5 C 11.8333,32.5 12.1667,32.5 12.5,32.5C 12.8333,32.5 13.1667,32.5 13.5,32.5C 13.5,33.1667 13.5,33.8333 13.5,34.5C 13.5,35.1667 13.5,35.8333 13.5,36.5C 12.8333,36.1667 12.1667,35.8333 11.5,35.5C 11.5,34.5 11.5,33.5 11.5,32.5 Z"/></g>
<g><path style="opacity:1" fill="#872347" d="M 29.5,33.5 C 30.8333,33.8333 32.1667,34.1667 33.5,34.5C 33.6716,35.4916 33.3382,36.1583 32.5,36.5C 31.1667,35.8333 30.1667,34.8333 29.5,33.5 Z"/></g>
<g><path style="opacity:1" fill="#fddb69" d="M 35.5,33.5 C 36.5,33.8333 37.1667,34.5 37.5,35.5C 36.8333,35.5 36.1667,35.5 35.5,35.5C 34.8333,35.5 34.5,35.1667 34.5,34.5C 34.5,33.8333 34.8333,33.5 35.5,33.5 Z"/></g>
<g><path style="opacity:0.871" fill="#ffd865" d="M 53.5,33.5 C 53.5,33.8333 53.5,34.1667 53.5,34.5C 52.8333,34.8333 52.1667,35.1667 51.5,35.5C 50.5,35.5 49.5,35.5 48.5,35.5C 48.5,34.8333 48.8333,34.5 49.5,34.5C 50.8333,34.1667 52.1667,33.8333 53.5,33.5 Z"/></g>
<g><path style="opacity:0.271" fill="#ce5219" d="M 61.5,33.5 C 61.8333,33.5 62.1667,33.5 62.5,33.5C 62.7148,35.1788 62.0481,36.1788 60.5,36.5C 60.5,36.1667 60.5,35.8333 60.5,35.5C 60.8333,34.8333 61.1667,34.1667 61.5,33.5 Z"/></g>
<g><path style="opacity:1" fill="#33a3d2" d="M 22.5,33.5 C 22.8333,33.5 23.1667,33.5 23.5,33.5C 23.1667,34.1667 22.8333,34.8333 22.5,35.5C 21.1667,36.1667 20.1667,37.1667 19.5,38.5C 19.1667,38.5 18.8333,38.5 18.5,38.5C 18.5,37.1667 18.5,35.8333 18.5,34.5C 18.8333,34.5 19.1667,34.5 19.5,34.5C 19.4346,34.9382 19.6012,35.2716 20,35.5C 20.7083,34.6195 21.5416,33.9528 22.5,33.5 Z"/></g>
<g><path style="opacity:1" fill="#f85848" d="M 26.5,33.5 C 27.1667,33.8333 27.8333,34.1667 28.5,34.5C 28.5,34.8333 28.5,35.1667 28.5,35.5C 27.5084,35.3284 26.8417,35.6618 26.5,36.5C 25.8333,36.8333 25.1667,37.1667 24.5,37.5C 24.0623,36.4937 23.3957,36.4937 22.5,37.5C 22.5,36.8333 22.5,36.1667 22.5,35.5C 24.153,35.3404 25.4863,34.6737 26.5,33.5 Z"/></g>
<g><path style="opacity:0.784" fill="#153e59" d="M 28.5,33.5 C 28.8333,33.5 29.1667,33.5 29.5,33.5C 30.1667,34.8333 31.1667,35.8333 32.5,36.5C 32.8333,37.1667 33.1667,37.8333 33.5,38.5C 32.8333,38.5 32.1667,38.5 31.5,38.5C 30.8333,38.1667 30.1667,37.8333 29.5,37.5C 29.5,36.8333 29.1667,36.5 28.5,36.5C 28.5,36.1667 28.5,35.8333 28.5,35.5C 28.5,35.1667 28.5,34.8333 28.5,34.5C 28.5,34.1667 28.5,33.8333 28.5,33.5 Z"/></g>
<g><path style="opacity:0.974" fill="#f9cc67" d="M 35.5,35.5 C 36.1667,35.5 36.8333,35.5 37.5,35.5C 37.8333,35.5 38.1667,35.5 38.5,35.5C 38.8333,36.1667 39.1667,36.8333 39.5,37.5C 38.5084,37.3284 37.8417,37.6618 37.5,38.5C 36.8333,38.1667 36.1667,37.8333 35.5,37.5C 35.5,36.8333 35.5,36.1667 35.5,35.5 Z"/></g>
<g><path style="opacity:1" fill="#fbac8b" d="M 42.5,33.5 C 42.8333,33.5 43.1667,33.5 43.5,33.5C 44.1098,34.391 44.4431,35.391 44.5,36.5C 44.5,37.1667 44.1667,37.5 43.5,37.5C 43.1667,37.5 42.8333,37.5 42.5,37.5C 42.1667,36.8333 41.8333,36.1667 41.5,35.5C 42.3382,35.1583 42.6716,34.4916 42.5,33.5 Z"/></g>
<g><path style="opacity:0.939" fill="#fac535" d="M 48.5,35.5 C 49.5,35.5 50.5,35.5 51.5,35.5C 51.5,35.8333 51.5,36.1667 51.5,36.5C 50.6618,36.8417 50.3284,37.5084 50.5,38.5C 49.609,37.8902 48.609,37.5569 47.5,37.5C 47.5,37.1667 47.5,36.8333 47.5,36.5C 47.5,35.8333 47.8333,35.5 48.5,35.5 Z"/></g>
<g><path style="opacity:0.627" fill="#fa7a1e" d="M 53.5,34.5 C 53.5,34.8333 53.5,35.1667 53.5,35.5C 53.5,36.1667 53.5,36.8333 53.5,37.5C 53.5,37.8333 53.5,38.1667 53.5,38.5C 52.8333,37.8333 52.1667,37.1667 51.5,36.5C 51.5,36.1667 51.5,35.8333 51.5,35.5C 52.1667,35.1667 52.8333,34.8333 53.5,34.5 Z"/></g>
<g><path style="opacity:1" fill="#eaaa49" d="M 59.5,30.5 C 59.2155,32.4147 59.5489,34.0813 60.5,35.5C 60.5,35.8333 60.5,36.1667 60.5,36.5C 60.5,36.8333 60.5,37.1667 60.5,37.5C 60.1667,37.5 59.8333,37.5 59.5,37.5C 59.1667,37.5 58.8333,37.5 58.5,37.5C 58.5,36.8333 58.1667,36.5 57.5,36.5C 58.3007,34.9582 58.634,33.2915 58.5,31.5C 58.5,30.8333 58.8333,30.5 59.5,30.5 Z"/></g>
<g><path style="opacity:0.788" fill="#ee4334" d="M 9.5,36.5 C 9.5,36.1667 9.5,35.8333 9.5,35.5C 10.1667,35.5 10.8333,35.5 11.5,35.5C 12.1667,35.8333 12.8333,36.1667 13.5,36.5C 13.5,36.8333 13.5,37.1667 13.5,37.5C 13.5,38.1667 13.1667,38.5 12.5,38.5C 11.8333,38.1667 11.1667,37.8333 10.5,37.5C 10.5,36.8333 10.1667,36.5 9.5,36.5 Z"/></g>
<g><path style="opacity:0.792" fill="#667785" d="M 15.5,32.5 C 16.4345,33.5676 16.7678,34.901 16.5,36.5C 16.5,36.8333 16.5,37.1667 16.5,37.5C 15.5,37.5 14.5,37.5 13.5,37.5C 13.5,37.1667 13.5,36.8333 13.5,36.5C 13.5,35.8333 13.5,35.1667 13.5,34.5C 15.2027,35.6602 15.8693,34.9935 15.5,32.5 Z"/></g>
<g><path style="opacity:0.875" fill="#295f80" d="M 17.5,32.5 C 17.8333,32.5 18.1667,32.5 18.5,32.5C 18.5,33.1667 18.5,33.8333 18.5,34.5C 18.5,35.8333 18.5,37.1667 18.5,38.5C 17.8333,38.5 17.1667,38.5 16.5,38.5C 16.5,38.1667 16.5,37.8333 16.5,37.5C 16.5,37.1667 16.5,36.8333 16.5,36.5C 17.4345,35.4324 17.7678,34.099 17.5,32.5 Z"/></g>
<g><path style="opacity:1" fill="#ed4150" d="M 33.5,34.5 C 33.8333,34.5 34.1667,34.5 34.5,34.5C 34.5,35.1667 34.8333,35.5 35.5,35.5C 35.5,36.1667 35.5,36.8333 35.5,37.5C 35.5,37.8333 35.5,38.1667 35.5,38.5C 34.8333,38.5 34.1667,38.5 33.5,38.5C 33.1667,37.8333 32.8333,37.1667 32.5,36.5C 33.3382,36.1583 33.6716,35.4916 33.5,34.5 Z"/></g>
<g><path style="opacity:0.718" fill="#e23652" d="M 38.5,34.5 C 39.1667,34.8333 39.8333,35.1667 40.5,35.5C 40.8333,35.5 41.1667,35.5 41.5,35.5C 41.8333,36.1667 42.1667,36.8333 42.5,37.5C 41.8333,37.8333 41.1667,38.1667 40.5,38.5C 39.8333,38.5 39.5,38.1667 39.5,37.5C 39.1667,36.8333 38.8333,36.1667 38.5,35.5C 38.5,35.1667 38.5,34.8333 38.5,34.5 Z"/></g>
<g><path style="opacity:0.357" fill="#3f749c" d="M 53.5,35.5 C 53.8333,35.5 54.1667,35.5 54.5,35.5C 55.1667,35.5 55.8333,35.5 56.5,35.5C 56.5,36.1667 56.8333,36.5 57.5,36.5C 57.5,36.8333 57.5,37.1667 57.5,37.5C 56.8333,37.5 56.1667,37.5 55.5,37.5C 54.8333,37.5 54.1667,37.5 53.5,37.5C 53.5,36.8333 53.5,36.1667 53.5,35.5 Z"/></g>
<g><path style="opacity:0.42" fill="#39c1ef" d="M 9.5,36.5 C 10.1667,36.5 10.5,36.8333 10.5,37.5C 10.5,38.5 10.5,39.5 10.5,40.5C 9.83333,40.8333 9.16667,41.1667 8.5,41.5C 8.21552,39.5853 8.54885,37.9187 9.5,36.5 Z"/></g>
<g><path style="opacity:1" fill="#ee4b51" d="M 22.5,35.5 C 22.5,36.1667 22.5,36.8333 22.5,37.5C 22.1667,38.1667 21.8333,38.8333 21.5,39.5C 20.8333,39.8333 20.1667,40.1667 19.5,40.5C 19.5,39.8333 19.5,39.1667 19.5,38.5C 20.1667,37.1667 21.1667,36.1667 22.5,35.5 Z"/></g>
<g><path style="opacity:0.612" fill="#f39224" d="M 26.5,36.5 C 26.5,37.5 26.5,38.5 26.5,39.5C 25.5084,39.6716 24.8417,39.3382 24.5,38.5C 24.5,38.1667 24.5,37.8333 24.5,37.5C 25.1667,37.1667 25.8333,36.8333 26.5,36.5 Z"/></g>
<g><path style="opacity:0.714" fill="#e4e3b1" d="M 28.5,35.5 C 28.5,35.8333 28.5,36.1667 28.5,36.5C 28.5,36.8333 28.5,37.1667 28.5,37.5C 28.5,38.1667 28.5,38.8333 28.5,39.5C 28.1667,39.5 27.8333,39.5 27.5,39.5C 27.1667,39.5 26.8333,39.5 26.5,39.5C 26.5,38.5 26.5,37.5 26.5,36.5C 26.8417,35.6618 27.5084,35.3284 28.5,35.5 Z"/></g>
<g><path style="opacity:1" fill="#f77567" d="M 44.5,36.5 C 44.8333,36.5 45.1667,36.5 45.5,36.5C 45.5,37.1667 45.8333,37.5 46.5,37.5C 46.5,37.8333 46.5,38.1667 46.5,38.5C 45.6618,38.8417 45.3284,39.5084 45.5,40.5C 45.1667,40.5 44.8333,40.5 44.5,40.5C 44.4431,39.391 44.1098,38.391 43.5,37.5C 44.1667,37.5 44.5,37.1667 44.5,36.5 Z"/></g>
<g><path style="opacity:0.745" fill="#9a4722" d="M 47.5,36.5 C 47.5,36.8333 47.5,37.1667 47.5,37.5C 47.8333,38.5 48.5,39.1667 49.5,39.5C 49.5,40.1667 49.5,40.8333 49.5,41.5C 48.1667,40.8333 47.1667,39.8333 46.5,38.5C 46.5,38.1667 46.5,37.8333 46.5,37.5C 46.5,36.8333 46.8333,36.5 47.5,36.5 Z"/></g>
<g><path style="opacity:0.486" fill="#eefaef" d="M 55.5,37.5 C 56.1667,37.5 56.8333,37.5 57.5,37.5C 57.8333,37.5 58.1667,37.5 58.5,37.5C 58.8333,37.5 59.1667,37.5 59.5,37.5C 59.5,37.8333 59.5,38.1667 59.5,38.5C 59.5,39.1667 59.5,39.8333 59.5,40.5C 59.1667,40.5 58.8333,40.5 58.5,40.5C 57.2946,39.3143 55.9613,39.3143 54.5,40.5C 54.1667,40.5 53.8333,40.5 53.5,40.5C 53.5,40.1667 53.5,39.8333 53.5,39.5C 54.5,39.1667 55.1667,38.5 55.5,37.5 Z"/></g>
<g><path style="opacity:0.949" fill="#6e7583" d="M 13.5,37.5 C 14.5,37.5 15.5,37.5 16.5,37.5C 16.5,37.8333 16.5,38.1667 16.5,38.5C 15.8333,38.8333 15.1667,39.1667 14.5,39.5C 13.8333,39.5 13.1667,39.5 12.5,39.5C 12.5,39.1667 12.5,38.8333 12.5,38.5C 13.1667,38.5 13.5,38.1667 13.5,37.5 Z"/></g>
<g><path style="opacity:1" fill="#fc7672" d="M 24.5,37.5 C 24.5,37.8333 24.5,38.1667 24.5,38.5C 23.8333,38.5 23.5,38.8333 23.5,39.5C 23.1667,39.5 22.8333,39.5 22.5,39.5C 22.1667,39.5 21.8333,39.5 21.5,39.5C 21.8333,38.8333 22.1667,38.1667 22.5,37.5C 23.3957,36.4937 24.0623,36.4937 24.5,37.5 Z"/></g>
<g><path style="opacity:0.949" fill="#fa4f54" d="M 29.5,37.5 C 30.1667,37.8333 30.8333,38.1667 31.5,38.5C 31.5,38.8333 31.5,39.1667 31.5,39.5C 31.5,39.8333 31.5,40.1667 31.5,40.5C 29.9519,40.1788 29.2852,39.1788 29.5,37.5 Z"/></g>
<g><path style="opacity:0.702" fill="#11374d" d="M 31.5,39.5 C 31.5,39.1667 31.5,38.8333 31.5,38.5C 32.1667,38.5 32.8333,38.5 33.5,38.5C 33.8333,39.1667 34.1667,39.8333 34.5,40.5C 34.5,40.8333 34.5,41.1667 34.5,41.5C 34.1667,41.5 33.8333,41.5 33.5,41.5C 33.5,40.8333 33.1667,40.5 32.5,40.5C 32.5,39.8333 32.1667,39.5 31.5,39.5 Z"/></g>
<g><path style="opacity:1" fill="#f55448" d="M 35.5,37.5 C 36.1667,37.8333 36.8333,38.1667 37.5,38.5C 38.6005,39.6049 39.2671,40.9382 39.5,42.5C 37.8333,41.5 36.5,40.1667 35.5,38.5C 35.5,38.1667 35.5,37.8333 35.5,37.5 Z"/></g>
<g><path style="opacity:0.877" fill="#fdd667" d="M 39.5,37.5 C 39.5,38.1667 39.8333,38.5 40.5,38.5C 41.1667,39.5 41.8333,40.5 42.5,41.5C 42.1583,42.3382 41.4916,42.6716 40.5,42.5C 40.1667,42.5 39.8333,42.5 39.5,42.5C 39.2671,40.9382 38.6005,39.6049 37.5,38.5C 37.8417,37.6618 38.5084,37.3284 39.5,37.5 Z"/></g>
<g><path style="opacity:1" fill="#eb9b25" d="M 47.5,37.5 C 48.609,37.5569 49.609,37.8902 50.5,38.5C 51.5,39.1667 52.5,39.8333 53.5,40.5C 53.5,41.1667 53.5,41.8333 53.5,42.5C 52.1667,41.5 50.8333,40.5 49.5,39.5C 48.5,39.1667 47.8333,38.5 47.5,37.5 Z"/></g>
<g><path style="opacity:0.667" fill="#fa4c21" d="M 51.5,36.5 C 52.1667,37.1667 52.8333,37.8333 53.5,38.5C 53.5,38.8333 53.5,39.1667 53.5,39.5C 53.5,39.8333 53.5,40.1667 53.5,40.5C 52.5,39.8333 51.5,39.1667 50.5,38.5C 50.3284,37.5084 50.6618,36.8417 51.5,36.5 Z"/></g>
<g><path style="opacity:0.627" fill="#f1e3b4" d="M 24.5,38.5 C 24.8417,39.3382 25.5084,39.6716 26.5,39.5C 26.8333,39.5 27.1667,39.5 27.5,39.5C 27.5,39.8333 27.5,40.1667 27.5,40.5C 26.5,41.1667 25.5,41.8333 24.5,42.5C 24.1667,42.5 23.8333,42.5 23.5,42.5C 23.5,41.5 23.5,40.5 23.5,39.5C 23.5,38.8333 23.8333,38.5 24.5,38.5 Z"/></g>
<g><path style="opacity:1" fill="#e73651" d="M 33.5,38.5 C 34.1667,38.5 34.8333,38.5 35.5,38.5C 36.5,40.1667 37.8333,41.5 39.5,42.5C 39.8333,42.5 40.1667,42.5 40.5,42.5C 40.8333,43.1667 41.1667,43.8333 41.5,44.5C 40.5084,44.3284 39.8417,44.6618 39.5,45.5C 38.8333,45.1667 38.1667,44.8333 37.5,44.5C 37.573,42.9731 36.9063,41.9731 35.5,41.5C 35.5,40.8333 35.1667,40.5 34.5,40.5C 34.1667,39.8333 33.8333,39.1667 33.5,38.5 Z"/></g>
<g><path style="opacity:1" fill="#7e1d46" d="M 42.5,37.5 C 42.8333,37.5 43.1667,37.5 43.5,37.5C 44.1098,38.391 44.4431,39.391 44.5,40.5C 43.8333,40.5 43.5,40.8333 43.5,41.5C 43.1667,41.5 42.8333,41.5 42.5,41.5C 41.8333,40.5 41.1667,39.5 40.5,38.5C 41.1667,38.1667 41.8333,37.8333 42.5,37.5 Z"/></g>
<g><path style="opacity:1" fill="#f7c661" d="M 46.5,38.5 C 47.1667,39.8333 48.1667,40.8333 49.5,41.5C 49.5,41.8333 49.5,42.1667 49.5,42.5C 48.8333,42.5 48.5,42.8333 48.5,43.5C 47.5,42.8333 46.5,42.1667 45.5,41.5C 45.5,41.1667 45.5,40.8333 45.5,40.5C 45.3284,39.5084 45.6618,38.8417 46.5,38.5 Z"/></g>
<g><path style="opacity:0.729" fill="#c0bcbc" d="M 60.5,37.5 C 63.1125,38.0955 63.1125,38.9288 60.5,40C 61.7736,40.9772 61.7736,41.8106 60.5,42.5C 59.6618,42.1583 59.3284,41.4916 59.5,40.5C 59.5,39.8333 59.5,39.1667 59.5,38.5C 60.1667,38.5 60.5,38.1667 60.5,37.5 Z"/></g>
<g><path style="opacity:1" fill="#fd6966" d="M 21.5,39.5 C 21.8333,39.5 22.1667,39.5 22.5,39.5C 21.8333,40.5 21.1667,41.5 20.5,42.5C 20.1667,42.5 19.8333,42.5 19.5,42.5C 19.5,41.8333 19.5,41.1667 19.5,40.5C 20.1667,40.1667 20.8333,39.8333 21.5,39.5 Z"/></g>
<g><path style="opacity:0.357" fill="#dd3537" d="M 28.5,37.5 C 28.8333,37.5 29.1667,37.5 29.5,37.5C 29.2852,39.1788 29.9519,40.1788 31.5,40.5C 31.8333,40.5 32.1667,40.5 32.5,40.5C 32.5,40.8333 32.5,41.1667 32.5,41.5C 32.5,42.1667 32.5,42.8333 32.5,43.5C 31.8333,43.1667 31.1667,42.8333 30.5,42.5C 30.1667,41.1667 29.8333,41.1667 29.5,42.5C 29.1667,42.5 28.8333,42.5 28.5,42.5C 28.5,41.5 28.5,40.5 28.5,39.5C 28.5,38.8333 28.5,38.1667 28.5,37.5 Z"/></g>
<g><path style="opacity:1" fill="#5ecae0" d="M 58.5,40.5 C 57.1667,40.5 56.5,41.1667 56.5,42.5C 55.5,42.1667 54.8333,41.5 54.5,40.5C 55.9613,39.3143 57.2946,39.3143 58.5,40.5 Z"/></g>
<g><path style="opacity:0.592" fill="#43a0c7" d="M 10.5,40.5 C 10.5569,41.609 10.8902,42.609 11.5,43.5C 9.97306,43.573 8.97306,42.9063 8.5,41.5C 9.16667,41.1667 9.83333,40.8333 10.5,40.5 Z"/></g>
<g><path style="opacity:0.686" fill="#ceeedb" d="M 10.5,37.5 C 11.1667,37.8333 11.8333,38.1667 12.5,38.5C 12.5,38.8333 12.5,39.1667 12.5,39.5C 12.2291,41.3797 12.8958,42.713 14.5,43.5C 15.1667,44.1667 15.8333,44.8333 16.5,45.5C 16.5,45.8333 16.5,46.1667 16.5,46.5C 15.609,45.8902 14.609,45.5569 13.5,45.5C 13.1667,45.5 12.8333,45.5 12.5,45.5C 12.1667,44.8333 11.8333,44.1667 11.5,43.5C 10.8902,42.609 10.5569,41.609 10.5,40.5C 10.5,39.5 10.5,38.5 10.5,37.5 Z"/></g>
<g><path style="opacity:0.827" fill="#c8c9c6" d="M 12.5,39.5 C 13.1667,39.5 13.8333,39.5 14.5,39.5C 14.5,40.8333 15.1667,41.5 16.5,41.5C 16.5,41.8333 16.5,42.1667 16.5,42.5C 15.5084,42.3284 14.8417,42.6618 14.5,43.5C 12.8958,42.713 12.2291,41.3797 12.5,39.5 Z"/></g>
<g><path style="opacity:1" fill="#faa734" d="M 22.5,39.5 C 22.8333,39.5 23.1667,39.5 23.5,39.5C 23.5,40.5 23.5,41.5 23.5,42.5C 22.8333,42.5 22.1667,42.5 21.5,42.5C 21.1667,42.5 20.8333,42.5 20.5,42.5C 21.1667,41.5 21.8333,40.5 22.5,39.5 Z"/></g>
<g><path style="opacity:0.137" fill="#254567" d="M 34.5,41.5 C 34.8333,41.5 35.1667,41.5 35.5,41.5C 36.9063,41.9731 37.573,42.9731 37.5,44.5C 37.5,45.1667 37.1667,45.5 36.5,45.5C 35.3995,44.3951 34.7329,43.0618 34.5,41.5 Z"/></g>
<g><path style="opacity:1" fill="#df2f54" d="M 44.5,40.5 C 44.8333,40.5 45.1667,40.5 45.5,40.5C 45.5,40.8333 45.5,41.1667 45.5,41.5C 45.7376,43.4044 46.7376,44.7377 48.5,45.5C 48.6716,46.4916 48.3382,47.1583 47.5,47.5C 47.5,46.8333 47.1667,46.5 46.5,46.5C 46.5,45.8333 46.1667,45.5 45.5,45.5C 45.1667,44.5 44.5,43.8333 43.5,43.5C 43.5,42.8333 43.5,42.1667 43.5,41.5C 43.5,40.8333 43.8333,40.5 44.5,40.5 Z"/></g>
<g><path style="opacity:1" fill="#ab4426" d="M 49.5,39.5 C 50.8333,40.5 52.1667,41.5 53.5,42.5C 53.5,43.5 53.5,44.5 53.5,45.5C 53.5,45.8333 53.5,46.1667 53.5,46.5C 53.1667,46.5 52.8333,46.5 52.5,46.5C 51.5,45.1667 50.5,43.8333 49.5,42.5C 49.5,42.1667 49.5,41.8333 49.5,41.5C 49.5,40.8333 49.5,40.1667 49.5,39.5 Z"/></g>
<g><path style="opacity:0.831" fill="#c2c2c1" d="M 16.5,42.5 C 17.3382,42.8417 17.6716,43.5084 17.5,44.5C 17.5,45.1667 17.1667,45.5 16.5,45.5C 15.8333,44.8333 15.1667,44.1667 14.5,43.5C 14.8417,42.6618 15.5084,42.3284 16.5,42.5 Z"/></g>
<g><path style="opacity:0.871" fill="#802346" d="M 18.5,38.5 C 18.8333,38.5 19.1667,38.5 19.5,38.5C 19.5,39.1667 19.5,39.8333 19.5,40.5C 19.5,41.1667 19.5,41.8333 19.5,42.5C 19.5,42.8333 19.5,43.1667 19.5,43.5C 18.8333,43.8333 18.1667,44.1667 17.5,44.5C 17.6716,43.5084 17.3382,42.8417 16.5,42.5C 16.5,42.1667 16.5,41.8333 16.5,41.5C 17.1667,40.5 17.8333,39.5 18.5,38.5 Z"/></g>
<g><path style="opacity:1" fill="#f1ce96" d="M 21.5,42.5 C 22.1667,42.5 22.8333,42.5 23.5,42.5C 23.5,43.1667 23.5,43.8333 23.5,44.5C 22.1667,45.1667 21.1667,46.1667 20.5,47.5C 20.1667,47.5 19.8333,47.5 19.5,47.5C 19.5,47.1667 19.5,46.8333 19.5,46.5C 19.5,46.1667 19.5,45.8333 19.5,45.5C 20.9063,45.0269 21.573,44.0269 21.5,42.5 Z"/></g>
<g><path style="opacity:0.612" fill="#eea121" d="M 27.5,40.5 C 27.1667,41.8333 26.8333,43.1667 26.5,44.5C 25.5,44.1667 24.8333,43.5 24.5,42.5C 25.5,41.8333 26.5,41.1667 27.5,40.5 Z"/></g>
<g><path style="opacity:0.263" fill="#d0a72e" d="M 27.5,39.5 C 27.8333,39.5 28.1667,39.5 28.5,39.5C 28.5,40.5 28.5,41.5 28.5,42.5C 28.5,43.1667 28.5,43.8333 28.5,44.5C 27.8333,44.5 27.1667,44.5 26.5,44.5C 26.8333,43.1667 27.1667,41.8333 27.5,40.5C 27.5,40.1667 27.5,39.8333 27.5,39.5 Z"/></g>
<g><path style="opacity:1" fill="#facb62" d="M 42.5,41.5 C 42.8333,41.5 43.1667,41.5 43.5,41.5C 43.5,42.1667 43.5,42.8333 43.5,43.5C 42.8333,43.5 42.5,43.8333 42.5,44.5C 42.1667,44.5 41.8333,44.5 41.5,44.5C 41.1667,43.8333 40.8333,43.1667 40.5,42.5C 41.4916,42.6716 42.1583,42.3382 42.5,41.5 Z"/></g>
<g><path style="opacity:0.722" fill="#2c5a7a" d="M 53.5,40.5 C 53.8333,40.5 54.1667,40.5 54.5,40.5C 54.8333,41.5 55.5,42.1667 56.5,42.5C 56.8333,43.1667 57.1667,43.8333 57.5,44.5C 55.8007,44.4729 54.4674,43.8062 53.5,42.5C 53.5,41.8333 53.5,41.1667 53.5,40.5 Z"/></g>
<g><path style="opacity:1" fill="#58a8c6" d="M 58.5,40.5 C 58.5,41.8333 58.5,43.1667 58.5,44.5C 58.1667,44.5 57.8333,44.5 57.5,44.5C 57.1667,43.8333 56.8333,43.1667 56.5,42.5C 56.5,41.1667 57.1667,40.5 58.5,40.5 Z"/></g>
<g><path style="opacity:1" fill="#fdaf2f" d="M 19.5,42.5 C 19.8333,42.5 20.1667,42.5 20.5,42.5C 20.8333,42.5 21.1667,42.5 21.5,42.5C 21.573,44.0269 20.9063,45.0269 19.5,45.5C 19.5,44.8333 19.5,44.1667 19.5,43.5C 19.5,43.1667 19.5,42.8333 19.5,42.5 Z"/></g>
<g><path style="opacity:1" fill="#c9490f" d="M 23.5,42.5 C 23.8333,42.5 24.1667,42.5 24.5,42.5C 24.8333,43.5 25.5,44.1667 26.5,44.5C 26.5,45.1667 26.5,45.8333 26.5,46.5C 26.1667,46.5 25.8333,46.5 25.5,46.5C 25.5,45.8333 25.1667,45.5 24.5,45.5C 24.5,44.8333 24.1667,44.5 23.5,44.5C 23.5,43.8333 23.5,43.1667 23.5,42.5 Z"/></g>
<g><path style="opacity:0.922" fill="#e1ab37" d="M 29.5,42.5 C 29.8333,42.5 30.1667,42.5 30.5,42.5C 31.1667,42.8333 31.8333,43.1667 32.5,43.5C 32.5,43.8333 32.5,44.1667 32.5,44.5C 31.6618,44.8417 31.3284,45.5084 31.5,46.5C 31.1667,46.5 30.8333,46.5 30.5,46.5C 29.7659,45.2921 29.4326,43.9587 29.5,42.5 Z"/></g>
<g><path style="opacity:1" fill="#4d86aa" d="M 32.5,41.5 C 32.8333,41.5 33.1667,41.5 33.5,41.5C 33.8333,41.5 34.1667,41.5 34.5,41.5C 34.7329,43.0618 35.3995,44.3951 36.5,45.5C 36.5,45.8333 36.5,46.1667 36.5,46.5C 36.1667,46.5 35.8333,46.5 35.5,46.5C 33.9731,46.573 32.9731,45.9063 32.5,44.5C 32.5,44.1667 32.5,43.8333 32.5,43.5C 32.5,42.8333 32.5,42.1667 32.5,41.5 Z"/></g>
<g><path style="opacity:0.875" fill="#fbdb68" d="M 43.5,43.5 C 44.5,43.8333 45.1667,44.5 45.5,45.5C 44.8333,45.5 44.1667,45.5 43.5,45.5C 43.1667,45.5 42.8333,45.5 42.5,45.5C 42.5,45.1667 42.5,44.8333 42.5,44.5C 42.5,43.8333 42.8333,43.5 43.5,43.5 Z"/></g>
<g><path style="opacity:1" fill="#f75444" d="M 45.5,41.5 C 46.5,42.1667 47.5,42.8333 48.5,43.5C 48.5,44.1667 48.5,44.8333 48.5,45.5C 46.7376,44.7377 45.7376,43.4044 45.5,41.5 Z"/></g>
<g><path style="opacity:0.282" fill="#b9dace" d="M 58.5,40.5 C 58.8333,40.5 59.1667,40.5 59.5,40.5C 59.3284,41.4916 59.6618,42.1583 60.5,42.5C 60.5,42.8333 60.5,43.1667 60.5,43.5C 59.8333,43.8333 59.1667,44.1667 58.5,44.5C 58.5,43.1667 58.5,41.8333 58.5,40.5 Z"/></g>
<g><path style="opacity:1" fill="#fbc75e" d="M 49.5,42.5 C 50.5,43.8333 51.5,45.1667 52.5,46.5C 52.1583,47.3382 51.4916,47.6716 50.5,47.5C 50.1667,46.5 49.5,45.8333 48.5,45.5C 48.5,44.8333 48.5,44.1667 48.5,43.5C 48.5,42.8333 48.8333,42.5 49.5,42.5 Z"/></g>
<g><path style="opacity:0.851" fill="#687488" d="M 60.5,43.5 C 61.8333,44.1667 61.8333,44.8333 60.5,45.5C 59.8333,45.5 59.1667,45.5 58.5,45.5C 58.5,45.1667 58.5,44.8333 58.5,44.5C 59.1667,44.1667 59.8333,43.8333 60.5,43.5 Z"/></g>
<g><path style="opacity:0.906" fill="#e79324" d="M 19.5,43.5 C 19.5,44.1667 19.5,44.8333 19.5,45.5C 19.5,45.8333 19.5,46.1667 19.5,46.5C 18.609,47.1098 17.609,47.4431 16.5,47.5C 16.5,47.1667 16.5,46.8333 16.5,46.5C 16.5,46.1667 16.5,45.8333 16.5,45.5C 17.1667,45.5 17.5,45.1667 17.5,44.5C 18.1667,44.1667 18.8333,43.8333 19.5,43.5 Z"/></g>
<g><path style="opacity:1" fill="#852447" d="M 41.5,44.5 C 41.8333,44.5 42.1667,44.5 42.5,44.5C 42.5,44.8333 42.5,45.1667 42.5,45.5C 42.1667,46.5 41.5,47.1667 40.5,47.5C 39.6618,47.1583 39.3284,46.4916 39.5,45.5C 39.8417,44.6618 40.5084,44.3284 41.5,44.5 Z"/></g>
<g><path style="opacity:0.658" fill="#f83d56" d="M 12.5,45.5 C 12.5,46.1667 12.5,46.8333 12.5,47.5C 12.5,47.8333 12.5,48.1667 12.5,48.5C 8.69003,47.2458 8.69003,46.2458 12.5,45.5 Z"/></g>
<g><path style="opacity:1" fill="#fb8a07" d="M 23.5,44.5 C 24.1667,44.5 24.5,44.8333 24.5,45.5C 23.5,45.8333 22.8333,46.5 22.5,47.5C 22.1667,47.5 21.8333,47.5 21.5,47.5C 21.1667,47.5 20.8333,47.5 20.5,47.5C 21.1667,46.1667 22.1667,45.1667 23.5,44.5 Z"/></g>
<g><path style="opacity:0.757" fill="#d9a924" d="M 24.5,45.5 C 25.1667,45.5 25.5,45.8333 25.5,46.5C 25.5,46.8333 25.5,47.1667 25.5,47.5C 24.8333,47.5 24.5,47.8333 24.5,48.5C 24.1667,48.5 23.8333,48.5 23.5,48.5C 23.5,47.8333 23.1667,47.5 22.5,47.5C 22.8333,46.5 23.5,45.8333 24.5,45.5 Z"/></g>
<g><path style="opacity:0.275" fill="#54a6c8" d="M 26.5,44.5 C 27.1667,44.5 27.8333,44.5 28.5,44.5C 28.5,45.5 28.5,46.5 28.5,47.5C 28.5,47.8333 28.5,48.1667 28.5,48.5C 28.1667,48.5 27.8333,48.5 27.5,48.5C 27.1667,47.8333 26.8333,47.1667 26.5,46.5C 26.5,45.8333 26.5,45.1667 26.5,44.5 Z"/></g>
<g><path style="opacity:0.91" fill="#fac520" d="M 32.5,44.5 C 32.9731,45.9063 33.9731,46.573 35.5,46.5C 35.1667,47.1667 34.8333,47.8333 34.5,48.5C 33.8333,48.5 33.1667,48.5 32.5,48.5C 32.1667,47.8333 31.8333,47.1667 31.5,46.5C 31.3284,45.5084 31.6618,44.8417 32.5,44.5 Z"/></g>
<g><path style="opacity:0.953" fill="#fbd065" d="M 43.5,45.5 C 44.1667,45.5 44.8333,45.5 45.5,45.5C 46.1667,45.5 46.5,45.8333 46.5,46.5C 46.5,47.5 46.5,48.5 46.5,49.5C 45.5,48.8333 44.5,48.1667 43.5,47.5C 43.5,46.8333 43.5,46.1667 43.5,45.5 Z"/></g>
<g><path style="opacity:0.812" fill="#716c77" d="M 53.5,45.5 C 54.8333,45.5 56.1667,45.5 57.5,45.5C 57.1667,46.1667 56.8333,46.8333 56.5,47.5C 56.5,47.8333 56.5,48.1667 56.5,48.5C 56.1667,48.5 55.8333,48.5 55.5,48.5C 54.8333,48.5 54.1667,48.5 53.5,48.5C 53.5,47.8333 53.5,47.1667 53.5,46.5C 53.5,46.1667 53.5,45.8333 53.5,45.5 Z"/></g>
<g><path style="opacity:0.537" fill="#6c7988" d="M 57.5,45.5 C 57.8333,45.5 58.1667,45.5 58.5,45.5C 59.1667,45.5 59.8333,45.5 60.5,45.5C 60.1667,46.1667 59.8333,46.8333 59.5,47.5C 59.1667,47.5 58.8333,47.5 58.5,47.5C 58.1667,47.5 57.8333,47.5 57.5,47.5C 57.1667,47.5 56.8333,47.5 56.5,47.5C 56.8333,46.8333 57.1667,46.1667 57.5,45.5 Z"/></g>
<g><path style="opacity:0.614" fill="#ed4536" d="M 12.5,47.5 C 12.8333,47.5 13.1667,47.5 13.5,47.5C 14.1667,47.8333 14.8333,48.1667 15.5,48.5C 15.5,48.8333 15.5,49.1667 15.5,49.5C 15.5,49.8333 15.5,50.1667 15.5,50.5C 15.1667,50.5 14.8333,50.5 14.5,50.5C 13.5,50.1667 12.8333,49.5 12.5,48.5C 12.5,48.1667 12.5,47.8333 12.5,47.5 Z"/></g>
<g><path style="opacity:0.741" fill="#142b48" d="M 13.5,45.5 C 14.609,45.5569 15.609,45.8902 16.5,46.5C 16.5,46.8333 16.5,47.1667 16.5,47.5C 16.5,48.1667 16.1667,48.5 15.5,48.5C 14.8333,48.1667 14.1667,47.8333 13.5,47.5C 13.5,46.8333 13.5,46.1667 13.5,45.5 Z"/></g>
<g><path style="opacity:0.761" fill="#e1ac2e" d="M 21.5,47.5 C 21.8333,47.5 22.1667,47.5 22.5,47.5C 23.1667,47.5 23.5,47.8333 23.5,48.5C 23.5,48.8333 23.5,49.1667 23.5,49.5C 22.8333,49.5 22.5,49.8333 22.5,50.5C 22.1667,50.5 21.8333,50.5 21.5,50.5C 21.5,49.8333 21.5,49.1667 21.5,48.5C 21.5,48.1667 21.5,47.8333 21.5,47.5 Z"/></g>
<g><path style="opacity:0.822" fill="#d5f4e2" d="M 30.5,46.5 C 30.8333,46.5 31.1667,46.5 31.5,46.5C 31.8333,47.1667 32.1667,47.8333 32.5,48.5C 31.6618,48.8417 31.3284,49.5084 31.5,50.5C 30.5,50.5 29.5,50.5 28.5,50.5C 28.5,49.8333 28.5,49.1667 28.5,48.5C 28.5,48.1667 28.5,47.8333 28.5,47.5C 29.1667,47.1667 29.8333,46.8333 30.5,46.5 Z"/></g>
<g><path style="opacity:0.306" fill="#fabd1e" d="M 35.5,46.5 C 35.8333,46.5 36.1667,46.5 36.5,46.5C 37.3382,46.8417 37.6716,47.5084 37.5,48.5C 37.1667,48.5 36.8333,48.5 36.5,48.5C 35.8333,48.5 35.1667,48.5 34.5,48.5C 34.8333,47.8333 35.1667,47.1667 35.5,46.5 Z"/></g>
<g><path style="opacity:0.933" fill="#ed414d" d="M 42.5,45.5 C 42.8333,45.5 43.1667,45.5 43.5,45.5C 43.5,46.1667 43.5,46.8333 43.5,47.5C 43.5,47.8333 43.5,48.1667 43.5,48.5C 42.8333,48.5 42.1667,48.5 41.5,48.5C 41.1667,48.5 40.8333,48.5 40.5,48.5C 40.5,48.1667 40.5,47.8333 40.5,47.5C 41.5,47.1667 42.1667,46.5 42.5,45.5 Z"/></g>
<g><path style="opacity:0.89" fill="#e73a4d" d="M 48.5,45.5 C 49.5,45.8333 50.1667,46.5 50.5,47.5C 51.1098,48.391 51.4431,49.391 51.5,50.5C 51.1667,50.5 50.8333,50.5 50.5,50.5C 49.8333,50.1667 49.1667,49.8333 48.5,49.5C 48.1667,48.8333 47.8333,48.1667 47.5,47.5C 48.3382,47.1583 48.6716,46.4916 48.5,45.5 Z"/></g>
<g><path style="opacity:0.557" fill="#3c5b6d" d="M 19.5,46.5 C 19.5,46.8333 19.5,47.1667 19.5,47.5C 19.0269,48.9063 18.0269,49.573 16.5,49.5C 16.1667,49.5 15.8333,49.5 15.5,49.5C 15.5,49.1667 15.5,48.8333 15.5,48.5C 16.1667,48.5 16.5,48.1667 16.5,47.5C 17.609,47.4431 18.609,47.1098 19.5,46.5 Z"/></g>
<g><path style="opacity:1" fill="#6dedfa" d="M 25.5,46.5 C 25.8333,46.5 26.1667,46.5 26.5,46.5C 26.8333,47.1667 27.1667,47.8333 27.5,48.5C 26.5416,48.9528 25.7083,49.6195 25,50.5C 24.6012,50.2716 24.4346,49.9382 24.5,49.5C 24.5,49.1667 24.5,48.8333 24.5,48.5C 25.1667,48.5 25.5,48.1667 25.5,47.5C 25.5,47.1667 25.5,46.8333 25.5,46.5 Z"/></g>
<g><path style="opacity:1" fill="#de3551" d="M 41.5,49.5 C 41.5,49.1667 41.5,48.8333 41.5,48.5C 42.1667,48.5 42.8333,48.5 43.5,48.5C 43.8333,49.1667 44.1667,49.8333 44.5,50.5C 44.5,51.1667 44.5,51.8333 44.5,52.5C 44.1667,52.5 43.8333,52.5 43.5,52.5C 43.6716,51.5084 43.3382,50.8417 42.5,50.5C 42.5,49.8333 42.1667,49.5 41.5,49.5 Z"/></g>
<g><path style="opacity:1" fill="#f45c51" d="M 43.5,47.5 C 44.5,48.1667 45.5,48.8333 46.5,49.5C 46.8417,50.3382 47.5084,50.6716 48.5,50.5C 48.5,51.1667 48.5,51.8333 48.5,52.5C 48.1667,52.5 47.8333,52.5 47.5,52.5C 46.7095,51.5987 45.7095,50.9321 44.5,50.5C 44.1667,49.8333 43.8333,49.1667 43.5,48.5C 43.5,48.1667 43.5,47.8333 43.5,47.5 Z"/></g>
<g><path style="opacity:0.608" fill="#fad56b" d="M 46.5,46.5 C 47.1667,46.5 47.5,46.8333 47.5,47.5C 47.8333,48.1667 48.1667,48.8333 48.5,49.5C 48.5,49.8333 48.5,50.1667 48.5,50.5C 47.5084,50.6716 46.8417,50.3382 46.5,49.5C 46.5,48.5 46.5,47.5 46.5,46.5 Z"/></g>
<g><path style="opacity:0.988" fill="#f4f5ea" d="M 56.5,47.5 C 56.8333,47.5 57.1667,47.5 57.5,47.5C 57.8333,48.8333 58.1667,48.8333 58.5,47.5C 58.8333,47.5 59.1667,47.5 59.5,47.5C 59.8333,47.5 60.1667,47.5 60.5,47.5C 60.2178,48.7777 59.5511,49.7777 58.5,50.5C 57.5,50.1667 56.8333,49.5 56.5,48.5C 56.5,48.1667 56.5,47.8333 56.5,47.5 Z"/></g>
<g><path style="opacity:0.188" fill="#d7dcd0" d="M 60.5,47.5 C 61.404,48.209 61.7373,49.209 61.5,50.5C 60.5,50.5 59.5,50.5 58.5,50.5C 59.5511,49.7777 60.2178,48.7777 60.5,47.5 Z"/></g>
<g><path style="opacity:1" fill="#e87b12" d="M 19.5,47.5 C 19.8333,47.5 20.1667,47.5 20.5,47.5C 20.8333,47.5 21.1667,47.5 21.5,47.5C 21.5,47.8333 21.5,48.1667 21.5,48.5C 19.2729,49.4006 18.2729,51.0672 18.5,53.5C 18.5,53.8333 18.5,54.1667 18.5,54.5C 17.8333,54.5 17.1667,54.5 16.5,54.5C 16.5,53.5 16.5,52.5 16.5,51.5C 16.5,50.8333 16.5,50.1667 16.5,49.5C 18.0269,49.573 19.0269,48.9063 19.5,47.5 Z"/></g>
<g><path style="opacity:0.816" fill="#dea823" d="M 21.5,48.5 C 21.5,49.1667 21.5,49.8333 21.5,50.5C 21.5,50.8333 21.5,51.1667 21.5,51.5C 20.8333,51.5 20.5,51.8333 20.5,52.5C 19.8333,52.5 19.5,52.8333 19.5,53.5C 19.1667,53.5 18.8333,53.5 18.5,53.5C 18.2729,51.0672 19.2729,49.4006 21.5,48.5 Z"/></g>
<g><path style="opacity:0.618" fill="#6d7a8e" d="M 32.5,48.5 C 33.1667,48.5 33.8333,48.5 34.5,48.5C 35.1667,48.5 35.8333,48.5 36.5,48.5C 36.5,49.1667 36.5,49.8333 36.5,50.5C 34.8333,50.5 33.1667,50.5 31.5,50.5C 31.3284,49.5084 31.6618,48.8417 32.5,48.5 Z"/></g>
<g><path style="opacity:0.859" fill="#969eac" d="M 36.5,48.5 C 36.8333,48.5 37.1667,48.5 37.5,48.5C 38.1667,48.8333 38.8333,49.1667 39.5,49.5C 39.5,50.1667 39.5,50.8333 39.5,51.5C 38.8333,51.5 38.1667,51.5 37.5,51.5C 37.5,50.8333 37.1667,50.5 36.5,50.5C 36.5,49.8333 36.5,49.1667 36.5,48.5 Z"/></g>
<g><path style="opacity:0.62" fill="#f18419" d="M 52.5,46.5 C 52.8333,46.5 53.1667,46.5 53.5,46.5C 53.5,47.1667 53.5,47.8333 53.5,48.5C 53.5,49.1667 53.5,49.8333 53.5,50.5C 52.8333,50.5 52.1667,50.5 51.5,50.5C 51.4431,49.391 51.1098,48.391 50.5,47.5C 51.4916,47.6716 52.1583,47.3382 52.5,46.5 Z"/></g>
<g><path style="opacity:0.078" fill="#eaf0ed" d="M 55.5,48.5 C 55.8333,48.5 56.1667,48.5 56.5,48.5C 56.8333,49.5 57.5,50.1667 58.5,50.5C 58.7148,52.1788 58.0481,53.1788 56.5,53.5C 56.1667,53.5 55.8333,53.5 55.5,53.5C 55.5,52.8333 55.5,52.1667 55.5,51.5C 56.8333,51.1667 56.8333,50.8333 55.5,50.5C 55.5,49.8333 55.5,49.1667 55.5,48.5 Z"/></g>
<g><path style="opacity:1" fill="#3a99c8" d="M 27.5,48.5 C 27.8333,48.5 28.1667,48.5 28.5,48.5C 28.5,49.1667 28.5,49.8333 28.5,50.5C 27.5084,50.3284 26.8417,50.6618 26.5,51.5C 25.8333,51.8333 25.1667,52.1667 24.5,52.5C 23.2022,53.1157 22.2022,53.1157 21.5,52.5C 21.5,52.1667 21.5,51.8333 21.5,51.5C 22.1667,51.5 22.5,51.1667 22.5,50.5C 23.1667,50.5 23.5,50.1667 23.5,49.5C 23.8333,49.5 24.1667,49.5 24.5,49.5C 24.4346,49.9382 24.6012,50.2716 25,50.5C 25.7083,49.6195 26.5416,48.9528 27.5,48.5 Z"/></g>
<g><path style="opacity:0.224" fill="#9be2ce" d="M 28.5,50.5 C 28.5,50.8333 28.5,51.1667 28.5,51.5C 28.5,51.8333 28.5,52.1667 28.5,52.5C 27.8333,52.5 27.5,52.8333 27.5,53.5C 27.1667,53.5 26.8333,53.5 26.5,53.5C 26.5,52.8333 26.5,52.1667 26.5,51.5C 26.8417,50.6618 27.5084,50.3284 28.5,50.5 Z"/></g>
<g><path style="opacity:0.957" fill="#1f4b6c" d="M 40.5,48.5 C 40.8333,48.5 41.1667,48.5 41.5,48.5C 41.5,48.8333 41.5,49.1667 41.5,49.5C 42.1667,49.5 42.5,49.8333 42.5,50.5C 42.5,50.8333 42.5,51.1667 42.5,51.5C 41.8333,51.5 41.1667,51.5 40.5,51.5C 40.1667,51.5 39.8333,51.5 39.5,51.5C 39.5,50.8333 39.5,50.1667 39.5,49.5C 39.5,48.8333 39.8333,48.5 40.5,48.5 Z"/></g>
<g><path style="opacity:1" fill="#faefe3" d="M 48.5,49.5 C 49.1667,49.8333 49.8333,50.1667 50.5,50.5C 50.5,51.1667 50.5,51.8333 50.5,52.5C 49.8333,52.5 49.1667,52.5 48.5,52.5C 48.5,51.8333 48.5,51.1667 48.5,50.5C 48.5,50.1667 48.5,49.8333 48.5,49.5 Z"/></g>
<g><path style="opacity:0.261" fill="#e86c0e" d="M 53.5,48.5 C 54.1667,48.5 54.8333,48.5 55.5,48.5C 55.5,49.1667 55.5,49.8333 55.5,50.5C 55.5,50.8333 55.5,51.1667 55.5,51.5C 55.5,52.1667 55.5,52.8333 55.5,53.5C 55.1667,53.5 54.8333,53.5 54.5,53.5C 54.1667,53.5 53.8333,53.5 53.5,53.5C 53.5,52.5 53.5,51.5 53.5,50.5C 53.5,49.8333 53.5,49.1667 53.5,48.5 Z"/></g>
<g><path style="opacity:0.937" fill="#30a5e5" d="M 14.5,50.5 C 14.8333,50.5 15.1667,50.5 15.5,50.5C 15.5,51.1667 15.8333,51.5 16.5,51.5C 16.5,52.5 16.5,53.5 16.5,54.5C 16.1667,54.5 15.8333,54.5 15.5,54.5C 15.4431,53.391 15.1098,52.391 14.5,51.5C 14.5,51.1667 14.5,50.8333 14.5,50.5 Z"/></g>
<g><path style="opacity:0.651" fill="#898590" d="M 34.5,51.5 C 35.5,51.5 36.5,51.5 37.5,51.5C 38.1667,51.5 38.8333,51.5 39.5,51.5C 39.5,51.8333 39.5,52.1667 39.5,52.5C 39.5,53.1667 39.1667,53.5 38.5,53.5C 38.5,52.8333 38.1667,52.5 37.5,52.5C 36.209,52.7373 35.209,52.404 34.5,51.5 Z"/></g>
<g><path style="opacity:0.847" fill="#cf304d" d="M 44.5,50.5 C 45.7095,50.9321 46.7095,51.5987 47.5,52.5C 46.5084,52.3284 45.8417,52.6618 45.5,53.5C 45.1667,53.5 44.8333,53.5 44.5,53.5C 44.5,53.1667 44.5,52.8333 44.5,52.5C 44.5,51.8333 44.5,51.1667 44.5,50.5 Z"/></g>
<g><path style="opacity:0.608" fill="#a63926" d="M 50.5,50.5 C 50.8333,50.5 51.1667,50.5 51.5,50.5C 52.1667,50.5 52.8333,50.5 53.5,50.5C 53.5,51.5 53.5,52.5 53.5,53.5C 53.5,53.8333 53.5,54.1667 53.5,54.5C 53.1667,54.5 52.8333,54.5 52.5,54.5C 52.1667,53.5 51.5,52.8333 50.5,52.5C 50.5,51.8333 50.5,51.1667 50.5,50.5 Z"/></g>
<g><path style="opacity:1" fill="#4d6a87" d="M 14.5,51.5 C 15.1098,52.391 15.4431,53.391 15.5,54.5C 15.5654,54.9382 15.3988,55.2716 15,55.5C 12.1485,54.0928 11.9818,52.7595 14.5,51.5 Z"/></g>
<g><path style="opacity:0.502" fill="#c73050" d="M 28.5,51.5 C 28.8333,51.5 29.1667,51.5 29.5,51.5C 29.5,52.5 29.5,53.5 29.5,54.5C 28.8333,54.5 28.5,54.8333 28.5,55.5C 27.6618,55.1583 27.3284,54.4916 27.5,53.5C 28.1667,53.5 28.5,53.1667 28.5,52.5C 28.5,52.1667 28.5,51.8333 28.5,51.5 Z"/></g>
<g><path style="opacity:0.576" fill="#fa9223" d="M 29.5,51.5 C 30.8999,52.0998 31.8999,53.0998 32.5,54.5C 32.8417,55.3382 33.5084,55.6716 34.5,55.5C 34.5,55.8333 34.5,56.1667 34.5,56.5C 33.8333,56.5 33.1667,56.5 32.5,56.5C 31.5,55.8333 30.5,55.1667 29.5,54.5C 29.5,53.5 29.5,52.5 29.5,51.5 Z"/></g>
<g><path style="opacity:1" fill="#fc746c" d="M 33.5,51.5 C 33.8333,51.5 34.1667,51.5 34.5,51.5C 35.209,52.404 36.209,52.7373 37.5,52.5C 37.5,52.8333 37.5,53.1667 37.5,53.5C 35.5168,53.8432 34.1834,53.1765 33.5,51.5 Z"/></g>
<g><path style="opacity:1" fill="#276184" d="M 20.5,52.5 C 20.8333,52.5 21.1667,52.5 21.5,52.5C 22.2022,53.1157 23.2022,53.1157 24.5,52.5C 24.1667,53.5 23.5,54.1667 22.5,54.5C 21.5084,54.6716 20.8417,54.3382 20.5,53.5C 20.5,53.1667 20.5,52.8333 20.5,52.5 Z"/></g>
<g><path style="opacity:0.922" fill="#e13f4e" d="M 33.5,51.5 C 34.1834,53.1765 35.5168,53.8432 37.5,53.5C 37.5,53.8333 37.5,54.1667 37.5,54.5C 36.5084,54.3284 35.8417,54.6618 35.5,55.5C 35.1667,55.5 34.8333,55.5 34.5,55.5C 34.1583,54.6618 33.4916,54.3284 32.5,54.5C 32.2627,53.209 32.596,52.209 33.5,51.5 Z"/></g>
<g><path style="opacity:0.941" fill="#35b5e1" d="M 40.5,51.5 C 41.1667,51.5 41.8333,51.5 42.5,51.5C 42.5,52.1667 42.8333,52.5 43.5,52.5C 43.5,52.8333 43.5,53.1667 43.5,53.5C 43.5,54.1667 43.5,54.8333 43.5,55.5C 43.1667,55.5 42.8333,55.5 42.5,55.5C 41.8333,54.5 41.1667,53.5 40.5,52.5C 40.5,52.1667 40.5,51.8333 40.5,51.5 Z"/></g>
<g><path style="opacity:1" fill="#862549" d="M 47.5,52.5 C 47.7329,54.0618 48.3995,55.3951 49.5,56.5C 48.8333,56.5 48.1667,56.5 47.5,56.5C 47.5,55.8333 47.1667,55.5 46.5,55.5C 46.5,54.8333 46.1667,54.5 45.5,54.5C 45.5,54.1667 45.5,53.8333 45.5,53.5C 45.8417,52.6618 46.5084,52.3284 47.5,52.5 Z"/></g>
<g><path style="opacity:1" fill="#f97b74" d="M 48.5,52.5 C 49.1667,52.5 49.8333,52.5 50.5,52.5C 51.5,52.8333 52.1667,53.5 52.5,54.5C 51.8333,54.5 51.5,54.8333 51.5,55.5C 50.1667,54.8333 49.1667,53.8333 48.5,52.5 Z"/></g>
<g><path style="opacity:1" fill="#265574" d="M 19.5,53.5 C 19.8333,53.5 20.1667,53.5 20.5,53.5C 20.8417,54.3382 21.5084,54.6716 22.5,54.5C 22.5,55.1667 22.1667,55.5 21.5,55.5C 20.2921,56.2341 18.9587,56.5674 17.5,56.5C 17.8333,55.8333 18.1667,55.1667 18.5,54.5C 19.1667,54.5 19.5,54.1667 19.5,53.5 Z"/></g>
<g><path style="opacity:0.992" fill="#61d0e3" d="M 26.5,51.5 C 26.5,52.1667 26.5,52.8333 26.5,53.5C 25.8333,54.5 25.1667,55.5 24.5,56.5C 23.8333,56.8333 23.1667,57.1667 22.5,57.5C 22.1667,57.5 21.8333,57.5 21.5,57.5C 21.5,56.8333 21.5,56.1667 21.5,55.5C 22.1667,55.5 22.5,55.1667 22.5,54.5C 23.5,54.1667 24.1667,53.5 24.5,52.5C 25.1667,52.1667 25.8333,51.8333 26.5,51.5 Z"/></g>
<g><path style="opacity:0.675" fill="#f5675e" d="M 39.5,52.5 C 39.8333,52.5 40.1667,52.5 40.5,52.5C 41.1667,53.5 41.8333,54.5 42.5,55.5C 42.1667,55.5 41.8333,55.5 41.5,55.5C 41.1667,55.5 40.8333,55.5 40.5,55.5C 39.8333,55.5 39.1667,55.5 38.5,55.5C 38.1667,55.5 37.8333,55.5 37.5,55.5C 37.5,55.1667 37.5,54.8333 37.5,54.5C 38.1667,54.5 38.5,54.1667 38.5,53.5C 39.1667,53.5 39.5,53.1667 39.5,52.5 Z"/></g>
<g><path style="opacity:1" fill="#b62c44" d="M 47.5,52.5 C 47.8333,52.5 48.1667,52.5 48.5,52.5C 49.1667,53.8333 50.1667,54.8333 51.5,55.5C 51.5,56.1667 51.5,56.8333 51.5,57.5C 50.8333,57.5 50.1667,57.5 49.5,57.5C 49.5,57.1667 49.5,56.8333 49.5,56.5C 48.3995,55.3951 47.7329,54.0618 47.5,52.5 Z"/></g>
<g><path style="opacity:0.686" fill="#f1aa2f" d="M 54.5,53.5 C 54.8333,53.5 55.1667,53.5 55.5,53.5C 55.8333,53.5 56.1667,53.5 56.5,53.5C 55.8333,57.5 55.1667,57.5 54.5,53.5 Z"/></g>
<g><path style="opacity:0.835" fill="#f43f38" d="M 26.5,53.5 C 26.8333,53.5 27.1667,53.5 27.5,53.5C 27.3284,54.4916 27.6618,55.1583 28.5,55.5C 28.5,56.1667 28.1667,56.5 27.5,56.5C 27.1667,56.5 26.8333,56.5 26.5,56.5C 25.8333,56.5 25.1667,56.5 24.5,56.5C 25.1667,55.5 25.8333,54.5 26.5,53.5 Z"/></g>
<g><path style="opacity:0.29" fill="#d83147" d="M 29.5,54.5 C 30.5,55.1667 31.5,55.8333 32.5,56.5C 33.5,57.1667 34.5,57.8333 35.5,58.5C 34.8333,58.5 34.5,58.8333 34.5,59.5C 34.1667,59.5 33.8333,59.5 33.5,59.5C 33.1583,58.6618 32.4916,58.3284 31.5,58.5C 30.8333,57.5 30.1667,56.5 29.5,55.5C 29.5,55.1667 29.5,54.8333 29.5,54.5 Z"/></g>
<g><path style="opacity:0.976" fill="#41c4ef" d="M 43.5,53.5 C 43.8333,53.5 44.1667,53.5 44.5,53.5C 44.5,54.1667 44.8333,54.5 45.5,54.5C 46.1667,54.5 46.5,54.8333 46.5,55.5C 46.5,55.8333 46.5,56.1667 46.5,56.5C 45.8333,56.5 45.5,56.8333 45.5,57.5C 45.1667,57.5 44.8333,57.5 44.5,57.5C 44.1667,56.8333 43.8333,56.1667 43.5,55.5C 43.5,54.8333 43.5,54.1667 43.5,53.5 Z"/></g>
<g><path style="opacity:0.922" fill="#f67768" d="M 52.5,54.5 C 52.8333,54.5 53.1667,54.5 53.5,54.5C 53.5,55.5 53.5,56.5 53.5,57.5C 52.8333,57.5 52.1667,57.5 51.5,57.5C 51.5,56.8333 51.5,56.1667 51.5,55.5C 51.5,54.8333 51.8333,54.5 52.5,54.5 Z"/></g>
<g><path style="opacity:0.267" fill="#1c334a" d="M 21.5,55.5 C 21.5,56.1667 21.5,56.8333 21.5,57.5C 20.063,59.8433 18.3963,60.01 16.5,58C 17.056,57.6174 17.3893,57.1174 17.5,56.5C 18.9587,56.5674 20.2921,56.2341 21.5,55.5 Z"/></g>
<g><path style="opacity:0.812" fill="#ef4e4d" d="M 24.5,56.5 C 25.1667,56.5 25.8333,56.5 26.5,56.5C 26.5,56.8333 26.5,57.1667 26.5,57.5C 25.2058,58.2899 24.0391,59.2899 23,60.5C 22.5172,59.552 22.3505,58.552 22.5,57.5C 23.1667,57.1667 23.8333,56.8333 24.5,56.5 Z"/></g>
<g><path style="opacity:0.718" fill="#ed891c" d="M 35.5,55.5 C 36.1667,55.5 36.8333,55.5 37.5,55.5C 37.5,55.8333 37.5,56.1667 37.5,56.5C 37.1667,57.1667 36.8333,57.8333 36.5,58.5C 36.1667,58.5 35.8333,58.5 35.5,58.5C 34.5,57.8333 33.5,57.1667 32.5,56.5C 33.1667,56.5 33.8333,56.5 34.5,56.5C 35.1667,56.5 35.5,56.1667 35.5,55.5 Z"/></g>
<g><path style="opacity:0.835" fill="#f0ebb3" d="M 38.5,55.5 C 39.1667,55.5 39.8333,55.5 40.5,55.5C 40.5,55.8333 40.5,56.1667 40.5,56.5C 39.713,58.1042 38.3797,58.7709 36.5,58.5C 36.8333,57.8333 37.1667,57.1667 37.5,56.5C 38.1667,56.5 38.5,56.1667 38.5,55.5 Z"/></g>
<g><path style="opacity:0.753" fill="#40c0ef" d="M 46.5,56.5 C 46.8333,56.5 47.1667,56.5 47.5,56.5C 47.8417,57.3382 48.5084,57.6716 49.5,57.5C 49.5,58.1667 49.5,58.8333 49.5,59.5C 48.391,59.4431 47.391,59.1098 46.5,58.5C 46.1667,58.5 45.8333,58.5 45.5,58.5C 45.5,58.1667 45.5,57.8333 45.5,57.5C 45.5,56.8333 45.8333,56.5 46.5,56.5 Z"/></g>
<g><path style="opacity:1" fill="#43c2e7" d="M 28.5,55.5 C 28.8333,55.5 29.1667,55.5 29.5,55.5C 30.1667,56.5 30.8333,57.5 31.5,58.5C 31.5,58.8333 31.5,59.1667 31.5,59.5C 31.1667,59.5 30.8333,59.5 30.5,59.5C 29.0998,58.8999 28.0998,57.8999 27.5,56.5C 28.1667,56.5 28.5,56.1667 28.5,55.5 Z"/></g>
<g><path style="opacity:0.651" fill="#ef714b" d="M 42.5,55.5 C 42.8333,55.5 43.1667,55.5 43.5,55.5C 43.8333,56.1667 44.1667,56.8333 44.5,57.5C 44.5,58.1667 44.8333,58.5 45.5,58.5C 45.8333,58.5 46.1667,58.5 46.5,58.5C 46.6309,59.3764 46.2975,60.0431 45.5,60.5C 44.4728,59.2086 43.4728,59.2086 42.5,60.5C 42.5,59.5 42.5,58.5 42.5,57.5C 42.5,56.8333 42.5,56.1667 42.5,55.5 Z"/></g>
<g><path style="opacity:1" fill="#1c84cb" d="M 26.5,56.5 C 26.8333,56.5 27.1667,56.5 27.5,56.5C 28.0998,57.8999 29.0998,58.8999 30.5,59.5C 28.2911,60.9758 26.9577,60.3091 26.5,57.5C 26.5,57.1667 26.5,56.8333 26.5,56.5 Z"/></g>
<g><path style="opacity:0.145" fill="#f6a428" d="M 41.5,55.5 C 41.8333,55.5 42.1667,55.5 42.5,55.5C 42.5,56.1667 42.5,56.8333 42.5,57.5C 41.5,58.1667 40.5,58.8333 39.5,59.5C 38.209,59.7373 37.209,59.404 36.5,58.5C 38.3797,58.7709 39.713,58.1042 40.5,56.5C 41.1667,56.5 41.5,56.1667 41.5,55.5 Z"/></g>
<g><path style="opacity:0.886" fill="#2979ac" d="M 49.5,57.5 C 50.1667,57.5 50.8333,57.5 51.5,57.5C 52.1667,57.5 52.8333,57.5 53.5,57.5C 53.1627,60.3357 51.8293,61.0024 49.5,59.5C 49.5,58.8333 49.5,58.1667 49.5,57.5 Z"/></g>
<g><path style="opacity:0.976" fill="#f18e13" d="M 35.5,58.5 C 35.8333,58.5 36.1667,58.5 36.5,58.5C 37.209,59.404 38.209,59.7373 39.5,59.5C 39.1667,60.1667 38.8333,60.8333 38.5,61.5C 37.2976,60.5946 35.9643,60.5946 34.5,61.5C 34.5,61.1667 34.5,60.8333 34.5,60.5C 34.5,60.1667 34.5,59.8333 34.5,59.5C 35.1667,59.5 35.5,59.1667 35.5,58.5 Z"/></g>
<g><path style="opacity:0.094" fill="#d1962e" d="M 31.5,59.5 C 32.1667,59.5 32.8333,59.5 33.5,59.5C 33.5,60.1667 33.8333,60.5 34.5,60.5C 34.5,60.8333 34.5,61.1667 34.5,61.5C 32.8212,61.7148 31.8212,61.0481 31.5,59.5 Z"/></g>
<g><path style="opacity:0.424" fill="#f1594a" d="M 42.5,57.5 C 42.5,58.5 42.5,59.5 42.5,60.5C 41.4324,61.4345 40.099,61.7678 38.5,61.5C 38.8333,60.8333 39.1667,60.1667 39.5,59.5C 40.5,58.8333 41.5,58.1667 42.5,57.5 Z"/></g>
</svg>
