<?xml version="1.0" encoding="UTF-8"?>
<!DOCTYPE svg PUBLIC "-//W3C//DTD SVG 1.1//EN" "http://www.w3.org/Graphics/SVG/1.1/DTD/svg11.dtd">
<svg xmlns="http://www.w3.org/2000/svg" version="1.1" width="200px" height="200px" style="shape-rendering:geometricPrecision; text-rendering:geometricPrecision; image-rendering:optimizeQuality; fill-rule:evenodd; clip-rule:evenodd" xmlns:xlink="http://www.w3.org/1999/xlink">
<g><path style="opacity:0.941" fill="#cdb176" d="M 101.5,23.5 C 101.5,22.5 101.5,21.5 101.5,20.5C 103.757,20.7508 106.257,20.4175 109,19.5C 111.226,19.9784 113.392,20.645 115.5,21.5C 115.291,22.086 114.957,22.586 114.5,23C 110.179,23.499 105.846,23.6657 101.5,23.5 Z"/></g>
<g><path style="opacity:0.402" fill="#dd573b" d="M 101.5,20.5 C 101.5,21.5 101.5,22.5 101.5,23.5C 99.1432,23.6633 96.8098,23.4966 94.5,23C 94.0426,22.586 93.7093,22.086 93.5,21.5C 96.0865,20.52 98.7531,20.1866 101.5,20.5 Z"/></g>
<g><path style="opacity:0.965" fill="#6adbeb" d="M 91.5,26.5 C 89.4176,26.528 87.5843,25.8613 86,24.5C 84.8904,26.0368 83.3904,26.7035 81.5,26.5C 82.0971,22.5249 84.4305,21.0249 88.5,22C 90.1412,23.129 91.1412,24.629 91.5,26.5 Z"/></g>
<g><path style="opacity:1" fill="#f8f6e8" d="M 126.5,23.5 C 126.5,24.8333 126.5,26.1667 126.5,27.5C 123.162,27.9347 120.162,27.2681 117.5,25.5C 119.04,21.9468 121.707,20.7801 125.5,22C 126.056,22.3826 126.389,22.8826 126.5,23.5 Z"/></g>
<g><path style="opacity:0.969" fill="#a4394b" d="M 141.5,31.5 C 140.833,31.5 140.167,31.5 139.5,31.5C 139.5,30.8333 139.167,30.5 138.5,30.5C 138.167,29.1667 137.833,29.1667 137.5,30.5C 136.432,31.4345 135.099,31.7678 133.5,31.5C 132.908,28.8728 132.575,26.2062 132.5,23.5C 137.347,24.09 140.347,26.7566 141.5,31.5 Z"/></g>
<g><path style="opacity:1" fill="#cfdfcf" d="M 126.5,23.5 C 128.348,27.3371 127.182,30.0038 123,31.5C 119.589,30.9232 117.756,28.9232 117.5,25.5C 120.162,27.2681 123.162,27.9347 126.5,27.5C 126.5,26.1667 126.5,24.8333 126.5,23.5 Z"/></g>
<g><path style="opacity:1" fill="#f5f7e8" d="M 114.5,27.5 C 110.999,27.4795 107.333,27.8128 103.5,28.5C 105.631,29.1687 107.631,29.8354 109.5,30.5C 107.5,30.5 105.5,30.5 103.5,30.5C 101.799,30.0338 100.299,30.0338 99,30.5C 98.5357,29.9056 98.369,29.2389 98.5,28.5C 103.653,25.1133 108.986,24.7799 114.5,27.5 Z"/></g>
<g><path style="opacity:0.792" fill="#2a82b8" d="M 91.5,26.5 C 87.9667,32.7728 84.6334,32.7728 81.5,26.5C 83.3904,26.7035 84.8904,26.0368 86,24.5C 87.5843,25.8613 89.4176,26.528 91.5,26.5 Z"/></g>
<g><path style="opacity:1" fill="#f7f6e7" d="M 114.5,27.5 C 116.833,29.1667 118.833,31.1667 120.5,33.5C 121.463,37.796 121.629,42.1294 121,46.5C 119.989,47.3366 118.822,47.67 117.5,47.5C 120.468,39.1046 117.801,33.4379 109.5,30.5C 107.631,29.8354 105.631,29.1687 103.5,28.5C 107.333,27.8128 110.999,27.4795 114.5,27.5 Z"/></g>
<g><path style="opacity:1" fill="#f1efde" d="M 74.5,45.5 C 73.2141,42.883 71.5475,40.5496 69.5,38.5C 68.7101,37.2058 67.7101,36.0391 66.5,35C 61.8452,34.5008 57.1785,34.3342 52.5,34.5C 51.5222,34.189 50.8555,33.5223 50.5,32.5C 56.4724,31.3364 62.4724,31.1697 68.5,32C 72.049,36.2605 75.7157,40.4271 79.5,44.5C 77.9547,45.4519 76.288,45.7852 74.5,45.5 Z"/></g>
<g><path style="opacity:0.306" fill="#667483" d="M 73.5,24.5 C 77.6935,24.3617 80.0268,26.3617 80.5,30.5C 78.5165,30.6168 76.8498,29.9501 75.5,28.5C 72.972,29.5174 72.972,30.6841 75.5,32C 80.1548,32.4992 84.8215,32.6658 89.5,32.5C 89.5,33.5 89.5,34.5 89.5,35.5C 84.1563,35.666 78.8229,35.4994 73.5,35C 69.5803,31.4575 69.5803,27.9575 73.5,24.5 Z"/></g>
<g><path style="opacity:1" fill="#f3bd55" d="M 137.5,30.5 C 137.833,30.5 138.167,30.5 138.5,30.5C 139.167,30.5 139.5,30.8333 139.5,31.5C 140.167,31.5 140.833,31.5 141.5,31.5C 145.5,31.5 149.5,31.5 153.5,31.5C 153.5,32.5 153.5,33.5 153.5,34.5C 148.438,34.2743 143.438,34.6076 138.5,35.5C 135.05,36.2436 133.384,34.9103 133.5,31.5C 135.099,31.7678 136.432,31.4345 137.5,30.5 Z"/></g>
<g><path style="opacity:1" fill="#f0f0ea" d="M 98.5,28.5 C 98.369,29.2389 98.5357,29.9056 99,30.5C 100.299,30.0338 101.799,30.0338 103.5,30.5C 100.195,31.8051 97.8615,34.1384 96.5,37.5C 95.0413,37.5674 93.7079,37.2341 92.5,36.5C 93.3128,33.0105 95.3128,30.3438 98.5,28.5 Z"/></g>
<g><path style="opacity:0.996" fill="#a0e3df" d="M 52.5,34.5 C 57.1785,34.3342 61.8452,34.5008 66.5,35C 67.7101,36.0391 68.7101,37.2058 69.5,38.5C 66.3019,37.9644 63.6353,38.631 61.5,40.5C 60.7611,40.369 60.0944,40.5357 59.5,41C 60.2524,41.6708 60.5858,42.5041 60.5,43.5C 57.6082,40.729 54.9416,37.729 52.5,34.5 Z"/></g>
<g><path style="opacity:1" fill="#f7f0d5" d="M 115.5,41.5 C 113.75,40.2583 112.083,38.7583 110.5,37C 109.333,36.8333 108.167,36.6667 107,36.5C 104.195,36.8209 101.695,37.8209 99.5,39.5C 102.027,33.422 106.361,31.922 112.5,35C 114.451,36.7342 115.451,38.9009 115.5,41.5 Z"/></g>
<g><path style="opacity:1" fill="#d98529" d="M 129.5,28.5 C 130.479,31.6248 130.813,34.9581 130.5,38.5C 126.5,38.8333 126.5,39.1667 130.5,39.5C 130.405,42.2723 129.071,44.2723 126.5,45.5C 125.339,41.2047 125.172,36.8713 126,32.5C 127.376,31.2949 128.542,29.9616 129.5,28.5 Z"/></g>
<g><path style="opacity:1" fill="#f3c6b6" d="M 82.5,37.5 C 84.8333,37.5 87.1667,37.5 89.5,37.5C 89.5,38.5 89.5,39.5 89.5,40.5C 87.5454,41.3235 85.5454,41.4901 83.5,41C 82.6634,39.9887 82.33,38.8221 82.5,37.5 Z"/></g>
<g><path style="opacity:1" fill="#ee643f" d="M 153.5,34.5 C 153.5,36.8333 153.5,39.1667 153.5,41.5C 146.5,41.5 139.5,41.5 132.5,41.5C 133.861,38.8055 135.861,36.8055 138.5,35.5C 143.438,34.6076 148.438,34.2743 153.5,34.5 Z"/></g>
<g><path style="opacity:0.882" fill="#439ec1" d="M 41.5,39.5 C 45.1612,39.3501 46.1612,40.8501 44.5,44C 40.7071,44.4866 39.7071,42.9866 41.5,39.5 Z"/></g>
<g><path style="opacity:0.996" fill="#3990b6" d="M 69.5,38.5 C 71.5475,40.5496 73.2141,42.883 74.5,45.5C 73.1667,45.5 71.8333,45.5 70.5,45.5C 70.4894,43.9826 69.8228,42.8159 68.5,42C 66.0796,41.7096 63.7463,41.2096 61.5,40.5C 63.6353,38.631 66.3019,37.9644 69.5,38.5 Z"/></g>
<g><path style="opacity:1" fill="#c9d7c7" d="M 92.5,36.5 C 93.7079,37.2341 95.0413,37.5674 96.5,37.5C 95.0788,41.6414 95.4121,45.6414 97.5,49.5C 96.4324,50.4345 95.099,50.7678 93.5,50.5C 90.464,45.8474 90.1307,41.1808 92.5,36.5 Z"/></g>
<g><path style="opacity:0.855" fill="#4eafb3" d="M 46.5,34.5 C 50.7504,37.0786 54.417,40.4119 57.5,44.5C 56.277,45.6139 54.9437,45.7805 53.5,45C 49.652,42.3526 47.3186,38.8526 46.5,34.5 Z"/></g>
<g><path style="opacity:0.966" fill="#c6d4c5" d="M 120.5,33.5 C 124.5,39.1667 124.5,44.8333 120.5,50.5C 118.833,50.5 117.167,50.5 115.5,50.5C 116.167,49.5 116.833,48.5 117.5,47.5C 118.822,47.67 119.989,47.3366 121,46.5C 121.629,42.1294 121.463,37.796 120.5,33.5 Z"/></g>
<g><path style="opacity:1" fill="#d65d5d" d="M 158.5,36.5 C 162.533,36.6914 164.033,38.6914 163,42.5C 159.736,45.3036 157.236,44.6369 155.5,40.5C 156.524,39.1482 157.524,37.8149 158.5,36.5 Z"/></g>
<g><path style="opacity:1" fill="#d5474c" d="M 82.5,37.5 C 82.33,38.8221 82.6634,39.9887 83.5,41C 85.5454,41.4901 87.5454,41.3235 89.5,40.5C 89.5,42.1667 89.5,43.8333 89.5,45.5C 83.0601,46.6029 79.3934,43.9362 78.5,37.5C 79.8333,37.5 81.1667,37.5 82.5,37.5 Z"/></g>
<g><path style="opacity:1" fill="#cd3e4f" d="M 132.5,41.5 C 139.5,41.5 146.5,41.5 153.5,41.5C 153.5,42.8333 153.5,44.1667 153.5,45.5C 145.804,45.8308 138.138,45.4975 130.5,44.5C 130.942,43.2613 131.609,42.2613 132.5,41.5 Z"/></g>
<g><path style="opacity:1" fill="#bce0c9" d="M 61.5,40.5 C 63.7463,41.2096 66.0796,41.7096 68.5,42C 69.8228,42.8159 70.4894,43.9826 70.5,45.5C 67.4816,45.6646 64.4816,45.498 61.5,45C 60.944,44.6174 60.6107,44.1174 60.5,43.5C 60.5858,42.5041 60.2524,41.6708 59.5,41C 60.0944,40.5357 60.7611,40.369 61.5,40.5 Z"/></g>
<g><path style="opacity:1" fill="#f68910" d="M 102.5,42.5 C 102.833,42.5 103.167,42.5 103.5,42.5C 103.427,44.0269 104.094,45.0269 105.5,45.5C 105.441,47.7645 106.274,48.0978 108,46.5C 108.349,47.4725 109.182,48.3058 110.5,49C 108.19,49.4966 105.857,49.6633 103.5,49.5C 102.508,49.6716 101.842,49.3382 101.5,48.5C 101.179,47.1825 100.846,45.8492 100.5,44.5C 100.747,43.2867 101.414,42.62 102.5,42.5 Z"/></g>
<g><path style="opacity:1" fill="#ea9130" d="M 115.5,41.5 C 115.41,47.0944 112.577,50.4277 107,51.5C 105.698,50.9152 104.531,50.2485 103.5,49.5C 105.857,49.6633 108.19,49.4966 110.5,49C 109.182,48.3058 108.349,47.4725 108,46.5C 106.274,48.0978 105.441,47.7645 105.5,45.5C 108.313,45.9754 110.313,44.9754 111.5,42.5C 111.582,39.4151 110.082,37.7485 107,37.5C 103.918,37.7485 102.418,39.4151 102.5,42.5C 101.414,42.62 100.747,43.2867 100.5,44.5C 100.846,45.8492 101.179,47.1825 101.5,48.5C 98.5762,45.9436 97.9095,42.9436 99.5,39.5C 101.695,37.8209 104.195,36.8209 107,36.5C 108.167,36.6667 109.333,36.8333 110.5,37C 112.083,38.7583 113.75,40.2583 115.5,41.5 Z M 103.5,42.5 C 106.167,42.5 108.833,42.5 111.5,42.5C 110.313,44.9754 108.313,45.9754 105.5,45.5C 104.094,45.0269 103.427,44.0269 103.5,42.5 Z"/></g>
<g><path style="opacity:1" fill="#59c0df" d="M 111.5,42.5 C 108.833,42.5 106.167,42.5 103.5,42.5C 103.167,42.5 102.833,42.5 102.5,42.5C 102.418,39.4151 103.918,37.7485 107,37.5C 110.082,37.7485 111.582,39.4151 111.5,42.5 Z"/></g>
<g><path style="opacity:1" fill="#f4f1e3" d="M 56.5,48.5 C 56.5,48.1667 56.5,47.8333 56.5,47.5C 60.2693,47.244 63.9359,47.5773 67.5,48.5C 67.5,48.8333 67.5,49.1667 67.5,49.5C 67.5,50.1667 67.8333,50.5 68.5,50.5C 68.5,51.1667 68.8333,51.5 69.5,51.5C 69.5,52.1667 69.8333,52.5 70.5,52.5C 70.5,52.8333 70.5,53.1667 70.5,53.5C 68.0885,53.8633 66.5885,52.8633 66,50.5C 65.3028,52.5844 64.1361,54.2511 62.5,55.5C 60.5,53.1667 58.5,50.8333 56.5,48.5 Z"/></g>
<g><path style="opacity:0.459" fill="#4397c1" d="M 155.5,47.5 C 160.458,48.3961 164.624,50.7294 168,54.5C 168.667,55.5 168.667,56.5 168,57.5C 164.088,55.7806 160.255,53.7806 156.5,51.5C 155.571,50.3112 155.238,48.9778 155.5,47.5 Z"/></g>
<g><path style="opacity:1" fill="#ced9d8" d="M 166.5,47.5 C 169.5,47.1667 170.833,48.5 170.5,51.5C 166.56,52.234 165.227,50.9007 166.5,47.5 Z"/></g>
<g><path style="opacity:1" fill="#285f84" d="M 67.5,48.5 C 70.2869,47.5233 73.2869,47.19 76.5,47.5C 77.2485,49.3325 78.2485,50.9991 79.5,52.5C 79.5,53.8333 79.5,55.1667 79.5,56.5C 77.1644,54.9962 75.331,52.9962 74,50.5C 73.2904,51.9733 72.1238,52.6399 70.5,52.5C 69.8333,52.5 69.5,52.1667 69.5,51.5C 68.8333,51.5 68.5,51.1667 68.5,50.5C 67.8333,50.5 67.5,50.1667 67.5,49.5C 68.8333,49.1667 68.8333,48.8333 67.5,48.5 Z"/></g>
<g><path style="opacity:1" fill="#98bfa9" d="M 76.5,47.5 C 79.5184,47.3354 82.5184,47.502 85.5,48C 86.3805,48.7083 87.0472,49.5416 87.5,50.5C 83.5,49.8333 81.8333,51.5 82.5,55.5C 81.7281,54.3065 80.7281,53.3065 79.5,52.5C 78.2485,50.9991 77.2485,49.3325 76.5,47.5 Z"/></g>
<g><path style="opacity:1" fill="#cbd3ac" d="M 131.5,47.5 C 134.833,47.5 138.167,47.5 141.5,47.5C 140.5,48.8333 139.5,50.1667 138.5,51.5C 136.167,53.5 133.833,55.5 131.5,57.5C 131.5,54.1667 131.5,50.8333 131.5,47.5 Z"/></g>
<g><path style="opacity:1" fill="#f8e9b9" d="M 141.5,47.5 C 143.167,47.5 144.833,47.5 146.5,47.5C 142.5,51.8333 138.5,56.1667 134.5,60.5C 134.167,60.5 133.833,60.5 133.5,60.5C 134.373,58.1137 135.873,56.1137 138,54.5C 138.483,53.552 138.649,52.552 138.5,51.5C 139.5,50.1667 140.5,48.8333 141.5,47.5 Z"/></g>
<g><path style="opacity:1" fill="#f6645d" d="M 146.5,47.5 C 148.833,47.5 151.167,47.5 153.5,47.5C 152.579,53.1172 149.579,57.4505 144.5,60.5C 144.157,58.7748 143.157,58.2748 141.5,59C 139.304,60.6993 137.304,62.5327 135.5,64.5C 135.167,63.1667 134.833,61.8333 134.5,60.5C 138.5,56.1667 142.5,51.8333 146.5,47.5 Z"/></g>
<g><path style="opacity:1" fill="#eba63d" d="M 40.5,47.5 C 45.7945,46.9633 48.2945,49.2967 48,54.5C 45.1273,59.4077 41.794,59.741 38,55.5C 36.8366,52.0289 37.6699,49.3623 40.5,47.5 Z"/></g>
<g><path style="opacity:1" fill="#d03b52" d="M 56.5,47.5 C 56.5,47.8333 56.5,48.1667 56.5,48.5C 52.8669,48.443 52.7002,49.443 56,51.5C 57.371,54.4861 57.871,57.4861 57.5,60.5C 55.8437,58.5398 54.177,56.5398 52.5,54.5C 52.5,53.8333 52.1667,53.5 51.5,53.5C 50.6586,51.6208 50.3253,49.6208 50.5,47.5C 52.5,47.5 54.5,47.5 56.5,47.5 Z"/></g>
<g><path style="opacity:1" fill="#f9ecc5" d="M 129.5,47.5 C 129.665,50.8499 129.498,54.1832 129,57.5C 127.961,58.7101 126.794,59.7101 125.5,60.5C 125.5,56.1667 125.5,51.8333 125.5,47.5C 126.833,47.5 128.167,47.5 129.5,47.5 Z"/></g>
<g><path style="opacity:0.996" fill="#ca895d" d="M 129.5,47.5 C 130.167,47.5 130.833,47.5 131.5,47.5C 131.5,50.8333 131.5,54.1667 131.5,57.5C 130.856,60.8044 128.856,62.1378 125.5,61.5C 125.5,61.1667 125.5,60.8333 125.5,60.5C 126.794,59.7101 127.961,58.7101 129,57.5C 129.498,54.1832 129.665,50.8499 129.5,47.5 Z"/></g>
<g><path style="opacity:1" fill="#f9f5e5" d="M 70.5,53.5 C 72.137,55.4752 73.8036,57.4752 75.5,59.5C 74.1667,60.1667 73.1667,61.1667 72.5,62.5C 71.5,63.1667 70.5,63.8333 69.5,64.5C 67.7267,61.9401 65.7267,59.6068 63.5,57.5C 63.1667,56.8333 62.8333,56.1667 62.5,55.5C 64.1361,54.2511 65.3028,52.5844 66,50.5C 66.5885,52.8633 68.0885,53.8633 70.5,53.5 Z"/></g>
<g><path style="opacity:1" fill="#969ca3" d="M 97.5,49.5 C 101.073,53.0022 105.406,54.3356 110.5,53.5C 110.5,54.5 110.5,55.5 110.5,56.5C 111.5,56.5 112.5,56.5 113.5,56.5C 105.48,59.6091 98.8132,57.6091 93.5,50.5C 95.099,50.7678 96.4324,50.4345 97.5,49.5 Z"/></g>
<g><path style="opacity:1" fill="#f4f6e3" d="M 87.5,50.5 C 88.1667,51.5 88.8333,52.5 89.5,53.5C 88.0237,58.7538 85.6904,59.4204 82.5,55.5C 81.8333,51.5 83.5,49.8333 87.5,50.5 Z"/></g>
<g><path style="opacity:1" fill="#9aaea8" d="M 115.5,50.5 C 117.167,50.5 118.833,50.5 120.5,50.5C 119.422,53.9078 117.089,55.9078 113.5,56.5C 112.5,56.5 111.5,56.5 110.5,56.5C 110.5,55.5 110.5,54.5 110.5,53.5C 112.368,52.7368 114.035,51.7368 115.5,50.5 Z"/></g>
<g><path style="opacity:1" fill="#81a58c" d="M 79.5,52.5 C 80.7281,53.3065 81.7281,54.3065 82.5,55.5C 85.6904,59.4204 88.0237,58.7538 89.5,53.5C 91.5475,55.5496 93.2141,57.883 94.5,60.5C 91.8333,60.5 89.1667,60.5 86.5,60.5C 84.901,60.2322 83.5676,60.5655 82.5,61.5C 81.0937,61.9731 80.427,62.9731 80.5,64.5C 80.1667,64.5 79.8333,64.5 79.5,64.5C 79.5,61.8333 79.5,59.1667 79.5,56.5C 79.5,55.1667 79.5,53.8333 79.5,52.5 Z"/></g>
<g><path style="opacity:1" fill="#e33c4f" d="M 56.5,48.5 C 58.5,50.8333 60.5,53.1667 62.5,55.5C 62.8333,56.1667 63.1667,56.8333 63.5,57.5C 62.9033,57.7352 62.5699,58.2352 62.5,59C 62.9783,60.3026 63.645,61.4693 64.5,62.5C 63.5416,62.9528 62.7083,63.6195 62,64.5C 61.3292,63.7476 60.4959,63.4142 59.5,63.5C 58.8333,62.5 58.1667,61.5 57.5,60.5C 57.871,57.4861 57.371,54.4861 56,51.5C 52.7002,49.443 52.8669,48.443 56.5,48.5 Z"/></g>
<g><path style="opacity:0.573" fill="#c73b44" d="M 99.5,59.5 C 102.203,59.9519 104.87,60.6185 107.5,61.5C 106.498,63.5101 105.498,65.5101 104.5,67.5C 101.98,65.3243 100.313,62.6577 99.5,59.5 Z"/></g>
<g><path style="opacity:1" fill="#1c3e59" d="M 51.5,53.5 C 52.1667,53.5 52.5,53.8333 52.5,54.5C 51.9569,54.56 51.6236,54.8933 51.5,55.5C 52.7629,57.0287 53.7629,58.6954 54.5,60.5C 54.5674,61.9587 54.2341,63.2921 53.5,64.5C 52.2227,65.6936 51.5561,67.3603 51.5,69.5C 51.5561,71.6397 52.2227,73.3064 53.5,74.5C 54.9895,76.9483 54.3229,78.6149 51.5,79.5C 51.0662,74.3322 50.3996,69.3322 49.5,64.5C 44.8333,64.5 40.1667,64.5 35.5,64.5C 40.3054,63.5128 45.3054,63.1795 50.5,63.5C 50.7076,61.0799 50.3742,58.7466 49.5,56.5C 49.9424,55.2613 50.6091,54.2613 51.5,53.5 Z"/></g>
<g><path style="opacity:1" fill="#faf7e5" d="M 86.5,60.5 C 89.1667,60.5 91.8333,60.5 94.5,60.5C 96.5869,61.5846 97.9202,63.2512 98.5,65.5C 97.375,66.3478 97.375,67.3478 98.5,68.5C 97.4625,69.9303 96.7959,71.597 96.5,73.5C 95.8333,73.5 95.5,73.1667 95.5,72.5C 92.5,68.5 89.5,64.5 86.5,60.5 Z"/></g>
<g><path style="opacity:0.999" fill="#667384" d="M 122.5,69.5 C 120.784,69.3713 119.117,69.038 117.5,68.5C 117.5,66.5 117.5,64.5 117.5,62.5C 117.338,60.4727 117.505,58.4727 118,56.5C 119.299,56.0338 120.799,56.0338 122.5,56.5C 122.5,60.8333 122.5,65.1667 122.5,69.5 Z"/></g>
<g><path style="opacity:1" fill="#dd6763" d="M 144.5,60.5 C 140.172,65.8274 135.506,70.8274 130.5,75.5C 130.5,74.1667 130.5,72.8333 130.5,71.5C 131.5,71.5 132.5,71.5 133.5,71.5C 133.36,69.8762 134.027,68.7096 135.5,68C 134.944,67.6174 134.611,67.1174 134.5,66.5C 134.833,65.8333 135.167,65.1667 135.5,64.5C 137.304,62.5327 139.304,60.6993 141.5,59C 143.157,58.2748 144.157,58.7748 144.5,60.5 Z"/></g>
<g><path style="opacity:1" fill="#e1472f" d="M 155.5,60.5 C 160.287,59.9699 164.62,61.1366 168.5,64C 169.252,64.6708 169.586,65.5041 169.5,66.5C 169.12,67.1331 168.787,67.7997 168.5,68.5C 164.8,65.1597 160.467,63.8264 155.5,64.5C 155.5,63.1667 155.5,61.8333 155.5,60.5 Z"/></g>
<g><path style="opacity:0.996" fill="#f7c660" d="M 176.5,70.5 C 174.486,70.6085 172.82,69.9418 171.5,68.5C 171.167,67.5 170.5,66.8333 169.5,66.5C 169.586,65.5041 169.252,64.6708 168.5,64C 164.62,61.1366 160.287,59.9699 155.5,60.5C 155.5,59.5 155.5,58.5 155.5,57.5C 165.884,56.5188 172.884,60.8521 176.5,70.5 Z"/></g>
<g><path style="opacity:1" fill="#fc7b70" d="M 72.5,62.5 C 73.4584,62.9528 74.2917,63.6195 75,64.5C 75.3173,62.6992 75.984,62.3659 77,63.5C 77.3153,65.5856 77.8153,67.5856 78.5,69.5C 77.5,70.1667 76.5,70.8333 75.5,71.5C 73.5,69.1667 71.5,66.8333 69.5,64.5C 70.5,63.8333 71.5,63.1667 72.5,62.5 Z"/></g>
<g><path style="opacity:1" fill="#f8e8b8" d="M 138.5,51.5 C 138.649,52.552 138.483,53.552 138,54.5C 135.873,56.1137 134.373,58.1137 133.5,60.5C 130.805,63.5256 128.138,66.5256 125.5,69.5C 125.5,66.8333 125.5,64.1667 125.5,61.5C 128.856,62.1378 130.856,60.8044 131.5,57.5C 133.833,55.5 136.167,53.5 138.5,51.5 Z"/></g>
<g><path style="opacity:1" fill="#69d9ef" d="M 153.5,66.5 C 152.206,67.2899 151.039,68.2899 150,69.5C 149.501,65.8484 149.335,62.1817 149.5,58.5C 150.145,57.1882 151.145,56.1882 152.5,55.5C 153.489,59.1073 153.823,62.774 153.5,66.5 Z"/></g>
<g><path style="opacity:1" fill="#cc374f" d="M 64.5,62.5 C 65.4884,63.795 66.4884,65.1283 67.5,66.5C 67.0461,68.2589 67.0461,70.2589 67.5,72.5C 67.1667,72.5 66.8333,72.5 66.5,72.5C 66.5,71.8333 66.1667,71.5 65.5,71.5C 63.8847,68.5505 61.8847,65.8838 59.5,63.5C 60.4959,63.4142 61.3292,63.7476 62,64.5C 62.7083,63.6195 63.5416,62.9528 64.5,62.5 Z"/></g>
<g><path style="opacity:1" fill="#f9872a" d="M 133.5,60.5 C 133.833,60.5 134.167,60.5 134.5,60.5C 134.833,61.8333 135.167,63.1667 135.5,64.5C 135.167,65.1667 134.833,65.8333 134.5,66.5C 131.767,69.2394 128.767,71.5727 125.5,73.5C 125.5,72.1667 125.5,70.8333 125.5,69.5C 128.138,66.5256 130.805,63.5256 133.5,60.5 Z"/></g>
<g><path style="opacity:1" fill="#909ea0" d="M 35.5,64.5 C 40.1667,64.5 44.8333,64.5 49.5,64.5C 49.5,65.5 49.5,66.5 49.5,67.5C 44.1667,67.5 38.8333,67.5 33.5,67.5C 33.2852,65.8212 33.9519,64.8212 35.5,64.5 Z"/></g>
<g><path style="opacity:1" fill="#f6901a" d="M 82.5,61.5 C 84.7267,63.6068 86.7267,65.9401 88.5,68.5C 87.7784,68.9175 87.2784,69.5842 87,70.5C 86.3292,69.7476 85.4959,69.4142 84.5,69.5C 84.1667,69.5 83.8333,69.5 83.5,69.5C 83.5,68.8333 83.1667,68.5 82.5,68.5C 82.573,66.9731 81.9063,65.9731 80.5,65.5C 80.5,65.1667 80.5,64.8333 80.5,64.5C 80.427,62.9731 81.0937,61.9731 82.5,61.5 Z"/></g>
<g><path style="opacity:1" fill="#f9c642" d="M 82.5,61.5 C 83.5676,60.5655 84.901,60.2322 86.5,60.5C 89.5,64.5 92.5,68.5 95.5,72.5C 94.8333,72.8333 94.1667,73.1667 93.5,73.5C 91.6053,72.027 89.9387,70.3603 88.5,68.5C 86.7267,65.9401 84.7267,63.6068 82.5,61.5 Z"/></g>
<g><path style="opacity:0.992" fill="#224c68" d="M 149.5,58.5 C 149.335,62.1817 149.501,65.8484 150,69.5C 151.039,68.2899 152.206,67.2899 153.5,66.5C 153.5,71.1667 153.5,75.8333 153.5,80.5C 152.609,79.8902 151.609,79.5569 150.5,79.5C 151.141,78.5178 151.807,77.5178 152.5,76.5C 150.459,75.293 149.126,73.6263 148.5,71.5C 148.5,71.1667 148.5,70.8333 148.5,70.5C 148.5,68.8333 148.5,67.1667 148.5,65.5C 148.784,63.5853 148.451,61.9187 147.5,60.5C 147.833,59.5 148.5,58.8333 149.5,58.5 Z"/></g>
<g><path style="opacity:1" fill="#123657" d="M 33.5,67.5 C 38.8333,67.5 44.1667,67.5 49.5,67.5C 47.4294,68.8086 44.9294,69.4752 42,69.5C 39.5,69.3333 37,69.1667 34.5,69C 33.944,68.6174 33.6107,68.1174 33.5,67.5 Z"/></g>
<g><path style="opacity:1" fill="#ee7a73" d="M 75.5,59.5 C 76.8637,61.1911 78.197,62.8577 79.5,64.5C 79.5,65.1667 79.8333,65.5 80.5,65.5C 80.427,67.0269 81.0937,68.0269 82.5,68.5C 83.1667,68.5 83.5,68.8333 83.5,69.5C 83.5,70.1667 83.8333,70.5 84.5,70.5C 84.5,71.1667 84.5,71.8333 84.5,72.5C 82.7837,70.9752 80.7837,69.9752 78.5,69.5C 77.8153,67.5856 77.3153,65.5856 77,63.5C 75.984,62.3659 75.3173,62.6992 75,64.5C 74.2917,63.6195 73.4584,62.9528 72.5,62.5C 73.1667,61.1667 74.1667,60.1667 75.5,59.5 Z"/></g>
<g><path style="opacity:1" fill="#eb5f53" d="M 134.5,66.5 C 134.611,67.1174 134.944,67.6174 135.5,68C 134.027,68.7096 133.36,69.8762 133.5,71.5C 132.5,71.5 131.5,71.5 130.5,71.5C 130.5,72.8333 130.5,74.1667 130.5,75.5C 126.72,81.2908 125.053,80.6242 125.5,73.5C 128.767,71.5727 131.767,69.2394 134.5,66.5 Z"/></g>
<g><path style="opacity:1" fill="#59c5e5" d="M 53.5,64.5 C 56.0594,67.7603 56.0594,71.0937 53.5,74.5C 52.2227,73.3064 51.5561,71.6397 51.5,69.5C 51.5561,67.3603 52.2227,65.6936 53.5,64.5 Z"/></g>
<g><path style="opacity:1" fill="#b0f1d7" d="M 147.5,60.5 C 148.451,61.9187 148.784,63.5853 148.5,65.5C 144.833,68.5 141.5,71.8333 138.5,75.5C 137.5,76.1667 136.5,76.8333 135.5,77.5C 134.167,77.5 132.833,77.5 131.5,77.5C 136.861,71.8071 142.195,66.1404 147.5,60.5 Z"/></g>
<g><path style="opacity:0.975" fill="#eff2e4" d="M 166.5,73.5 C 165.167,73.8333 163.833,74.1667 162.5,74.5C 162.423,73.2502 161.756,72.4169 160.5,72C 158.866,71.5065 157.199,71.3398 155.5,71.5C 155.5,70.5 155.5,69.5 155.5,68.5C 158.187,68.3359 160.854,68.5026 163.5,69C 165.141,70.129 166.141,71.629 166.5,73.5 Z"/></g>
<g><path style="opacity:0.998" fill="#276890" d="M 54.5,60.5 C 57.6363,63.429 60.303,66.7623 62.5,70.5C 62.5,71.8333 62.5,73.1667 62.5,74.5C 62.3404,76.153 61.6737,77.4863 60.5,78.5C 59.9517,75.9162 58.285,74.9162 55.5,75.5C 55.1667,78.5 56.5,79.8333 59.5,79.5C 58.7377,81.2624 57.4044,82.2624 55.5,82.5C 53.8828,83.038 52.2161,83.3713 50.5,83.5C 50.5,82.1667 50.5,80.8333 50.5,79.5C 50.8333,79.5 51.1667,79.5 51.5,79.5C 54.3229,78.6149 54.9895,76.9483 53.5,74.5C 56.0594,71.0937 56.0594,67.7603 53.5,64.5C 54.2341,63.2921 54.5674,61.9587 54.5,60.5 Z"/></g>
<g><path style="opacity:1" fill="#fa5448" d="M 63.5,57.5 C 65.7267,59.6068 67.7267,61.9401 69.5,64.5C 71.5,66.8333 73.5,69.1667 75.5,71.5C 75.5,71.8333 75.5,72.1667 75.5,72.5C 74.8333,72.8333 74.1667,73.1667 73.5,73.5C 71.4707,71.1415 69.4707,68.8082 67.5,66.5C 66.4884,65.1283 65.4884,63.795 64.5,62.5C 63.645,61.4693 62.9783,60.3026 62.5,59C 62.5699,58.2352 62.9033,57.7352 63.5,57.5 Z"/></g>
<g><path style="opacity:1" fill="#f9776d" d="M 78.5,69.5 C 80.7837,69.9752 82.7837,70.9752 84.5,72.5C 85.1667,72.8333 85.8333,73.1667 86.5,73.5C 86.5,74.1667 86.8333,74.5 87.5,74.5C 87.5,75.1667 87.8333,75.5 88.5,75.5C 88.5,75.8333 88.5,76.1667 88.5,76.5C 87.1798,78.4632 85.8465,80.4632 84.5,82.5C 83.3634,81.2112 82.0301,80.2112 80.5,79.5C 79.5667,76.6298 77.9,74.2964 75.5,72.5C 75.5,72.1667 75.5,71.8333 75.5,71.5C 76.5,70.8333 77.5,70.1667 78.5,69.5 Z"/></g>
<g><path style="opacity:0.976" fill="#eeeee3" d="M 98.5,65.5 C 102.922,69.5873 106.589,74.2539 109.5,79.5C 107.887,79.0557 106.72,78.0557 106,76.5C 105.667,76.8333 105.333,77.1667 105,77.5C 103.386,74.0603 101.22,71.0603 98.5,68.5C 97.375,67.3478 97.375,66.3478 98.5,65.5 Z"/></g>
<g><path style="opacity:1" fill="#b5bcbe" d="M 117.5,62.5 C 117.5,64.5 117.5,66.5 117.5,68.5C 117.5,70.1667 117.5,71.8333 117.5,73.5C 112.537,74.6816 109.537,72.8483 108.5,68C 109.537,63.1517 112.537,61.3184 117.5,62.5 Z M 113.5,66.5 C 114.573,67.2506 114.74,68.2506 114,69.5C 112.272,68.6477 112.105,67.6477 113.5,66.5 Z"/></g>
<g><path style="opacity:0.996" fill="#f28f19" d="M 88.5,68.5 C 89.9387,70.3603 91.6053,72.027 93.5,73.5C 94.075,75.4113 95.075,77.078 96.5,78.5C 95.1667,78.8333 93.8333,79.1667 92.5,79.5C 92.1667,79.5 91.8333,79.5 91.5,79.5C 91.5,78.8333 91.1667,78.5 90.5,78.5C 90.573,76.9731 89.9063,75.9731 88.5,75.5C 87.8333,75.5 87.5,75.1667 87.5,74.5C 86.8333,74.5 86.5,74.1667 86.5,73.5C 86.573,71.9731 85.9063,70.9731 84.5,70.5C 84.5,70.1667 84.5,69.8333 84.5,69.5C 85.4959,69.4142 86.3292,69.7476 87,70.5C 87.2784,69.5842 87.7784,68.9175 88.5,68.5 Z"/></g>
<g><path style="opacity:1" fill="#d1344e" d="M 67.5,66.5 C 69.4707,68.8082 71.4707,71.1415 73.5,73.5C 73.5,75.5 72.5,76.5 70.5,76.5C 70.1667,76.5 69.8333,76.5 69.5,76.5C 68.8333,75.1667 68.1667,73.8333 67.5,72.5C 67.0461,70.2589 67.0461,68.2589 67.5,66.5 Z"/></g>
<g><path style="opacity:0.999" fill="#fbf8e6" d="M 98.5,68.5 C 101.22,71.0603 103.386,74.0603 105,77.5C 105.333,77.1667 105.667,76.8333 106,76.5C 106.72,78.0557 107.887,79.0557 109.5,79.5C 111.543,80.5794 112.876,82.246 113.5,84.5C 113.421,85.9305 113.754,87.2638 114.5,88.5C 112.731,89.6265 111.397,89.1265 110.5,87C 113.167,85.6667 113.167,84.3333 110.5,83C 108.19,82.5034 105.857,82.3367 103.5,82.5C 100.925,79.681 98.5917,76.681 96.5,73.5C 96.7959,71.597 97.4625,69.9303 98.5,68.5 Z"/></g>
<g><path style="opacity:1" fill="#f5d589" d="M 43.5,71.5 C 42.2485,73.0009 41.2485,74.6675 40.5,76.5C 37.5,76.5 34.5,76.5 31.5,76.5C 29.744,75.4479 29.0773,73.7812 29.5,71.5C 34.0005,71.2 38.6672,71.2 43.5,71.5 Z"/></g>
<g><path style="opacity:1" fill="#3aaddb" d="M 148.5,65.5 C 148.5,67.1667 148.5,68.8333 148.5,70.5C 145.833,72.8333 143.167,75.1667 140.5,77.5C 139.167,77.5 138.5,76.8333 138.5,75.5C 141.5,71.8333 144.833,68.5 148.5,65.5 Z"/></g>
<g><path style="opacity:1" fill="#e98a12" d="M 43.5,71.5 C 45.1667,71.5 46.8333,71.5 48.5,71.5C 48.5,73.1667 48.5,74.8333 48.5,76.5C 45.8333,76.5 43.1667,76.5 40.5,76.5C 41.2485,74.6675 42.2485,73.0009 43.5,71.5 Z"/></g>
<g><path style="opacity:1" fill="#3d91be" d="M 155.5,71.5 C 157.199,71.3398 158.866,71.5065 160.5,72C 161.756,72.4169 162.423,73.2502 162.5,74.5C 160.915,75.4737 159.915,76.9737 159.5,79C 158.099,79.4101 156.766,79.9101 155.5,80.5C 155.5,77.5 155.5,74.5 155.5,71.5 Z"/></g>
<g><path style="opacity:1" fill="#14344d" d="M 62.5,70.5 C 63.391,71.1098 64.391,71.4431 65.5,71.5C 66.1667,71.5 66.5,71.8333 66.5,72.5C 66.6596,74.153 67.3263,75.4863 68.5,76.5C 67.8902,77.391 67.5569,78.391 67.5,79.5C 67.5,80.1667 67.5,80.8333 67.5,81.5C 66.1667,80.8333 64.8333,80.1667 63.5,79.5C 63.7845,77.5853 63.4511,75.9187 62.5,74.5C 62.5,73.1667 62.5,71.8333 62.5,70.5 Z"/></g>
<g><path style="opacity:0.775" fill="#132337" d="M 117.5,68.5 C 119.117,69.038 120.784,69.3713 122.5,69.5C 121.851,73.1924 121.518,76.8591 121.5,80.5C 120.833,80.5 120.5,80.1667 120.5,79.5C 120.5,78.8333 120.167,78.5 119.5,78.5C 118.559,76.9505 117.893,75.2838 117.5,73.5C 117.5,71.8333 117.5,70.1667 117.5,68.5 Z"/></g>
<g><path style="opacity:1" fill="#3180b0" d="M 166.5,73.5 C 167.598,74.6009 167.765,75.9343 167,77.5C 164.802,82.8302 160.969,86.1636 155.5,87.5C 155.5,85.1667 155.5,82.8333 155.5,80.5C 156.766,79.9101 158.099,79.4101 159.5,79C 159.915,76.9737 160.915,75.4737 162.5,74.5C 163.833,74.1667 165.167,73.8333 166.5,73.5 Z"/></g>
<g><path style="opacity:0.102" fill="#563a2b" d="M 48.5,71.5 C 49.4614,73.2646 49.7947,75.2646 49.5,77.5C 43.31,77.8229 37.31,77.4896 31.5,76.5C 34.5,76.5 37.5,76.5 40.5,76.5C 43.1667,76.5 45.8333,76.5 48.5,76.5C 48.5,74.8333 48.5,73.1667 48.5,71.5 Z"/></g>
<g><path style="opacity:1" fill="#d7e6e3" d="M 60.5,78.5 C 60.5,79.1667 60.1667,79.5 59.5,79.5C 56.5,79.8333 55.1667,78.5 55.5,75.5C 58.285,74.9162 59.9517,75.9162 60.5,78.5 Z"/></g>
<g><path style="opacity:0.999" fill="#de4534" d="M 171.5,68.5 C 172.82,69.9418 174.486,70.6085 176.5,70.5C 177.816,76.2363 176.483,81.2363 172.5,85.5C 171.167,86.1667 170.167,87.1667 169.5,88.5C 167.973,88.427 166.973,89.0937 166.5,90.5C 165.833,90.5 165.167,90.5 164.5,90.5C 163.833,89.1667 162.833,88.1667 161.5,87.5C 162.78,86.0687 164.447,85.4021 166.5,85.5C 168.973,81.8866 170.973,77.8866 172.5,73.5C 171.691,71.9291 171.357,70.2624 171.5,68.5 Z"/></g>
<g><path style="opacity:1" fill="#f9c23b" d="M 95.5,72.5 C 95.5,73.1667 95.8333,73.5 96.5,73.5C 98.5917,76.681 100.925,79.681 103.5,82.5C 103.5,82.8333 103.5,83.1667 103.5,83.5C 102.833,83.8333 102.167,84.1667 101.5,84.5C 99.8036,82.4752 98.137,80.4752 96.5,78.5C 95.075,77.078 94.075,75.4113 93.5,73.5C 94.1667,73.1667 94.8333,72.8333 95.5,72.5 Z"/></g>
<g><path style="opacity:1" fill="#adedd8" d="M 135.5,77.5 C 133.833,79.5 132.167,81.5 130.5,83.5C 129.24,85.3671 127.573,86.7005 125.5,87.5C 125.075,82.7122 127.075,79.3789 131.5,77.5C 132.833,77.5 134.167,77.5 135.5,77.5 Z"/></g>
<g><path style="opacity:1" fill="#3baad8" d="M 138.5,75.5 C 138.5,76.8333 139.167,77.5 140.5,77.5C 137.761,80.2327 135.427,83.2327 133.5,86.5C 133.167,86.5 132.833,86.5 132.5,86.5C 132.573,84.9731 131.906,83.9731 130.5,83.5C 132.167,81.5 133.833,79.5 135.5,77.5C 136.5,76.8333 137.5,76.1667 138.5,75.5 Z"/></g>
<g><path style="opacity:1" fill="#98e0d3" d="M 148.5,70.5 C 148.5,70.8333 148.5,71.1667 148.5,71.5C 146.598,76.0685 143.598,79.7352 139.5,82.5C 139.5,85.1667 139.5,87.8333 139.5,90.5C 138.448,90.6495 137.448,90.4828 136.5,90C 135.837,88.4815 134.837,87.3149 133.5,86.5C 135.427,83.2327 137.761,80.2327 140.5,77.5C 143.167,75.1667 145.833,72.8333 148.5,70.5 Z"/></g>
<g><path style="opacity:0.812" fill="#214a68" d="M 68.5,76.5 C 68.8333,76.5 69.1667,76.5 69.5,76.5C 69.5,77.1667 69.8333,77.5 70.5,77.5C 70.5,78.1667 70.8333,78.5 71.5,78.5C 71.5,79.1667 71.8333,79.5 72.5,79.5C 72.3284,80.4916 72.6618,81.1583 73.5,81.5C 73.5,82.1667 73.8333,82.5 74.5,82.5C 74.5,83.1667 74.8333,83.5 75.5,83.5C 75.3284,84.4916 75.6618,85.1583 76.5,85.5C 76.5,85.8333 76.5,86.1667 76.5,86.5C 76.5,89.1667 76.5,91.8333 76.5,94.5C 76.1667,94.5 75.8333,94.5 75.5,94.5C 75.7678,92.901 75.4345,91.5676 74.5,90.5C 73.3241,86.0116 70.9907,82.3449 67.5,79.5C 67.5569,78.391 67.8902,77.391 68.5,76.5 Z"/></g>
<g><path style="opacity:1" fill="#822545" d="M 75.5,72.5 C 77.9,74.2964 79.5667,76.6298 80.5,79.5C 79.8333,79.5 79.5,79.8333 79.5,80.5C 78.1667,81.1667 77.1667,82.1667 76.5,83.5C 76.1667,83.5 75.8333,83.5 75.5,83.5C 74.8333,83.5 74.5,83.1667 74.5,82.5C 73.8333,82.5 73.5,82.1667 73.5,81.5C 73.6716,80.5084 73.3382,79.8417 72.5,79.5C 71.8333,79.5 71.5,79.1667 71.5,78.5C 70.8333,78.5 70.5,78.1667 70.5,77.5C 70.5,77.1667 70.5,76.8333 70.5,76.5C 72.5,76.5 73.5,75.5 73.5,73.5C 74.1667,73.1667 74.8333,72.8333 75.5,72.5 Z"/></g>
<g><path style="opacity:0.584" fill="#b67c42" d="M 29.5,79.5 C 33.8138,79.7721 34.3138,81.1055 31,83.5C 29.8118,82.4366 29.3118,81.1033 29.5,79.5 Z"/></g>
<g><path style="opacity:1" fill="#f7c564" d="M 88.5,76.5 C 88.8333,77.5 89.5,78.1667 90.5,78.5C 91.1667,78.5 91.5,78.8333 91.5,79.5C 91.5,80.1667 91.8333,80.5 92.5,80.5C 92.3284,81.4916 92.6618,82.1583 93.5,82.5C 93.5,83.1667 93.8333,83.5 94.5,83.5C 94.5,84.1667 94.8333,84.5 95.5,84.5C 95.5,85.1667 95.5,85.8333 95.5,86.5C 95.5123,89.142 94.179,90.4754 91.5,90.5C 91.1667,90.5 90.8333,90.5 90.5,90.5C 88.5,87.8333 86.5,85.1667 84.5,82.5C 85.8465,80.4632 87.1798,78.4632 88.5,76.5 Z"/></g>
<g><path style="opacity:1" fill="#37a6d7" d="M 148.5,71.5 C 149.126,73.6263 150.459,75.293 152.5,76.5C 151.807,77.5178 151.141,78.5178 150.5,79.5C 148.203,81.2941 146.037,83.2941 144,85.5C 142.871,83.8588 141.371,82.8588 139.5,82.5C 143.598,79.7352 146.598,76.0685 148.5,71.5 Z"/></g>
<g><path style="opacity:1" fill="#f28d21" d="M 96.5,78.5 C 98.137,80.4752 99.8036,82.4752 101.5,84.5C 101.144,86.1898 100.144,87.1898 98.5,87.5C 98.1667,87.5 97.8333,87.5 97.5,87.5C 97.573,85.9731 96.9063,84.9731 95.5,84.5C 94.8333,84.5 94.5,84.1667 94.5,83.5C 93.8333,83.5 93.5,83.1667 93.5,82.5C 93.6716,81.5084 93.3382,80.8417 92.5,80.5C 92.5,80.1667 92.5,79.8333 92.5,79.5C 93.8333,79.1667 95.1667,78.8333 96.5,78.5 Z"/></g>
<g><path style="opacity:1" fill="#3a7fb6" d="M 119.5,78.5 C 120.167,78.5 120.5,78.8333 120.5,79.5C 120.5,80.1667 120.833,80.5 121.5,80.5C 123.329,93.2746 121.329,93.7746 115.5,82C 115.822,79.6729 117.156,78.5062 119.5,78.5 Z"/></g>
<g><path style="opacity:0.961" fill="#c57676" d="M 49.5,79.5 C 49.5,80.8333 49.5,82.1667 49.5,83.5C 48.209,83.2627 47.209,83.596 46.5,84.5C 45.1667,84.5 43.8333,84.5 42.5,84.5C 41.2921,85.2341 39.9587,85.5674 38.5,85.5C 37.791,84.596 36.791,84.2627 35.5,84.5C 35.9528,83.5416 36.6195,82.7083 37.5,82C 41.313,80.228 45.313,79.3947 49.5,79.5 Z"/></g>
<g><path style="opacity:1" fill="#16324c" d="M 49.5,79.5 C 49.8333,79.5 50.1667,79.5 50.5,79.5C 50.5,80.8333 50.5,82.1667 50.5,83.5C 52.2161,83.3713 53.8828,83.038 55.5,82.5C 56.1098,83.391 56.4431,84.391 56.5,85.5C 56.6716,86.4916 56.3382,87.1583 55.5,87.5C 53.6675,88.2485 52.0009,89.2485 50.5,90.5C 49.9517,87.9162 48.285,86.9162 45.5,87.5C 44.8333,87.5 44.1667,87.5 43.5,87.5C 43.5,87.1667 43.5,86.8333 43.5,86.5C 43.1667,85.8333 42.8333,85.1667 42.5,84.5C 43.8333,84.5 45.1667,84.5 46.5,84.5C 47.791,84.7373 48.791,84.404 49.5,83.5C 49.5,82.1667 49.5,80.8333 49.5,79.5 Z"/></g>
<g><path style="opacity:1" fill="#ea9c8f" d="M 35.5,84.5 C 36.791,84.2627 37.791,84.596 38.5,85.5C 36.4453,87.5549 34.7787,89.8883 33.5,92.5C 31.8333,93.1667 30.1667,93.8333 28.5,94.5C 29.395,90.0049 31.7283,86.6716 35.5,84.5 Z"/></g>
<g><path style="opacity:1" fill="#14334f" d="M 153.5,81.5 C 153.5,84.1667 153.5,86.8333 153.5,89.5C 153.167,89.5 152.833,89.5 152.5,89.5C 146.89,93.7715 141.557,98.4382 136.5,103.5C 136.424,101.077 137.424,99.2438 139.5,98C 139.43,97.2352 139.097,96.7352 138.5,96.5C 138.611,95.8826 138.944,95.3826 139.5,95C 137.993,94.1627 137.493,92.9961 138,91.5C 138.837,93.0074 140.004,93.5074 141.5,93C 145.369,88.963 149.369,85.1296 153.5,81.5 Z"/></g>
<g><path style="opacity:1" fill="#f95245" d="M 80.5,79.5 C 82.0301,80.2112 83.3634,81.2112 84.5,82.5C 86.5,85.1667 88.5,87.8333 90.5,90.5C 89.8333,90.8333 89.1667,91.1667 88.5,91.5C 85.1518,88.1486 82.1518,84.4819 79.5,80.5C 79.5,79.8333 79.8333,79.5 80.5,79.5 Z"/></g>
<g><path style="opacity:1" fill="#2b6789" d="M 150.5,79.5 C 151.609,79.5569 152.609,79.8902 153.5,80.5C 153.5,80.8333 153.5,81.1667 153.5,81.5C 149.369,85.1296 145.369,88.963 141.5,93C 140.004,93.5074 138.837,93.0074 138,91.5C 137.493,92.9961 137.993,94.1627 139.5,95C 138.944,95.3826 138.611,95.8826 138.5,96.5C 136.5,98.1667 134.5,99.8333 132.5,101.5C 132.5,99.8333 132.5,98.1667 132.5,96.5C 137.589,93.6253 137.589,90.6253 132.5,87.5C 132.5,87.1667 132.5,86.8333 132.5,86.5C 132.833,86.5 133.167,86.5 133.5,86.5C 134.837,87.3149 135.837,88.4815 136.5,90C 137.448,90.4828 138.448,90.6495 139.5,90.5C 139.5,87.8333 139.5,85.1667 139.5,82.5C 141.371,82.8588 142.871,83.8588 144,85.5C 146.037,83.2941 148.203,81.2941 150.5,79.5 Z"/></g>
<g><path style="opacity:0.98" fill="#a03b3d" d="M 25.5,85.5 C 26.5,85.5 27.5,85.5 28.5,85.5C 28.5,86.8333 28.5,88.1667 28.5,89.5C 27.5,89.5 26.5,89.5 25.5,89.5C 25.5,88.1667 25.5,86.8333 25.5,85.5 Z"/></g>
<g><path style="opacity:1" fill="#5acbe7" d="M 67.5,79.5 C 70.9907,82.3449 73.3241,86.0116 74.5,90.5C 73.925,92.4113 72.925,94.078 71.5,95.5C 70.1667,96.5 68.8333,97.5 67.5,98.5C 67.7678,96.901 67.4345,95.5676 66.5,94.5C 67.8098,92.8523 69.1431,91.1856 70.5,89.5C 70.1131,88.2801 69.2798,87.6135 68,87.5C 64.0107,90.6561 60.1774,93.9894 56.5,97.5C 56.3379,95.4727 56.5045,93.4727 57,91.5C 61.66,89.339 65.16,86.0056 67.5,81.5C 67.5,80.8333 67.5,80.1667 67.5,79.5 Z"/></g>
<g><path style="opacity:1" fill="#3c9dcb" d="M 130.5,83.5 C 131.906,83.9731 132.573,84.9731 132.5,86.5C 132.5,86.8333 132.5,87.1667 132.5,87.5C 130.589,88.075 128.922,89.075 127.5,90.5C 126.423,91.6789 126.09,94.3456 126.5,98.5C 126.167,98.5 125.833,98.5 125.5,98.5C 125.5,94.8333 125.5,91.1667 125.5,87.5C 127.573,86.7005 129.24,85.3671 130.5,83.5 Z"/></g>
<g><path style="opacity:1" fill="#f3bf51" d="M 43.5,86.5 C 43.5,86.8333 43.5,87.1667 43.5,87.5C 43.5,89.8333 43.5,92.1667 43.5,94.5C 41.5,93.1667 39.8333,91.5 38.5,89.5C 39.9649,88.2632 41.6316,87.2632 43.5,86.5 Z"/></g>
<g><path style="opacity:1" fill="#32708f" d="M 63.5,79.5 C 64.8333,80.1667 66.1667,80.8333 67.5,81.5C 65.16,86.0056 61.66,89.339 57,91.5C 56.5045,93.4727 56.3379,95.4727 56.5,97.5C 56.5,97.8333 56.5,98.1667 56.5,98.5C 56.1667,98.5 55.8333,98.5 55.5,98.5C 55.5,96.5 55.5,94.5 55.5,92.5C 55.5,90.8333 55.5,89.1667 55.5,87.5C 56.3382,87.1583 56.6716,86.4916 56.5,85.5C 59.4532,84.2128 61.7865,82.2128 63.5,79.5 Z"/></g>
<g><path style="opacity:1" fill="#f8ead2" d="M 103.5,83.5 C 103.5,83.1667 103.5,82.8333 103.5,82.5C 105.857,82.3367 108.19,82.5034 110.5,83C 113.167,84.3333 113.167,85.6667 110.5,87C 111.397,89.1265 112.731,89.6265 114.5,88.5C 113.754,87.2638 113.421,85.9305 113.5,84.5C 115.984,86.8003 117.984,89.4669 119.5,92.5C 118.518,91.8592 117.518,91.1925 116.5,90.5C 115.289,91.2739 115.289,92.1072 116.5,93C 115.833,93.3333 115.167,93.6667 114.5,94C 115.623,95.0437 116.956,95.7104 118.5,96C 118.043,96.414 117.709,96.914 117.5,97.5C 118.95,98.8498 119.617,100.516 119.5,102.5C 114.167,96.1667 108.833,89.8333 103.5,83.5 Z"/></g>
<g><path style="opacity:1" fill="#f3c669" d="M 95.5,86.5 C 96.1667,86.8333 96.8333,87.1667 97.5,87.5C 97.5,88.1667 97.8333,88.5 98.5,88.5C 98.5,89.1667 98.8333,89.5 99.5,89.5C 99.427,91.0269 100.094,92.0269 101.5,92.5C 101.5,93.1667 101.833,93.5 102.5,93.5C 102.427,95.0269 103.094,96.0269 104.5,96.5C 104.5,97.1667 104.833,97.5 105.5,97.5C 105.5,98.1667 105.833,98.5 106.5,98.5C 106.427,100.027 107.094,101.027 108.5,101.5C 108.5,102.167 108.833,102.5 109.5,102.5C 109.5,103.167 109.833,103.5 110.5,103.5C 110.427,105.027 111.094,106.027 112.5,106.5C 112.5,107.167 112.833,107.5 113.5,107.5C 113.5,108.167 113.5,108.833 113.5,109.5C 113.167,109.5 112.833,109.5 112.5,109.5C 111.713,107.896 110.38,107.229 108.5,107.5C 108.431,104.916 107.265,102.916 105,101.5C 103.334,102.34 103.167,101.84 104.5,100C 102.246,97.5558 99.9125,95.3892 97.5,93.5C 96.2867,93.7472 95.62,94.4138 95.5,95.5C 93.4131,94.4154 92.0798,92.7488 91.5,90.5C 94.179,90.4754 95.5123,89.142 95.5,86.5 Z"/></g>
<g><path style="opacity:1" fill="#d63451" d="M 79.5,80.5 C 82.1518,84.4819 85.1518,88.1486 88.5,91.5C 88.1667,92.1667 87.8333,92.8333 87.5,93.5C 86.2976,94.4054 84.9643,94.4054 83.5,93.5C 82.8333,92.5 82.1667,91.5 81.5,90.5C 81.5,89.8333 81.1667,89.5 80.5,89.5C 80.5,88.8333 80.1667,88.5 79.5,88.5C 79.1667,87.5 78.5,86.8333 77.5,86.5C 77.5,85.8333 77.1667,85.5 76.5,85.5C 76.5,84.8333 76.5,84.1667 76.5,83.5C 77.1667,82.1667 78.1667,81.1667 79.5,80.5 Z"/></g>
<g><path style="opacity:1" fill="#f85347" d="M 103.5,83.5 C 108.833,89.8333 114.167,96.1667 119.5,102.5C 119.932,103.71 120.599,104.71 121.5,105.5C 121.5,105.833 121.5,106.167 121.5,106.5C 121.5,107.167 121.167,107.5 120.5,107.5C 116.733,103.499 113.066,99.3327 109.5,95C 107.133,93.1552 104.467,91.9886 101.5,91.5C 101.167,90.5 100.5,89.8333 99.5,89.5C 98.8333,89.5 98.5,89.1667 98.5,88.5C 98.5,88.1667 98.5,87.8333 98.5,87.5C 100.144,87.1898 101.144,86.1898 101.5,84.5C 102.167,84.1667 102.833,83.8333 103.5,83.5 Z"/></g>
<g><path style="opacity:1" fill="#707986" d="M 161.5,87.5 C 162.833,88.1667 163.833,89.1667 164.5,90.5C 162.513,91.1642 160.846,92.3308 159.5,94C 156.866,94.9248 155.699,94.0915 156,91.5C 157.432,89.5612 159.265,88.2279 161.5,87.5 Z"/></g>
<g><path style="opacity:1" fill="#faf3e2" d="M 119.5,92.5 C 121.262,93.2623 122.262,94.5956 122.5,96.5C 122.81,99.7131 122.477,102.713 121.5,105.5C 120.599,104.71 119.932,103.71 119.5,102.5C 119.617,100.516 118.95,98.8498 117.5,97.5C 117.709,96.914 118.043,96.414 118.5,96C 116.956,95.7104 115.623,95.0437 114.5,94C 115.167,93.6667 115.833,93.3333 116.5,93C 115.289,92.1072 115.289,91.2739 116.5,90.5C 117.518,91.1925 118.518,91.8592 119.5,92.5 Z"/></g>
<g><path style="opacity:1" fill="#606d7a" d="M 45.5,87.5 C 48.285,86.9162 49.9517,87.9162 50.5,90.5C 50.366,92.2915 50.6993,93.9582 51.5,95.5C 50.8333,95.5 50.5,95.8333 50.5,96.5C 50.7471,99.9387 50.4137,103.272 49.5,106.5C 48.5,107.167 47.5,107.833 46.5,108.5C 46.7678,106.901 46.4345,105.568 45.5,104.5C 46.1043,98.886 46.1043,93.2194 45.5,87.5 Z"/></g>
<g><path style="opacity:1" fill="#b2373f" d="M 76.5,86.5 C 76.8333,86.5 77.1667,86.5 77.5,86.5C 78.5,86.8333 79.1667,87.5 79.5,88.5C 80.1667,88.5 80.5,88.8333 80.5,89.5C 81.1667,89.5 81.5,89.8333 81.5,90.5C 80.5206,93.6248 80.1872,96.9581 80.5,100.5C 79.1667,101.5 77.8333,102.5 76.5,103.5C 76.5,101.5 76.5,99.5 76.5,97.5C 76.5,96.5 76.5,95.5 76.5,94.5C 76.5,91.8333 76.5,89.1667 76.5,86.5 Z"/></g>
<g><path style="opacity:1" fill="#da3c52" d="M 101.5,92.5 C 101.5,92.1667 101.5,91.8333 101.5,91.5C 104.467,91.9886 107.133,93.1552 109.5,95C 113.066,99.3327 116.733,103.499 120.5,107.5C 119.5,108.833 118.5,110.167 117.5,111.5C 117.167,111.5 116.833,111.5 116.5,111.5C 116.262,109.596 115.262,108.262 113.5,107.5C 112.833,107.5 112.5,107.167 112.5,106.5C 112.573,104.973 111.906,103.973 110.5,103.5C 109.833,103.5 109.5,103.167 109.5,102.5C 108.833,102.5 108.5,102.167 108.5,101.5C 108.573,99.9731 107.906,98.9731 106.5,98.5C 105.833,98.5 105.5,98.1667 105.5,97.5C 104.833,97.5 104.5,97.1667 104.5,96.5C 104.573,94.9731 103.906,93.9731 102.5,93.5C 101.833,93.5 101.5,93.1667 101.5,92.5 Z"/></g>
<g><path style="opacity:1" fill="#75cce1" d="M 132.5,87.5 C 137.589,90.6253 137.589,93.6253 132.5,96.5C 130.086,95.0892 128.419,93.0892 127.5,90.5C 128.922,89.075 130.589,88.075 132.5,87.5 Z"/></g>
<g><path style="opacity:1" fill="#a2ead2" d="M 66.5,94.5 C 63.1667,97.5 59.8333,100.5 56.5,103.5C 56.5,101.833 56.5,100.167 56.5,98.5C 56.5,98.1667 56.5,97.8333 56.5,97.5C 60.1774,93.9894 64.0107,90.6561 68,87.5C 69.2798,87.6135 70.1131,88.2801 70.5,89.5C 69.1431,91.1856 67.8098,92.8523 66.5,94.5 Z"/></g>
<g><path style="opacity:1" fill="#7d2646" d="M 83.5,93.5 C 84.9643,94.4054 86.2976,94.4054 87.5,93.5C 91.4784,95.4784 94.4784,98.4784 96.5,102.5C 95.3995,103.605 94.7329,104.938 94.5,106.5C 93.1667,105.5 91.8333,104.5 90.5,103.5C 88.1919,100.185 85.8586,96.8514 83.5,93.5 Z"/></g>
<g><path style="opacity:1" fill="#faf0ca" d="M 169.5,88.5 C 169.666,93.1785 169.499,97.8452 169,102.5C 168.329,103.252 167.496,103.586 166.5,103.5C 166.5,99.1667 166.5,94.8333 166.5,90.5C 166.973,89.0937 167.973,88.427 169.5,88.5 Z"/></g>
<g><path style="opacity:1" fill="#df851f" d="M 172.5,85.5 C 172.666,92.175 172.5,98.8417 172,105.5C 169.189,107.18 167.356,106.513 166.5,103.5C 167.496,103.586 168.329,103.252 169,102.5C 169.499,97.8452 169.666,93.1785 169.5,88.5C 170.167,87.1667 171.167,86.1667 172.5,85.5 Z"/></g>
<g><path style="opacity:1" fill="#df4a4d" d="M 38.5,89.5 C 39.8333,91.5 41.5,93.1667 43.5,94.5C 43.5,96.8333 43.5,99.1667 43.5,101.5C 40.0132,100.555 38.6799,98.2221 39.5,94.5C 38.1667,94.5 36.8333,94.5 35.5,94.5C 35.7497,92.326 36.7497,90.6594 38.5,89.5 Z"/></g>
<g><path style="opacity:0.997" fill="#234f6b" d="M 55.5,92.5 C 55.5,94.5 55.5,96.5 55.5,98.5C 54.5423,99.9616 53.3756,101.295 52,102.5C 51.2109,104.712 51.3775,106.712 52.5,108.5C 52.1788,110.048 51.1788,110.715 49.5,110.5C 49.5,109.167 49.5,107.833 49.5,106.5C 50.4137,103.272 50.7471,99.9387 50.5,96.5C 51.1667,96.5 51.5,96.1667 51.5,95.5C 52.8333,94.5 54.1667,93.5 55.5,92.5 Z"/></g>
<g><path style="opacity:1" fill="#9d2e42" d="M 90.5,90.5 C 90.8333,90.5 91.1667,90.5 91.5,90.5C 92.0798,92.7488 93.4131,94.4154 95.5,95.5C 96.5,97.5 97.5,99.5 98.5,101.5C 97.8333,101.5 97.5,101.833 97.5,102.5C 97.1667,102.5 96.8333,102.5 96.5,102.5C 94.4784,98.4784 91.4784,95.4784 87.5,93.5C 87.8333,92.8333 88.1667,92.1667 88.5,91.5C 89.1667,91.1667 89.8333,90.8333 90.5,90.5 Z"/></g>
<g><path style="opacity:1" fill="#3baada" d="M 127.5,90.5 C 128.419,93.0892 130.086,95.0892 132.5,96.5C 132.5,98.1667 132.5,99.8333 132.5,101.5C 132.737,102.791 132.404,103.791 131.5,104.5C 130.833,104.167 130.167,103.833 129.5,103.5C 129.5,102.833 129.167,102.5 128.5,102.5C 128.573,100.973 127.906,99.9731 126.5,99.5C 126.5,99.1667 126.5,98.8333 126.5,98.5C 126.09,94.3456 126.423,91.6789 127.5,90.5 Z"/></g>
<g><path style="opacity:0.996" fill="#f4ecce" d="M 152.5,89.5 C 152.833,89.5 153.167,89.5 153.5,89.5C 153.5,92.5 153.5,95.5 153.5,98.5C 149.681,98.414 146.015,99.0807 142.5,100.5C 145.833,96.8333 149.167,93.1667 152.5,89.5 Z"/></g>
<g><path style="opacity:1" fill="#4f9ccd" d="M 66.5,94.5 C 67.4345,95.5676 67.7678,96.901 67.5,98.5C 64.5643,103.105 60.8976,107.105 56.5,110.5C 56.1667,110.5 55.8333,110.5 55.5,110.5C 55.5,109.167 55.5,107.833 55.5,106.5C 56.404,105.791 56.7373,104.791 56.5,103.5C 59.8333,100.5 63.1667,97.5 66.5,94.5 Z"/></g>
<g><path style="opacity:1" fill="#972834" d="M 74.5,90.5 C 75.4345,91.5676 75.7678,92.901 75.5,94.5C 75.2627,95.791 75.596,96.791 76.5,97.5C 76.5,99.5 76.5,101.5 76.5,103.5C 76.5,106.167 76.5,108.833 76.5,111.5C 76.1667,111.5 75.8333,111.5 75.5,111.5C 75.5,109.5 75.5,107.5 75.5,105.5C 75.8076,103.076 75.4742,100.743 74.5,98.5C 73.8076,99.0253 73.3076,99.6919 73,100.5C 72.8019,98.6183 72.3019,96.9516 71.5,95.5C 72.925,94.078 73.925,92.4113 74.5,90.5 Z"/></g>
<g><path style="opacity:1" fill="#e26868" d="M 33.5,92.5 C 32.2493,96.5983 32.5827,100.598 34.5,104.5C 32.8212,104.285 31.8212,104.952 31.5,106.5C 29.0339,102.982 28.0339,98.9816 28.5,94.5C 30.1667,93.8333 31.8333,93.1667 33.5,92.5 Z"/></g>
<g><path style="opacity:0.839" fill="#61aaad" d="M 155.5,96.5 C 156.833,96.5 158.167,96.5 159.5,96.5C 159.778,98.3464 159.111,99.6798 157.5,100.5C 155.889,99.6798 155.222,98.3464 155.5,96.5 Z"/></g>
<g><path style="opacity:0.906" fill="#d4dbd6" d="M 160.5,96.5 C 161.833,96.5 163.167,96.5 164.5,96.5C 164.778,98.3464 164.111,99.6798 162.5,100.5C 160.889,99.6798 160.222,98.3464 160.5,96.5 Z"/></g>
<g><path style="opacity:0.988" fill="#1b3e57" d="M 90.5,103.5 C 91.075,105.411 92.075,107.078 93.5,108.5C 92.2921,109.234 90.9587,109.567 89.5,109.5C 86.7157,106.102 84.049,102.602 81.5,99C 81.6135,97.7202 82.2801,96.8869 83.5,96.5C 85.4939,99.1606 87.8273,101.494 90.5,103.5 Z"/></g>
<g><path style="opacity:0.149" fill="#d77621" d="M 174.5,86.5 C 175.5,86.5 176.5,86.5 177.5,86.5C 177.829,92.5368 177.496,98.5368 176.5,104.5C 175.914,104.291 175.414,103.957 175,103.5C 174.501,97.8431 174.334,92.1764 174.5,86.5 Z"/></g>
<g><path style="opacity:1" fill="#327495" d="M 55.5,98.5 C 55.8333,98.5 56.1667,98.5 56.5,98.5C 56.5,100.167 56.5,101.833 56.5,103.5C 56.7373,104.791 56.404,105.791 55.5,106.5C 54.5,107.167 53.5,107.833 52.5,108.5C 51.3775,106.712 51.2109,104.712 52,102.5C 53.3756,101.295 54.5423,99.9616 55.5,98.5 Z"/></g>
<g><path style="opacity:1" fill="#fac561" d="M 112.5,109.5 C 111.624,109.369 110.957,109.702 110.5,110.5C 112.234,114.204 113.901,117.87 115.5,121.5C 109.833,114.833 104.167,108.167 98.5,101.5C 97.5,99.5 96.5,97.5 95.5,95.5C 95.62,94.4138 96.2867,93.7472 97.5,93.5C 99.9125,95.3892 102.246,97.5558 104.5,100C 103.167,101.84 103.334,102.34 105,101.5C 107.265,102.916 108.431,104.916 108.5,107.5C 110.38,107.229 111.713,107.896 112.5,109.5 Z"/></g>
<g><path style="opacity:1" fill="#153452" d="M 138.5,96.5 C 139.097,96.7352 139.43,97.2352 139.5,98C 137.424,99.2438 136.424,101.077 136.5,103.5C 135.123,106.726 133.457,107.059 131.5,104.5C 132.404,103.791 132.737,102.791 132.5,101.5C 134.5,99.8333 136.5,98.1667 138.5,96.5 Z"/></g>
<g><path style="opacity:1" fill="#fabe35" d="M 153.5,98.5 C 153.5,99.1667 153.5,99.8333 153.5,100.5C 150.911,101.419 148.911,103.086 147.5,105.5C 146.026,106.436 145.026,107.77 144.5,109.5C 144.5,111.167 144.5,112.833 144.5,114.5C 141.548,112.215 138.882,109.548 136.5,106.5C 138.167,104.167 140.167,102.167 142.5,100.5C 146.015,99.0807 149.681,98.414 153.5,98.5 Z"/></g>
<g><path style="opacity:0.98" fill="#6a7481" d="M 35.5,94.5 C 36.8333,94.5 38.1667,94.5 39.5,94.5C 38.6799,98.2221 40.0132,100.555 43.5,101.5C 43.2627,102.791 43.596,103.791 44.5,104.5C 44.1667,105.5 43.5,106.167 42.5,106.5C 36.8041,104.469 34.4708,100.469 35.5,94.5 Z"/></g>
<g><path style="opacity:1" fill="#f74445" d="M 71.5,95.5 C 72.3019,96.9516 72.8019,98.6183 73,100.5C 73.3076,99.6919 73.8076,99.0253 74.5,98.5C 75.4742,100.743 75.8076,103.076 75.5,105.5C 74.2101,106.058 73.3768,107.058 73,108.5C 72.6667,106.167 72.3333,103.833 72,101.5C 70.2927,103.037 68.7927,104.704 67.5,106.5C 63.6054,109.973 59.9387,113.64 56.5,117.5C 56.5,115.167 56.5,112.833 56.5,110.5C 60.8976,107.105 64.5643,103.105 67.5,98.5C 68.8333,97.5 70.1667,96.5 71.5,95.5 Z"/></g>
<g><path style="opacity:1" fill="#fb845d" d="M 75.5,105.5 C 75.5,107.5 75.5,109.5 75.5,111.5C 75.5,111.833 75.5,112.167 75.5,112.5C 74.5416,112.953 73.7083,113.619 73,114.5C 72.6667,112.833 72.3333,111.167 72,109.5C 70.9609,110.71 69.7942,111.71 68.5,112.5C 67.6586,110.621 67.3253,108.621 67.5,106.5C 68.7927,104.704 70.2927,103.037 72,101.5C 72.3333,103.833 72.6667,106.167 73,108.5C 73.3768,107.058 74.2101,106.058 75.5,105.5 Z"/></g>
<g><path style="opacity:1" fill="#e34f3b" d="M 34.5,104.5 C 36.1667,105.833 37.8333,107.167 39.5,108.5C 39.0679,109.71 38.4013,110.71 37.5,111.5C 36.8333,111.5 36.1667,111.5 35.5,111.5C 35.5,110.833 35.1667,110.5 34.5,110.5C 34.1667,109.5 33.5,108.833 32.5,108.5C 32.1667,107.833 31.8333,107.167 31.5,106.5C 31.8212,104.952 32.8212,104.285 34.5,104.5 Z"/></g>
<g><path style="opacity:1" fill="#f6a682" d="M 122.5,96.5 C 123.5,97.1667 124.5,97.8333 125.5,98.5C 125.5,99.1667 125.833,99.5 126.5,99.5C 126.427,101.027 127.094,102.027 128.5,102.5C 128.5,102.833 128.5,103.167 128.5,103.5C 127.096,105.255 126.096,107.255 125.5,109.5C 124.167,108.5 122.833,107.5 121.5,106.5C 121.5,106.167 121.5,105.833 121.5,105.5C 122.477,102.713 122.81,99.7131 122.5,96.5 Z"/></g>
<g><path style="opacity:1" fill="#f4b82a" d="M 153.5,104.5 C 153.5,106.833 153.5,109.167 153.5,111.5C 150.861,110.294 150.028,108.294 151,105.5C 151.671,104.748 152.504,104.414 153.5,104.5 Z"/></g>
<g><path style="opacity:0.647" fill="#457089" d="M 155.5,102.5 C 158.807,102.063 161.807,102.73 164.5,104.5C 164.291,105.086 163.957,105.586 163.5,106C 160.854,106.497 158.187,106.664 155.5,106.5C 155.5,105.167 155.5,103.833 155.5,102.5 Z"/></g>
<g><path style="opacity:1" fill="#e0d1a1" d="M 80.5,100.5 C 80.5,105.5 80.5,110.5 80.5,115.5C 78.9382,115.733 77.6049,116.4 76.5,117.5C 76.5,115.5 76.5,113.5 76.5,111.5C 76.5,108.833 76.5,106.167 76.5,103.5C 77.8333,102.5 79.1667,101.5 80.5,100.5 Z"/></g>
<g><path style="opacity:1" fill="#f87067" d="M 128.5,103.5 C 128.833,103.5 129.167,103.5 129.5,103.5C 130.5,105.5 131.5,107.5 132.5,109.5C 132.047,111.565 131.047,113.232 129.5,114.5C 129.167,114.5 128.833,114.5 128.5,114.5C 127.075,113.078 126.075,111.411 125.5,109.5C 126.096,107.255 127.096,105.255 128.5,103.5 Z"/></g>
<g><path style="opacity:1" fill="#d9334f" d="M 96.5,102.5 C 96.8333,102.5 97.1667,102.5 97.5,102.5C 101.809,108.482 106.142,114.482 110.5,120.5C 110.5,121.5 110.5,122.5 110.5,123.5C 109.5,123.5 108.5,123.5 107.5,123.5C 107.167,123.5 106.833,123.5 106.5,123.5C 106.5,122.833 106.167,122.5 105.5,122.5C 103.312,118.793 100.645,115.46 97.5,112.5C 97.2624,110.596 96.2624,109.262 94.5,108.5C 94.5,107.833 94.5,107.167 94.5,106.5C 94.7329,104.938 95.3995,103.605 96.5,102.5 Z"/></g>
<g><path style="opacity:1" fill="#6d7785" d="M 44.5,104.5 C 44.8333,104.5 45.1667,104.5 45.5,104.5C 46.4345,105.568 46.7678,106.901 46.5,108.5C 44.4707,110.858 42.4707,113.192 40.5,115.5C 39.2946,114.314 37.9613,114.314 36.5,115.5C 36.4326,114.041 36.7659,112.708 37.5,111.5C 38.4013,110.71 39.0679,109.71 39.5,108.5C 41.0269,108.573 42.0269,107.906 42.5,106.5C 43.5,106.167 44.1667,105.5 44.5,104.5 Z"/></g>
<g><path style="opacity:0.533" fill="#6a6b85" d="M 175.5,108.5 C 176.5,108.5 177.5,108.5 178.5,108.5C 178.5,109.5 178.5,110.5 178.5,111.5C 177.5,111.5 176.5,111.5 175.5,111.5C 175.5,110.5 175.5,109.5 175.5,108.5 Z"/></g>
<g><path style="opacity:1" fill="#fc6d64" d="M 67.5,106.5 C 67.3253,108.621 67.6586,110.621 68.5,112.5C 68.1667,113.167 67.8333,113.833 67.5,114.5C 63.8333,117.833 60.1667,121.167 56.5,124.5C 56.5,122.167 56.5,119.833 56.5,117.5C 59.9387,113.64 63.6054,109.973 67.5,106.5 Z"/></g>
<g><path style="opacity:1" fill="#f95645" d="M 98.5,101.5 C 104.167,108.167 109.833,114.833 115.5,121.5C 115.5,122.167 115.833,122.5 116.5,122.5C 117.11,123.391 117.443,124.391 117.5,125.5C 117.5,126.167 117.167,126.5 116.5,126.5C 114.5,124.5 112.5,122.5 110.5,120.5C 106.142,114.482 101.809,108.482 97.5,102.5C 97.5,101.833 97.8333,101.5 98.5,101.5 Z"/></g>
<g><path style="opacity:1" fill="#f54722" d="M 153.5,100.5 C 153.5,101.833 153.5,103.167 153.5,104.5C 152.504,104.414 151.671,104.748 151,105.5C 150.028,108.294 150.861,110.294 153.5,111.5C 153.5,113.5 153.5,115.5 153.5,117.5C 148.032,115.422 146.032,111.422 147.5,105.5C 148.911,103.086 150.911,101.419 153.5,100.5 Z"/></g>
<g><path style="opacity:0.208" fill="#193b54" d="M 93.5,108.5 C 93.8333,108.5 94.1667,108.5 94.5,108.5C 94.7376,110.404 95.7376,111.738 97.5,112.5C 98.038,114.117 98.3713,115.784 98.5,117.5C 97.448,117.649 96.448,117.483 95.5,117C 93.6664,114.337 91.6664,111.837 89.5,109.5C 90.9587,109.567 92.2921,109.234 93.5,108.5 Z"/></g>
<g><path style="opacity:1" fill="#f6c564" d="M 112.5,109.5 C 112.833,109.5 113.167,109.5 113.5,109.5C 114.5,110.167 115.5,110.833 116.5,111.5C 116.5,112.167 116.833,112.5 117.5,112.5C 117.5,113.167 117.833,113.5 118.5,113.5C 118.427,115.027 119.094,116.027 120.5,116.5C 120.5,117.167 120.833,117.5 121.5,117.5C 121.738,119.404 122.738,120.738 124.5,121.5C 124.5,122.167 124.833,122.5 125.5,122.5C 125.5,123.167 125.833,123.5 126.5,123.5C 126.5,124.167 126.5,124.833 126.5,125.5C 124.814,123.984 122.981,122.65 121,121.5C 120.055,121.905 119.388,122.572 119,123.5C 118.399,121.641 117.566,121.308 116.5,122.5C 115.833,122.5 115.5,122.167 115.5,121.5C 113.901,117.87 112.234,114.204 110.5,110.5C 110.957,109.702 111.624,109.369 112.5,109.5 Z"/></g>
<g><path style="opacity:1" fill="#e9f3e0" d="M 172.5,113.5 C 172.664,116.187 172.497,118.854 172,121.5C 171.015,119.825 170.181,118.158 169.5,116.5C 167.593,113.668 164.927,112.834 161.5,114C 160.364,115.145 159.364,116.312 158.5,117.5C 157.5,117.5 156.5,117.5 155.5,117.5C 157.148,109.658 161.815,107.158 169.5,110C 170.71,111.039 171.71,112.206 172.5,113.5 Z"/></g>
<g><path style="opacity:1" fill="#d76a16" d="M 136.5,106.5 C 138.882,109.548 141.548,112.215 144.5,114.5C 144.443,115.609 144.11,116.609 143.5,117.5C 140.14,114.806 137.14,111.806 134.5,108.5C 134.833,107.5 135.5,106.833 136.5,106.5 Z"/></g>
<g><path style="opacity:1" fill="#f3e3b3" d="M 75.5,112.5 C 75.5,114.833 75.5,117.167 75.5,119.5C 73.8546,120.479 72.5213,121.812 71.5,123.5C 70.1482,122.476 68.8149,121.476 67.5,120.5C 67.5,118.5 67.5,116.5 67.5,114.5C 67.8333,113.833 68.1667,113.167 68.5,112.5C 69.7942,111.71 70.9609,110.71 72,109.5C 72.3333,111.167 72.6667,112.833 73,114.5C 73.7083,113.619 74.5416,112.953 75.5,112.5 Z"/></g>
<g><path style="opacity:1" fill="#832745" d="M 55.5,110.5 C 55.8333,110.5 56.1667,110.5 56.5,110.5C 56.5,112.833 56.5,115.167 56.5,117.5C 56.5,119.833 56.5,122.167 56.5,124.5C 56.5,124.833 56.5,125.167 56.5,125.5C 54.5,127.167 52.5,128.833 50.5,130.5C 50.3342,125.821 50.5008,121.155 51,116.5C 52.332,114.34 53.832,112.34 55.5,110.5 Z"/></g>
<g><path style="opacity:0.995" fill="#812546" d="M 121.5,106.5 C 122.833,107.5 124.167,108.5 125.5,109.5C 126.075,111.411 127.075,113.078 128.5,114.5C 127.92,116.749 126.587,118.415 124.5,119.5C 123.5,118.833 122.5,118.167 121.5,117.5C 120.833,117.5 120.5,117.167 120.5,116.5C 120.573,114.973 119.906,113.973 118.5,113.5C 117.833,113.5 117.5,113.167 117.5,112.5C 117.5,112.167 117.5,111.833 117.5,111.5C 118.5,110.167 119.5,108.833 120.5,107.5C 121.167,107.5 121.5,107.167 121.5,106.5 Z"/></g>
<g><path style="opacity:1" fill="#f4b02a" d="M 147.5,105.5 C 146.032,111.422 148.032,115.422 153.5,117.5C 153.5,118.833 153.5,120.167 153.5,121.5C 150.189,120.189 147.855,117.855 146.5,114.5C 145.976,112.694 145.309,111.028 144.5,109.5C 145.026,107.77 146.026,106.436 147.5,105.5 Z"/></g>
<g><path style="opacity:0.804" fill="#40aad6" d="M 26.5,107.5 C 27.5,107.5 28.5,107.5 29.5,107.5C 29.3642,112.946 30.0309,118.28 31.5,123.5C 28.9505,123.439 27.4505,122.106 27,119.5C 26.5012,115.514 26.3345,111.514 26.5,107.5 Z"/></g>
<g><path style="opacity:1" fill="#d54248" d="M 83.5,107.5 C 91.2218,111.767 91.3885,116.434 84,121.5C 83.5008,116.845 83.3342,112.179 83.5,107.5 Z"/></g>
<g><path style="opacity:1" fill="#eb442b" d="M 95.5,120.5 C 95.5,120.833 95.5,121.167 95.5,121.5C 95.5,121.833 95.5,122.167 95.5,122.5C 94.0937,122.973 93.427,123.973 93.5,125.5C 92.1667,124.833 90.8333,124.167 89.5,123.5C 89.5,122.833 89.1667,122.5 88.5,122.5C 89.6301,116.897 91.9634,116.231 95.5,120.5 Z"/></g>
<g><path style="opacity:1" fill="#da394d" d="M 128.5,114.5 C 128.833,114.5 129.167,114.5 129.5,114.5C 130.833,116.833 132.167,119.167 133.5,121.5C 132.314,122.705 132.314,124.039 133.5,125.5C 132.778,126.551 131.778,127.218 130.5,127.5C 130.167,127.5 129.833,127.5 129.5,127.5C 129.5,126.833 129.167,126.5 128.5,126.5C 128.573,124.973 127.906,123.973 126.5,123.5C 125.833,123.5 125.5,123.167 125.5,122.5C 124.833,122.5 124.5,122.167 124.5,121.5C 124.5,120.833 124.5,120.167 124.5,119.5C 126.587,118.415 127.92,116.749 128.5,114.5 Z"/></g>
<g><path style="opacity:1" fill="#f9c461" d="M 132.5,109.5 C 132.833,109.5 133.167,109.5 133.5,109.5C 137.167,114.833 140.833,120.167 144.5,125.5C 143.527,126.791 142.527,126.791 141.5,125.5C 140.478,125.855 139.811,126.522 139.5,127.5C 137.861,125.194 135.861,123.194 133.5,121.5C 132.167,119.167 130.833,116.833 129.5,114.5C 131.047,113.232 132.047,111.565 132.5,109.5 Z"/></g>
<g><path style="opacity:1" fill="#c74d21" d="M 144.5,109.5 C 145.309,111.028 145.976,112.694 146.5,114.5C 145.402,115.601 145.235,116.934 146,118.5C 148.444,120.754 150.611,123.087 152.5,125.5C 152.333,126.167 152.167,126.833 152,127.5C 150.296,125.627 148.463,123.96 146.5,122.5C 145.075,121.078 144.075,119.411 143.5,117.5C 144.11,116.609 144.443,115.609 144.5,114.5C 144.5,112.833 144.5,111.167 144.5,109.5 Z"/></g>
<g><path style="opacity:1" fill="#e6aa2c" d="M 80.5,115.5 C 80.5,118.833 80.5,122.167 80.5,125.5C 79.5178,126.141 78.5178,126.807 77.5,127.5C 76.513,124.232 76.1796,120.898 76.5,117.5C 77.6049,116.4 78.9382,115.733 80.5,115.5 Z"/></g>
<g><path style="opacity:1" fill="#823124" d="M 134.5,108.5 C 137.14,111.806 140.14,114.806 143.5,117.5C 144.075,119.411 145.075,121.078 146.5,122.5C 146.389,123.117 146.056,123.617 145.5,124C 146.984,125.574 148.651,126.907 150.5,128C 149.829,128.986 149.829,130.153 150.5,131.5C 149.5,131.167 148.833,130.5 148.5,129.5C 147.5,127.833 146.167,126.5 144.5,125.5C 140.833,120.167 137.167,114.833 133.5,109.5C 133.5,108.833 133.833,108.5 134.5,108.5 Z"/></g>
<g><path style="opacity:1" fill="#396278" d="M 155.5,117.5 C 156.5,117.5 157.5,117.5 158.5,117.5C 159.323,122.645 162.323,124.645 167.5,123.5C 166.646,125.035 166.646,126.368 167.5,127.5C 159.534,128.864 155.534,125.531 155.5,117.5 Z"/></g>
<g><path style="opacity:0.925" fill="#c1d9d1" d="M 32.5,108.5 C 33.5,108.833 34.1667,109.5 34.5,110.5C 33.3567,113.976 33.1901,117.642 34,121.5C 34.6082,123.066 35.4415,124.4 36.5,125.5C 37.5,126.833 38.5,128.167 39.5,129.5C 36.1783,128.342 34.0117,126.008 33,122.5C 32.5,119 32,115.5 31.5,112C 31.5143,110.615 31.8476,109.449 32.5,108.5 Z"/></g>
<g><path style="opacity:1" fill="#c7cdca" d="M 40.5,115.5 C 40.7598,120.899 43.4265,122.899 48.5,121.5C 49.4519,123.045 49.7852,124.712 49.5,126.5C 41.7981,126.797 37.4648,123.131 36.5,115.5C 37.9613,114.314 39.2946,114.314 40.5,115.5 Z"/></g>
<g><path style="opacity:1" fill="#54c6e8" d="M 169.5,116.5 C 169.834,119.188 169.168,121.521 167.5,123.5C 162.323,124.645 159.323,122.645 158.5,117.5C 159.364,116.312 160.364,115.145 161.5,114C 164.927,112.834 167.593,113.668 169.5,116.5 Z"/></g>
<g><path style="opacity:0.91" fill="#c6e9da" d="M 34.5,110.5 C 35.1667,110.5 35.5,110.833 35.5,111.5C 35.0408,116.52 36.0408,121.187 38.5,125.5C 37.8333,125.5 37.1667,125.5 36.5,125.5C 35.4415,124.4 34.6082,123.066 34,121.5C 33.1901,117.642 33.3567,113.976 34.5,110.5 Z"/></g>
<g><path style="opacity:0.999" fill="#fbad25" d="M 67.5,114.5 C 67.5,116.5 67.5,118.5 67.5,120.5C 67.5,120.833 67.5,121.167 67.5,121.5C 63.905,124.755 60.2384,128.088 56.5,131.5C 56.5,129.5 56.5,127.5 56.5,125.5C 56.5,125.167 56.5,124.833 56.5,124.5C 60.1667,121.167 63.8333,117.833 67.5,114.5 Z"/></g>
<g><path style="opacity:1" fill="#d7354f" d="M 110.5,120.5 C 112.5,122.5 114.5,124.5 116.5,126.5C 115.738,128.262 114.404,129.262 112.5,129.5C 110.367,127.909 108.701,125.909 107.5,123.5C 108.5,123.5 109.5,123.5 110.5,123.5C 110.5,122.5 110.5,121.5 110.5,120.5 Z"/></g>
<g><path style="opacity:0.122" fill="#574b41" d="M 75.5,111.5 C 75.8333,111.5 76.1667,111.5 76.5,111.5C 76.5,113.5 76.5,115.5 76.5,117.5C 76.1796,120.898 76.513,124.232 77.5,127.5C 78.5178,126.807 79.5178,126.141 80.5,125.5C 80.5,127.833 80.5,130.167 80.5,132.5C 80.1667,132.5 79.8333,132.5 79.5,132.5C 78.9366,128.777 77.6033,128.111 75.5,130.5C 75.5,126.833 75.5,123.167 75.5,119.5C 75.5,117.167 75.5,114.833 75.5,112.5C 75.5,112.167 75.5,111.833 75.5,111.5 Z"/></g>
<g><path style="opacity:1" fill="#2f9ad1" d="M 95.5,121.5 C 100.051,123.046 103.384,126.046 105.5,130.5C 105.672,131.492 105.338,132.158 104.5,132.5C 104.167,132.5 103.833,132.5 103.5,132.5C 99.6616,130.006 96.9949,126.673 95.5,122.5C 95.5,122.167 95.5,121.833 95.5,121.5 Z"/></g>
<g><path style="opacity:1" fill="#f9c35f" d="M 126.5,125.5 C 126.631,126.239 126.464,126.906 126,127.5C 124.698,128.085 123.531,128.751 122.5,129.5C 120.833,128.167 119.167,126.833 117.5,125.5C 117.443,124.391 117.11,123.391 116.5,122.5C 117.566,121.308 118.399,121.641 119,123.5C 119.388,122.572 120.055,121.905 121,121.5C 122.981,122.65 124.814,123.984 126.5,125.5 Z"/></g>
<g><path style="opacity:0.992" fill="#aec4ba" d="M 172.5,113.5 C 175.994,119.868 174.328,124.535 167.5,127.5C 166.646,126.368 166.646,125.035 167.5,123.5C 169.168,121.521 169.834,119.188 169.5,116.5C 170.181,118.158 171.015,119.825 172,121.5C 172.497,118.854 172.664,116.187 172.5,113.5 Z"/></g>
<g><path style="opacity:1" fill="#ce611c" d="M 75.5,119.5 C 75.5,123.167 75.5,126.833 75.5,130.5C 74.8333,131.833 73.8333,132.833 72.5,133.5C 72.7678,131.901 72.4345,130.568 71.5,129.5C 70.5,127.833 69.1667,126.5 67.5,125.5C 67.5,124.167 67.5,122.833 67.5,121.5C 67.5,121.167 67.5,120.833 67.5,120.5C 68.8149,121.476 70.1482,122.476 71.5,123.5C 72.5213,121.812 73.8546,120.479 75.5,119.5 Z"/></g>
<g><path style="opacity:1" fill="#c3e1d3" d="M 36.5,125.5 C 37.1667,125.5 37.8333,125.5 38.5,125.5C 41.8892,127.22 45.5559,127.887 49.5,127.5C 49.5,128.833 49.5,130.167 49.5,131.5C 47.5,131.5 45.5,131.5 43.5,131.5C 42.8333,131.5 42.1667,131.5 41.5,131.5C 40.8333,130.833 40.1667,130.167 39.5,129.5C 38.5,128.167 37.5,126.833 36.5,125.5 Z"/></g>
<g><path style="opacity:1" fill="#3c6a85" d="M 95.5,122.5 C 96.9949,126.673 99.6616,130.006 103.5,132.5C 101.274,133.756 98.941,133.756 96.5,132.5C 94.1496,130.787 93.1496,128.453 93.5,125.5C 93.427,123.973 94.0937,122.973 95.5,122.5 Z"/></g>
<g><path style="opacity:0.727" fill="#1b4366" d="M 105.5,122.5 C 106.167,122.5 106.5,122.833 106.5,123.5C 106.802,126.059 106.468,128.393 105.5,130.5C 103.384,126.046 100.051,123.046 95.5,121.5C 95.5,121.167 95.5,120.833 95.5,120.5C 99.1663,119.273 102.5,119.939 105.5,122.5 Z"/></g>
<g><path style="opacity:1" fill="#f9c460" d="M 144.5,125.5 C 146.167,126.5 147.5,127.833 148.5,129.5C 147.167,130.833 145.833,132.167 144.5,133.5C 142.367,131.909 140.701,129.909 139.5,127.5C 139.811,126.522 140.478,125.855 141.5,125.5C 142.527,126.791 143.527,126.791 144.5,125.5 Z"/></g>
<g><path style="opacity:1" fill="#f5b627" d="M 89.5,123.5 C 90.8333,124.167 92.1667,124.833 93.5,125.5C 93.1496,128.453 94.1496,130.787 96.5,132.5C 95.7784,132.918 95.2784,133.584 95,134.5C 94.2496,133.874 93.4162,133.374 92.5,133C 92.8333,132.667 93.1667,132.333 93.5,132C 92.2068,131.51 90.8734,131.343 89.5,131.5C 89.5,128.833 89.5,126.167 89.5,123.5 Z"/></g>
<g><path style="opacity:1" fill="#f6c363" d="M 126.5,125.5 C 127.167,125.833 127.833,126.167 128.5,126.5C 129.167,126.5 129.5,126.833 129.5,127.5C 129.5,128.167 129.5,128.833 129.5,129.5C 127.404,128.396 126.404,129.23 126.5,132C 127.378,133.8 128.045,135.633 128.5,137.5C 126.5,135.5 124.5,133.5 122.5,131.5C 122.5,130.833 122.5,130.167 122.5,129.5C 123.531,128.751 124.698,128.085 126,127.5C 126.464,126.906 126.631,126.239 126.5,125.5 Z"/></g>
<g><path style="opacity:1" fill="#f3e3b9" d="M 67.5,121.5 C 67.5,122.833 67.5,124.167 67.5,125.5C 65.205,128.297 62.705,130.964 60,133.5C 59.6667,134.833 59.3333,136.167 59,137.5C 58.3292,138.252 57.4959,138.586 56.5,138.5C 56.5,136.5 56.5,134.5 56.5,132.5C 56.5,132.167 56.5,131.833 56.5,131.5C 60.2384,128.088 63.905,124.755 67.5,121.5 Z"/></g>
<g><path style="opacity:1" fill="#fa573e" d="M 133.5,121.5 C 135.861,123.194 137.861,125.194 139.5,127.5C 140.701,129.909 142.367,131.909 144.5,133.5C 145.026,135.23 146.026,136.564 147.5,137.5C 150.167,138.833 150.167,140.167 147.5,141.5C 143.177,135.845 138.51,130.512 133.5,125.5C 132.314,124.039 132.314,122.705 133.5,121.5 Z"/></g>
<g><path style="opacity:1" fill="#943424" d="M 146.5,114.5 C 147.855,117.855 150.189,120.189 153.5,121.5C 153.5,125.833 153.5,130.167 153.5,134.5C 152.833,134.167 152.167,133.833 151.5,133.5C 151.167,132.833 150.833,132.167 150.5,131.5C 149.829,130.153 149.829,128.986 150.5,128C 148.651,126.907 146.984,125.574 145.5,124C 146.056,123.617 146.389,123.117 146.5,122.5C 148.463,123.96 150.296,125.627 152,127.5C 152.167,126.833 152.333,126.167 152.5,125.5C 150.611,123.087 148.444,120.754 146,118.5C 145.235,116.934 145.402,115.601 146.5,114.5 Z"/></g>
<g><path style="opacity:1" fill="#f88b10" d="M 67.5,125.5 C 69.1667,126.5 70.5,127.833 71.5,129.5C 67.8333,132.5 64.5,135.833 61.5,139.5C 59.8333,140.833 58.1667,142.167 56.5,143.5C 56.5,142.167 56.5,140.833 56.5,139.5C 56.5,139.167 56.5,138.833 56.5,138.5C 57.4959,138.586 58.3292,138.252 59,137.5C 59.3333,136.167 59.6667,134.833 60,133.5C 62.705,130.964 65.205,128.297 67.5,125.5 Z"/></g>
<g><path style="opacity:1" fill="#f8c765" d="M 129.5,129.5 C 130.5,130.167 131.5,130.833 132.5,131.5C 132.5,132.167 132.833,132.5 133.5,132.5C 133.738,134.404 134.738,135.738 136.5,136.5C 136.5,137.167 136.833,137.5 137.5,137.5C 137.733,139.062 138.4,140.395 139.5,141.5C 139.5,141.833 139.5,142.167 139.5,142.5C 138.185,143.476 136.852,144.476 135.5,145.5C 132.427,143.431 130.094,140.764 128.5,137.5C 128.045,135.633 127.378,133.8 126.5,132C 126.404,129.23 127.404,128.396 129.5,129.5 Z"/></g>
<g><path style="opacity:1" fill="#e13851" d="M 133.5,125.5 C 138.51,130.512 143.177,135.845 147.5,141.5C 147.5,141.833 147.5,142.167 147.5,142.5C 146.596,143.209 146.263,144.209 146.5,145.5C 145.833,145.5 145.167,145.5 144.5,145.5C 143.833,144.167 142.833,143.167 141.5,142.5C 141.5,141.833 141.167,141.5 140.5,141.5C 140.262,139.596 139.262,138.262 137.5,137.5C 136.833,137.5 136.5,137.167 136.5,136.5C 136.262,134.596 135.262,133.262 133.5,132.5C 132.833,132.5 132.5,132.167 132.5,131.5C 132.267,129.938 131.6,128.605 130.5,127.5C 131.778,127.218 132.778,126.551 133.5,125.5 Z"/></g>
<g><path style="opacity:1" fill="#f18312" d="M 56.5,125.5 C 56.5,127.5 56.5,129.5 56.5,131.5C 56.5,131.833 56.5,132.167 56.5,132.5C 54.7541,134.252 52.7541,135.585 50.5,136.5C 50.5,134.5 50.5,132.5 50.5,130.5C 52.5,128.833 54.5,127.167 56.5,125.5 Z"/></g>
<g><path style="opacity:1" fill="#852644" d="M 117.5,125.5 C 119.167,126.833 120.833,128.167 122.5,129.5C 122.5,130.167 122.5,130.833 122.5,131.5C 122.167,132.167 121.833,132.833 121.5,133.5C 119.738,134.262 118.738,135.596 118.5,137.5C 116.122,135.122 114.122,132.455 112.5,129.5C 114.404,129.262 115.738,128.262 116.5,126.5C 117.167,126.5 117.5,126.167 117.5,125.5 Z"/></g>
<g><path style="opacity:1" fill="#f9c45b" d="M 148.5,129.5 C 148.833,130.5 149.5,131.167 150.5,131.5C 150.833,132.167 151.167,132.833 151.5,133.5C 150.598,135.341 149.264,136.674 147.5,137.5C 146.026,136.564 145.026,135.23 144.5,133.5C 145.833,132.167 147.167,130.833 148.5,129.5 Z"/></g>
<g><path style="opacity:0.74" fill="#6d7987" d="M 173.5,126.5 C 174.995,126.415 175.995,127.081 176.5,128.5C 171.159,135.331 164.159,137.998 155.5,136.5C 155.5,135.167 155.5,133.833 155.5,132.5C 162.619,133.461 168.619,131.461 173.5,126.5 Z"/></g>
<g><path style="opacity:0.984" fill="#e04a4a" d="M 30.5,131.5 C 31.552,131.351 32.552,131.517 33.5,132C 37.0416,135.71 40.7083,139.21 44.5,142.5C 37.0222,142.714 32.3555,139.047 30.5,131.5 Z"/></g>
<g><path style="opacity:0.999" fill="#e9ad27" d="M 71.5,129.5 C 72.4345,130.568 72.7678,131.901 72.5,133.5C 70.1667,136.5 67.5,139.167 64.5,141.5C 64.1788,139.952 63.1788,139.285 61.5,139.5C 64.5,135.833 67.8333,132.5 71.5,129.5 Z"/></g>
<g><path style="opacity:1" fill="#edb036" d="M 88.5,122.5 C 89.1667,122.5 89.5,122.833 89.5,123.5C 89.5,126.167 89.5,128.833 89.5,131.5C 90.8734,131.343 92.2068,131.51 93.5,132C 93.1667,132.333 92.8333,132.667 92.5,133C 93.4162,133.374 94.2496,133.874 95,134.5C 95.2784,133.584 95.7784,132.918 96.5,132.5C 98.941,133.756 101.274,133.756 103.5,132.5C 103.833,132.5 104.167,132.5 104.5,132.5C 105.237,134.305 106.237,135.971 107.5,137.5C 98.5503,140.434 92.0503,137.767 88,129.5C 87.2042,126.961 87.3709,124.628 88.5,122.5 Z"/></g>
<g><path style="opacity:1" fill="#d43650" d="M 121.5,133.5 C 122.925,134.922 123.925,136.589 124.5,138.5C 124.423,139.75 123.756,140.583 122.5,141C 123.672,141.419 124.672,142.085 125.5,143C 124.829,143.986 124.829,145.153 125.5,146.5C 122.815,143.81 120.482,140.81 118.5,137.5C 118.738,135.596 119.738,134.262 121.5,133.5 Z"/></g>
<g><path style="opacity:1" fill="#1c354d" d="M 41.5,131.5 C 42.1667,131.5 42.8333,131.5 43.5,131.5C 45.2193,134.219 47.5526,136.219 50.5,137.5C 50.5,138.833 50.5,140.167 50.5,141.5C 46.9964,140.188 43.8298,138.188 41,135.5C 40.5,134.5 40,133.5 39.5,132.5C 39.9569,131.702 40.6236,131.369 41.5,131.5 Z"/></g>
<g><path style="opacity:1" fill="#69d1e5" d="M 79.5,132.5 C 79.8333,132.5 80.1667,132.5 80.5,132.5C 80.5,134.5 80.5,136.5 80.5,138.5C 77.5,141.167 74.5,143.833 71.5,146.5C 70.8333,146.167 70.1667,145.833 69.5,145.5C 69.1667,144.833 68.8333,144.167 68.5,143.5C 71.8062,139.527 75.4729,135.86 79.5,132.5 Z"/></g>
<g><path style="opacity:1" fill="#c7e9d5" d="M 92.5,140.5 C 91.5116,141.795 90.5116,143.128 89.5,144.5C 84.4249,144.82 82.5915,142.486 84,137.5C 88.2157,134.431 91.049,135.431 92.5,140.5 Z"/></g>
<g><path style="opacity:1" fill="#486b83" d="M 56.5,132.5 C 56.5,134.5 56.5,136.5 56.5,138.5C 56.5,138.833 56.5,139.167 56.5,139.5C 54.7028,140.73 52.7028,141.396 50.5,141.5C 50.5,140.167 50.5,138.833 50.5,137.5C 50.5,137.167 50.5,136.833 50.5,136.5C 52.7541,135.585 54.7541,134.252 56.5,132.5 Z"/></g>
<g><path style="opacity:1" fill="#ec831a" d="M 151.5,133.5 C 152.167,133.833 152.833,134.167 153.5,134.5C 153.5,138.5 153.5,142.5 153.5,146.5C 151.223,145.551 149.223,144.218 147.5,142.5C 147.5,142.167 147.5,141.833 147.5,141.5C 150.167,140.167 150.167,138.833 147.5,137.5C 149.264,136.674 150.598,135.341 151.5,133.5 Z"/></g>
<g><path style="opacity:0.555" fill="#717c8a" d="M 92.5,140.5 C 97.8437,140.334 103.177,140.501 108.5,141C 112.633,143.306 114.3,146.806 113.5,151.5C 112.448,151.649 111.448,151.483 110.5,151C 109.891,148.49 108.558,146.49 106.5,145C 100.843,144.501 95.1764,144.334 89.5,144.5C 90.5116,143.128 91.5116,141.795 92.5,140.5 Z"/></g>
<g><path style="opacity:1" fill="#e1e3da" d="M 162.5,138.5 C 168.332,139.818 168.832,142.151 164,145.5C 160.056,143.845 159.556,141.512 162.5,138.5 Z"/></g>
<g><path style="opacity:1" fill="#ced6c9" d="M 169.5,137.5 C 173.724,137.052 175.391,138.719 174.5,142.5C 169.134,144.468 167.468,142.801 169.5,137.5 Z"/></g>
<g><path style="opacity:1" fill="#f96250" d="M 122.5,131.5 C 124.5,133.5 126.5,135.5 128.5,137.5C 130.094,140.764 132.427,143.431 135.5,145.5C 136.852,144.476 138.185,143.476 139.5,142.5C 139.5,145.167 139.5,147.833 139.5,150.5C 138.185,149.524 136.852,148.524 135.5,147.5C 134.583,148.127 133.583,148.461 132.5,148.5C 130.312,144.793 127.645,141.46 124.5,138.5C 123.925,136.589 122.925,134.922 121.5,133.5C 121.833,132.833 122.167,132.167 122.5,131.5 Z"/></g>
<g><path style="opacity:1" fill="#2f92c3" d="M 80.5,138.5 C 80.5,140.5 80.5,142.5 80.5,144.5C 77.8851,145.45 75.8851,147.117 74.5,149.5C 73.1667,148.833 72.1667,147.833 71.5,146.5C 74.5,143.833 77.5,141.167 80.5,138.5 Z"/></g>
<g><path style="opacity:1" fill="#e87b09" d="M 56.5,139.5 C 56.5,140.833 56.5,142.167 56.5,143.5C 54.2279,147.046 52.2279,150.713 50.5,154.5C 50.5,150.167 50.5,145.833 50.5,141.5C 52.7028,141.396 54.7028,140.73 56.5,139.5 Z"/></g>
<g><path style="opacity:0.999" fill="#dba023" d="M 61.5,139.5 C 63.1788,139.285 64.1788,139.952 64.5,141.5C 60.3367,145.831 56.3367,150.331 52.5,155C 51.5632,155.692 50.8966,155.525 50.5,154.5C 52.2279,150.713 54.2279,147.046 56.5,143.5C 58.1667,142.167 59.8333,140.833 61.5,139.5 Z"/></g>
<g><path style="opacity:1" fill="#284b68" d="M 121.5,148.5 C 119.801,148.527 118.467,149.194 117.5,150.5C 115.022,147.671 114.022,144.338 114.5,140.5C 115.978,140.238 117.311,140.571 118.5,141.5C 119.054,144.087 120.054,146.42 121.5,148.5 Z"/></g>
<g><path style="opacity:1" fill="#dd354f" d="M 124.5,138.5 C 127.645,141.46 130.312,144.793 132.5,148.5C 132.5,148.833 132.5,149.167 132.5,149.5C 132.027,150.906 131.027,151.573 129.5,151.5C 127.937,150.055 126.604,148.389 125.5,146.5C 124.829,145.153 124.829,143.986 125.5,143C 124.672,142.085 123.672,141.419 122.5,141C 123.756,140.583 124.423,139.75 124.5,138.5 Z"/></g>
<g><path style="opacity:0.999" fill="#f7e7da" d="M 139.5,141.5 C 139.833,141.5 140.167,141.5 140.5,141.5C 141.167,141.5 141.5,141.833 141.5,142.5C 141.738,144.404 142.738,145.738 144.5,146.5C 144.5,147.167 144.833,147.5 145.5,147.5C 145.5,148.167 145.5,148.833 145.5,149.5C 143.833,150.5 142.5,151.833 141.5,153.5C 140.094,153.027 139.427,152.027 139.5,150.5C 139.5,147.833 139.5,145.167 139.5,142.5C 139.5,142.167 139.5,141.833 139.5,141.5 Z"/></g>
<g><path style="opacity:1" fill="#90cebe" d="M 80.5,144.5 C 80.6633,146.857 80.4966,149.19 80,151.5C 79.2917,152.381 78.4584,153.047 77.5,153.5C 76.5,152.167 75.5,150.833 74.5,149.5C 75.8851,147.117 77.8851,145.45 80.5,144.5 Z"/></g>
<g><path style="opacity:1" fill="#71b2d8" d="M 40.5,148.5 C 44.2736,146.568 46.6069,147.735 47.5,152C 47.472,153.07 47.1386,153.903 46.5,154.5C 44.8333,154.5 43.1667,154.5 41.5,154.5C 41.2865,152.856 41.6198,151.356 42.5,150C 41.9558,149.283 41.2891,148.783 40.5,148.5 Z"/></g>
<g><path style="opacity:1" fill="#ba4324" d="M 147.5,142.5 C 149.223,144.218 151.223,145.551 153.5,146.5C 153.5,148.5 153.5,150.5 153.5,152.5C 150.189,151.189 147.855,148.855 146.5,145.5C 146.263,144.209 146.596,143.209 147.5,142.5 Z"/></g>
<g><path style="opacity:0.42" fill="#c56725" d="M 155.5,138.5 C 156.5,138.5 157.5,138.5 158.5,138.5C 158.5,143.167 158.5,147.833 158.5,152.5C 157.5,152.5 156.5,152.5 155.5,152.5C 155.5,147.833 155.5,143.167 155.5,138.5 Z"/></g>
<g><path style="opacity:1" fill="#dce2d5" d="M 162.5,146.5 C 167.493,146.997 168.493,149.164 165.5,153C 160.382,152.824 159.382,150.658 162.5,146.5 Z"/></g>
<g><path style="opacity:1" fill="#eeefe5" d="M 100.5,147.5 C 102.833,147.5 105.167,147.5 107.5,147.5C 107.5,148.5 107.5,149.5 107.5,150.5C 105.473,150.662 103.473,150.495 101.5,150C 100.748,149.329 100.414,148.496 100.5,147.5 Z"/></g>
<g><path style="opacity:1" fill="#2c5979" d="M 40.5,148.5 C 41.2891,148.783 41.9558,149.283 42.5,150C 41.6198,151.356 41.2865,152.856 41.5,154.5C 43.1667,154.5 44.8333,154.5 46.5,154.5C 44.7365,157.965 42.4031,158.299 39.5,155.5C 37.9215,152.75 38.2549,150.417 40.5,148.5 Z"/></g>
<g><path style="opacity:0.996" fill="#49b8e2" d="M 68.5,143.5 C 68.8333,144.167 69.1667,144.833 69.5,145.5C 69.4142,146.496 69.7476,147.329 70.5,148C 67.9614,150.37 65.6281,152.87 63.5,155.5C 62.8333,154.167 62.1667,152.833 61.5,151.5C 63.8623,148.808 66.1956,146.141 68.5,143.5 Z"/></g>
<g><path style="opacity:0.996" fill="#742a28" d="M 144.5,146.5 C 144.5,146.167 144.5,145.833 144.5,145.5C 145.167,145.5 145.833,145.5 146.5,145.5C 147.855,148.855 150.189,151.189 153.5,152.5C 153.5,154.167 153.5,155.833 153.5,157.5C 152.833,157.5 152.167,157.5 151.5,157.5C 149.984,154.467 147.984,151.8 145.5,149.5C 145.5,148.833 145.5,148.167 145.5,147.5C 144.833,147.5 144.5,147.167 144.5,146.5 Z"/></g>
<g><path style="opacity:0.996" fill="#1e4661" d="M 69.5,145.5 C 70.1667,145.833 70.8333,146.167 71.5,146.5C 72.1667,147.833 73.1667,148.833 74.5,149.5C 75.5,150.833 76.5,152.167 77.5,153.5C 77.5,154.167 77.1667,154.5 76.5,154.5C 75.8549,153.188 74.8549,152.188 73.5,151.5C 71.4807,153.19 69.4807,154.856 67.5,156.5C 66.8333,156.5 66.5,156.833 66.5,157.5C 64.8612,157.926 63.5279,157.926 62.5,157.5C 62.8333,156.833 63.1667,156.167 63.5,155.5C 65.6281,152.87 67.9614,150.37 70.5,148C 69.7476,147.329 69.4142,146.496 69.5,145.5 Z"/></g>
<g><path style="opacity:1" fill="#e57970" d="M 95.5,148.5 C 96.9187,147.549 98.5853,147.216 100.5,147.5C 100.414,148.496 100.748,149.329 101.5,150C 103.473,150.495 105.473,150.662 107.5,150.5C 107.539,153.089 106.539,155.089 104.5,156.5C 101.532,153.87 98.5322,151.203 95.5,148.5 Z"/></g>
<g><path style="opacity:1" fill="#42a1ca" d="M 121.5,148.5 C 124.239,151.233 126.573,154.233 128.5,157.5C 126.852,156.19 125.186,154.857 123.5,153.5C 122.702,153.957 122.369,154.624 122.5,155.5C 120.5,154.167 118.833,152.5 117.5,150.5C 118.467,149.194 119.801,148.527 121.5,148.5 Z"/></g>
<g><path style="opacity:1" fill="#f8736c" d="M 145.5,149.5 C 147.984,151.8 149.984,154.467 151.5,157.5C 149.274,155.078 146.94,155.078 144.5,157.5C 143.512,156.205 142.512,154.872 141.5,153.5C 142.5,151.833 143.833,150.5 145.5,149.5 Z"/></g>
<g><path style="opacity:1" fill="#ec4748" d="M 95.5,148.5 C 98.5322,151.203 101.532,153.87 104.5,156.5C 97.8324,158.172 94.8324,155.506 95.5,148.5 Z"/></g>
<g><path style="opacity:1" fill="#ea625c" d="M 113.5,151.5 C 114.117,151.389 114.617,151.056 115,150.5C 116.977,153.312 119.144,155.978 121.5,158.5C 117.5,159.833 113.5,159.833 109.5,158.5C 111.616,156.6 112.949,154.267 113.5,151.5 Z"/></g>
<g><path style="opacity:1" fill="#c7334b" d="M 139.5,150.5 C 139.427,152.027 140.094,153.027 141.5,153.5C 142.512,154.872 143.512,156.205 144.5,157.5C 145.861,159.527 147.527,161.194 149.5,162.5C 147.801,162.66 146.134,162.494 144.5,162C 140.92,157.257 136.92,153.091 132.5,149.5C 132.5,149.167 132.5,148.833 132.5,148.5C 133.583,148.461 134.583,148.127 135.5,147.5C 136.852,148.524 138.185,149.524 139.5,150.5 Z"/></g>
<g><path style="opacity:0.999" fill="#64c9de" d="M 76.5,154.5 C 74.1002,157.903 71.1002,160.57 67.5,162.5C 65.5853,162.784 63.9187,162.451 62.5,161.5C 61.3215,159.493 61.8215,159.16 64,160.5C 65.045,159.627 65.8783,158.627 66.5,157.5C 67.1667,157.5 67.5,157.167 67.5,156.5C 69.4807,154.856 71.4807,153.19 73.5,151.5C 74.8549,152.188 75.8549,153.188 76.5,154.5 Z"/></g>
<g><path style="opacity:1" fill="#7a2541" d="M 132.5,149.5 C 136.92,153.091 140.92,157.257 144.5,162C 146.134,162.494 147.801,162.66 149.5,162.5C 150.5,162.5 151.5,162.5 152.5,162.5C 147.926,163.835 143.26,163.668 138.5,162C 134.974,158.973 131.974,155.473 129.5,151.5C 131.027,151.573 132.027,150.906 132.5,149.5 Z"/></g>
<g><path style="opacity:1" fill="#cd364a" d="M 86.5,147.5 C 86.2366,159.903 92.2366,165.903 104.5,165.5C 102.902,167.569 100.735,168.569 98,168.5C 94.3767,168.101 91.21,166.768 88.5,164.5C 88.5,164.167 88.5,163.833 88.5,163.5C 88.5,162.833 88.1667,162.5 87.5,162.5C 84.0067,158.153 82.6734,153.153 83.5,147.5C 84.5,147.5 85.5,147.5 86.5,147.5 Z"/></g>
<g><path style="opacity:1" fill="#eb8b29" d="M 86.5,147.5 C 87.8333,147.5 89.1667,147.5 90.5,147.5C 90.0503,158.511 95.217,163.177 106,161.5C 107.585,163.201 107.085,164.535 104.5,165.5C 92.2366,165.903 86.2366,159.903 86.5,147.5 Z"/></g>
<g><path style="opacity:1" fill="#fa7371" d="M 151.5,157.5 C 152.167,157.5 152.833,157.5 153.5,157.5C 153.784,159.415 153.451,161.081 152.5,162.5C 151.5,162.5 150.5,162.5 149.5,162.5C 147.527,161.194 145.861,159.527 144.5,157.5C 146.94,155.078 149.274,155.078 151.5,157.5 Z"/></g>
<g><path style="opacity:0.996" fill="#2b5f7f" d="M 61.5,151.5 C 62.1667,152.833 62.8333,154.167 63.5,155.5C 63.1667,156.167 62.8333,156.833 62.5,157.5C 60.8333,158.5 59.5,159.833 58.5,161.5C 57.8333,161.5 57.5,161.833 57.5,162.5C 55.2646,162.795 53.2646,162.461 51.5,161.5C 54.8333,158.167 58.1667,154.833 61.5,151.5 Z"/></g>
<g><path style="opacity:0.494" fill="#d99b44" d="M 158.5,154.5 C 163.561,156.509 163.727,158.843 159,161.5C 155.887,159.324 155.72,156.991 158.5,154.5 Z"/></g>
<g><path style="opacity:0.973" fill="#de5758" d="M 75.5,164.5 C 73.5,164.833 71.5,165.167 69.5,165.5C 72.8113,161.853 76.1446,158.187 79.5,154.5C 81.5006,159.147 80.1673,162.481 75.5,164.5 Z"/></g>
<g><path style="opacity:1" fill="#58b5dc" d="M 128.5,157.5 C 131.192,159.862 133.859,162.196 136.5,164.5C 134.901,164.232 133.568,164.566 132.5,165.5C 128.188,163.188 124.855,159.855 122.5,155.5C 122.369,154.624 122.702,153.957 123.5,153.5C 125.186,154.857 126.852,156.19 128.5,157.5 Z"/></g>
<g><path style="opacity:0.991" fill="#0c1e33" d="M 51.5,161.5 C 53.2646,162.461 55.2646,162.795 57.5,162.5C 58.1667,162.5 58.5,162.167 58.5,161.5C 59.8333,161.5 61.1667,161.5 62.5,161.5C 63.9187,162.451 65.5853,162.784 67.5,162.5C 66.0028,163.306 64.3361,163.972 62.5,164.5C 61.914,164.291 61.414,163.957 61,163.5C 60.7679,164.737 60.2679,165.737 59.5,166.5C 56.8571,166.685 54.1904,166.019 51.5,164.5C 50.375,163.348 50.375,162.348 51.5,161.5 Z"/></g>
<g><path style="opacity:0.976" fill="#f2d995" d="M 110.5,167.5 C 108.565,168.15 106.565,168.483 104.5,168.5C 106.605,165.223 109.439,162.89 113,161.5C 113.833,161.833 114.667,162.167 115.5,162.5C 114.145,164.521 112.479,166.188 110.5,167.5 Z"/></g>
<g><path style="opacity:0.988" fill="#24425c" d="M 51.5,164.5 C 54.1904,166.019 56.8571,166.685 59.5,166.5C 59.4894,168.017 58.8228,169.184 57.5,170C 56.0654,169.689 54.7321,169.855 53.5,170.5C 51.0465,168.958 50.3799,166.958 51.5,164.5 Z"/></g>
<g><path style="opacity:1" fill="#e45c50" d="M 123.5,161.5 C 130.167,164.5 130.167,167.5 123.5,170.5C 123.631,169.761 123.464,169.094 123,168.5C 122.184,169.823 121.017,170.489 119.5,170.5C 121.294,168.203 123.294,166.037 125.5,164C 124.552,163.517 123.552,163.351 122.5,163.5C 122.833,162.833 123.167,162.167 123.5,161.5 Z"/></g>
<g><path style="opacity:0.957" fill="#d14e56" d="M 75.5,164.5 C 73.214,168.471 69.8807,170.804 65.5,171.5C 65.6225,168.708 66.9558,166.708 69.5,165.5C 71.5,165.167 73.5,164.833 75.5,164.5 Z"/></g>
<g><path style="opacity:1" fill="#40a9d6" d="M 87.5,162.5 C 88.1667,162.5 88.5,162.833 88.5,163.5C 88.5,163.833 88.5,164.167 88.5,164.5C 90.229,168.277 89.229,170.943 85.5,172.5C 81.807,171.753 81.807,170.42 85.5,168.5C 84.4825,167.148 83.1492,166.148 81.5,165.5C 80.8728,164.583 80.5394,163.583 80.5,162.5C 82.7922,161.314 85.1256,161.314 87.5,162.5 Z"/></g>
<g><path style="opacity:1" fill="#40bce7" d="M 136.5,164.5 C 137.833,164.833 139.167,165.167 140.5,165.5C 141.248,167.332 142.248,168.999 143.5,170.5C 139.164,170.163 135.497,168.496 132.5,165.5C 133.568,164.566 134.901,164.232 136.5,164.5 Z"/></g>
<g><path style="opacity:1" fill="#3088be" d="M 143.5,170.5 C 142.248,168.999 141.248,167.332 140.5,165.5C 144.743,165.061 149.076,165.061 153.5,165.5C 153.5,167.5 153.5,169.5 153.5,171.5C 150.098,171.658 146.764,171.324 143.5,170.5 Z"/></g>
<g><path style="opacity:1" fill="#e4341e" d="M 122.5,163.5 C 123.552,163.351 124.552,163.517 125.5,164C 123.294,166.037 121.294,168.203 119.5,170.5C 117.637,172.705 115.303,174.039 112.5,174.5C 115.123,170.209 118.456,166.543 122.5,163.5 Z"/></g>
<g><path style="opacity:1" fill="#2275b1" d="M 80.5,162.5 C 80.5394,163.583 80.8728,164.583 81.5,165.5C 83.1492,166.148 84.4825,167.148 85.5,168.5C 81.807,170.42 81.807,171.753 85.5,172.5C 81.1486,173.978 78.482,172.311 77.5,167.5C 77.7573,165.308 78.7573,163.641 80.5,162.5 Z"/></g>
<g><path style="opacity:1" fill="#e68c22" d="M 110.5,167.5 C 108.066,171.106 104.9,173.772 101,175.5C 100.167,175.167 99.3333,174.833 98.5,174.5C 100.188,172.146 102.188,170.146 104.5,168.5C 106.565,168.483 108.565,168.15 110.5,167.5 Z"/></g>
<g><path style="opacity:0.894" fill="#e19b3f" d="M 128.5,168.5 C 129.833,168.5 131.167,168.5 132.5,168.5C 132.672,173.75 131.005,174.583 127.5,171C 127.743,170.098 128.077,169.265 128.5,168.5 Z"/></g>
<g><path style="opacity:0.965" fill="#c08d2b" d="M 92.5,171.5 C 93.8333,171.5 95.1667,171.5 96.5,171.5C 96.5,172.5 96.5,173.5 96.5,174.5C 94.0274,174.912 92.6941,173.912 92.5,171.5 Z"/></g>
<g><path style="opacity:1" fill="#f19924" d="M 123.5,161.5 C 123.167,162.167 122.833,162.833 122.5,163.5C 118.456,166.543 115.123,170.209 112.5,174.5C 111.833,174.5 111.5,174.833 111.5,175.5C 109.712,175.785 108.045,175.452 106.5,174.5C 110.985,170.515 115.318,166.349 119.5,162C 120.793,161.51 122.127,161.343 123.5,161.5 Z"/></g>
<g><path style="opacity:1" fill="#e8685b" d="M 123.5,170.5 C 122.977,172.708 121.644,174.208 119.5,175C 116.854,175.497 114.187,175.664 111.5,175.5C 111.5,174.833 111.833,174.5 112.5,174.5C 115.303,174.039 117.637,172.705 119.5,170.5C 121.017,170.489 122.184,169.823 123,168.5C 123.464,169.094 123.631,169.761 123.5,170.5 Z"/></g>
</svg>
