<svg width="196" height="42" viewBox="0 0 196 42" fill="none" xmlns="http://www.w3.org/2000/svg">
<g clip-path="url(#clip0_622_1165)">
<path d="M176.344 35.1103V6.67432H182.667V18.1814C184.042 16.5763 185.944 15.7738 188.374 15.7738C190.764 15.7738 192.627 16.5068 193.964 17.9729C195.301 19.4389 195.969 21.4799 195.969 24.0961V35.1103H189.646V25.7833C189.646 24.3678 189.344 23.2746 188.74 22.5036C188.149 21.7201 187.307 21.3283 186.214 21.3283C185.096 21.3283 184.222 21.7201 183.593 22.5036C182.976 23.2872 182.667 24.3804 182.667 25.7833V35.1103H176.344Z" fill="white"/>
<path d="M173.673 32.0015C172.734 33.0883 171.571 33.9412 170.183 34.5606C168.795 35.1799 167.259 35.4895 165.576 35.4895C163.571 35.4895 161.778 35.066 160.197 34.2194C158.629 33.3598 157.396 32.191 156.496 30.7124C155.596 29.2208 155.146 27.5275 155.146 25.6317C155.146 23.736 155.596 22.0488 156.496 20.5701C157.396 19.0788 158.629 17.9098 160.197 17.063C161.778 16.2036 163.571 15.7739 165.576 15.7739C167.246 15.7739 168.769 16.0836 170.145 16.7028C171.533 17.3095 172.696 18.1436 173.634 19.2052L169.932 23.0535C169.483 22.5227 168.905 22.1057 168.197 21.8023C167.504 21.499 166.777 21.3474 166.019 21.3474C165.171 21.3474 164.413 21.5306 163.744 21.8971C163.089 22.251 162.568 22.7502 162.183 23.3948C161.81 24.0393 161.624 24.7723 161.624 25.5938C161.624 26.4406 161.81 27.1925 162.183 27.8497C162.568 28.4943 163.089 28.9999 163.744 29.3664C164.413 29.7329 165.171 29.9161 166.019 29.9161C166.777 29.9161 167.51 29.7645 168.217 29.461C168.924 29.1578 169.496 28.7407 169.932 28.2099L173.673 32.0015Z" fill="white"/>
<path d="M152.185 33.044C149.782 34.6742 147.166 35.4895 144.339 35.4895C142.205 35.4895 140.284 35.047 138.575 34.1624C136.878 33.2652 135.535 32.0518 134.546 30.5228C133.556 28.9809 133.061 27.2494 133.061 25.3284C133.061 23.4959 133.504 21.8655 134.391 20.4374C135.278 18.9967 136.486 17.8592 138.016 17.0251C139.558 16.191 141.299 15.7739 143.24 15.7739C145.258 15.7739 147.031 16.2352 148.56 17.1578C150.09 18.0804 151.279 19.3632 152.127 21.0061C152.988 22.6365 153.419 24.5322 153.419 26.6933V27.3H139.847C140.078 27.9192 140.425 28.469 140.888 28.9493C141.363 29.4294 141.955 29.8149 142.661 30.1057C143.369 30.3836 144.178 30.5228 145.091 30.5228C146.98 30.5228 148.753 29.9225 150.411 28.7218L152.185 33.044ZM139.577 24.4943H147.597C147.52 23.7865 147.301 23.1609 146.941 22.6175C146.581 22.0741 146.106 21.6507 145.515 21.3474C144.936 21.0441 144.287 20.8924 143.568 20.8924C142.835 20.8924 142.186 21.0567 141.621 21.3853C141.068 21.7012 140.612 22.1309 140.252 22.6744C139.905 23.2052 139.68 23.8118 139.577 24.4943Z" fill="white"/>
<path d="M131.685 34.5985C130.142 35.1925 128.645 35.4897 127.193 35.4897C125.663 35.4897 124.307 35.1735 123.125 34.5418C121.956 33.8971 121.043 33.0125 120.388 31.8877C119.732 30.7503 119.405 29.4296 119.405 27.9256V21.7076H116.031V16.1531H119.752V11.4138H125.728V16.1531H130.933V21.7076H125.728V26.8071C125.728 27.8055 126.011 28.5765 126.576 29.12C127.142 29.6635 127.823 29.935 128.619 29.935C129.391 29.935 130.142 29.6948 130.875 29.2147L131.685 34.5985Z" fill="white"/>
<path d="M114.516 35.1103H108.983L108.655 32.9493C107.948 33.758 107.087 34.3837 106.072 34.8261C105.057 35.2683 103.938 35.4895 102.718 35.4895C101.381 35.4895 100.192 35.2366 99.1511 34.7312C98.1103 34.2257 97.2876 33.5307 96.6836 32.6458C96.0923 31.7486 95.7969 30.7311 95.7969 29.5937C95.7969 28.3932 96.1181 27.3379 96.7608 26.4279C97.4161 25.518 98.3159 24.8039 99.4597 24.2857C100.604 23.7676 101.908 23.5085 103.373 23.5085C104.208 23.5085 105.031 23.597 105.841 23.7739C106.663 23.9508 107.447 24.1973 108.193 24.5132V24.1151C108.193 23.4453 107.987 22.864 107.576 22.3711C107.164 21.8782 106.605 21.4927 105.898 21.2147C105.192 20.924 104.388 20.7787 103.489 20.7787C102.602 20.7787 101.741 20.9177 100.905 21.1957C100.07 21.4611 99.3053 21.8466 98.6114 22.3521L96.9536 17.7076C98.3159 17.063 99.6715 16.5828 101.021 16.2668C102.383 15.9382 103.694 15.7739 104.954 15.7739C106.895 15.7739 108.578 16.1467 110.005 16.8924C111.444 17.6381 112.556 18.6934 113.34 20.0583C114.124 21.4106 114.516 23.0156 114.516 24.8734V35.1103ZM104.144 30.845C104.8 30.845 105.429 30.7061 106.033 30.4279C106.65 30.1374 107.151 29.7582 107.537 29.2904C107.935 28.823 108.141 28.3236 108.154 27.7929V27.717C107.64 27.3884 107.068 27.142 106.438 26.9777C105.808 26.8007 105.179 26.7123 104.549 26.7123C103.611 26.7123 102.859 26.9019 102.294 27.281C101.728 27.6475 101.445 28.1404 101.445 28.7597C101.445 29.1515 101.561 29.5117 101.792 29.8402C102.024 30.1561 102.345 30.4026 102.756 30.5795C103.167 30.7564 103.63 30.845 104.144 30.845Z" fill="white"/>
<path d="M87.2109 35.1103H80.8877V16.1531H86.3818L86.5939 19.281C87.2366 18.1689 88.0911 17.3095 89.158 16.7028C90.2246 16.0836 91.4457 15.7739 92.8206 15.7739C93.2448 15.7739 93.6754 15.8055 94.1124 15.8687C94.5621 15.9319 95.012 16.0267 95.4619 16.1531L94.6908 21.7455C93.7909 21.4674 92.9493 21.3284 92.1653 21.3284C91.1628 21.3284 90.289 21.5433 89.5436 21.973C88.7982 22.4026 88.2198 23.003 87.8085 23.7739C87.4101 24.5448 87.2109 25.4548 87.2109 26.5037V35.1103Z" fill="white"/>
<path d="M70.2155 14.3521C69.4572 13.5812 68.5319 12.9872 67.4396 12.5701C66.3469 12.1405 65.1774 11.9256 63.9309 11.9256C62.697 11.9256 61.5789 12.1341 60.5764 12.5512C59.5741 12.9683 58.7064 13.5686 57.9739 14.3521C57.2543 15.1231 56.6953 16.0456 56.2968 17.1199C55.9113 18.1941 55.7185 19.4011 55.7185 20.7407C55.7185 22.093 55.9241 23.3316 56.3354 24.4564C56.7464 25.5685 57.3248 26.529 58.0705 27.3379C58.8287 28.1341 59.7283 28.7533 60.7691 29.1958C61.8103 29.6379 62.967 29.8591 64.2392 29.8591C65.2417 29.8591 66.1542 29.7202 66.9768 29.442C67.8123 29.1515 68.5448 28.7407 69.1743 28.2099C69.817 27.6665 70.3503 27.0093 70.7745 26.2384C71.2115 25.4674 71.5263 24.5954 71.7191 23.6222H64.0464V18.5417H77.676L77.8688 21.082C77.8688 23.2431 77.5347 25.221 76.8663 27.0156C76.1981 28.7976 75.2471 30.3395 74.0132 31.6413C72.7924 32.9303 71.3335 33.9288 69.6371 34.6365C67.9407 35.3315 66.0579 35.679 63.9888 35.679C61.8425 35.679 59.8438 35.3062 57.9932 34.5605C56.1555 33.8022 54.5425 32.7534 53.1544 31.4137C51.7792 30.074 50.7061 28.5069 49.935 26.7123C49.1639 24.905 48.7783 22.9461 48.7783 20.8355C48.7783 18.7629 49.1574 16.8355 49.9157 15.0536C50.674 13.2589 51.728 11.6918 53.0774 10.3521C54.4398 9.01249 56.0268 7.96985 57.8391 7.22421C59.6639 6.47853 61.6368 6.10571 63.7574 6.10571C65.7493 6.10571 67.6835 6.44695 69.5599 7.12942C71.4365 7.81186 73.1201 8.78502 74.6108 10.0488L70.2155 14.3521Z" fill="white"/>
<path d="M21.4736 18.7885C23.4002 18.7885 24.9619 17.2527 24.9619 15.3582C24.9619 13.4637 23.4002 11.928 21.4736 11.928C19.5471 11.928 17.9854 13.4637 17.9854 15.3582C17.9854 17.2527 19.5471 18.7885 21.4736 18.7885Z" fill="#3C72FC"/>
<path d="M19.0078 17.7806L13.8712 12.7294C12.5081 11.389 12.5081 9.2179 13.8712 7.88124C15.2342 6.54089 17.442 6.54089 18.8013 7.88124L23.938 12.9325L19.0078 17.7806Z" fill="#3C72FC"/>
<path d="M9.6328 7.14311C11.5593 7.14311 13.1211 5.60732 13.1211 3.71286C13.1211 1.81837 11.5593 0.282593 9.6328 0.282593C7.7063 0.282593 6.14453 1.81837 6.14453 3.71286C6.14453 5.60732 7.7063 7.14311 9.6328 7.14311Z" fill="#3C72FC"/>
<path d="M15.565 10.4116L9.72241 4.66614L10.6048 3.80212L16.4436 9.54384L15.565 10.4116Z" fill="#3C72FC"/>
<path d="M21.4678 18.7885C23.3943 18.7885 24.9561 17.2527 24.9561 15.3582C24.9561 13.4637 23.3943 11.928 21.4678 11.928C19.5413 11.928 17.9795 13.4637 17.9795 15.3582C17.9795 17.2527 19.5413 18.7885 21.4678 18.7885Z" fill="#3C72FC"/>
<path d="M19.0012 12.9325L24.1379 7.88124C25.5009 6.54089 27.7088 6.54089 29.0681 7.88124C30.4312 9.22158 30.4312 11.3927 29.0681 12.7294L23.9314 17.7806L19.0012 12.9325Z" fill="#3C72FC"/>
<path d="M33.3122 7.14311C35.2388 7.14311 36.8007 5.60732 36.8007 3.71286C36.8007 1.81837 35.2388 0.282593 33.3122 0.282593C31.3858 0.282593 29.824 1.81837 29.824 3.71286C29.824 5.60732 31.3858 7.14311 33.3122 7.14311Z" fill="#3C72FC"/>
<path d="M27.3822 10.4116L26.4998 9.54384L32.3423 3.80212L33.2211 4.66614L27.3822 10.4116Z" fill="#3C72FC"/>
<path d="M27.2295 24.4588C29.156 24.4588 30.7179 22.923 30.7179 21.0285C30.7179 19.1341 29.156 17.5983 27.2295 17.5983C25.303 17.5983 23.7412 19.1341 23.7412 21.0285C23.7412 22.923 25.303 24.4588 27.2295 24.4588Z" fill="#3C72FC"/>
<path d="M24.7593 18.6025L29.896 13.5513C31.259 12.2109 33.4667 12.2109 34.8262 13.5513C36.1891 14.8916 36.1891 17.0628 34.8262 18.3994L29.6895 23.4507L24.7593 18.6025Z" fill="#3C72FC"/>
<path d="M39.0705 12.8095C40.9971 12.8095 42.5587 11.2737 42.5587 9.37922C42.5587 7.48477 40.9971 5.94897 39.0705 5.94897C37.1438 5.94897 35.5823 7.48477 35.5823 9.37922C35.5823 11.2737 37.1438 12.8095 39.0705 12.8095Z" fill="#3C72FC"/>
<path d="M33.145 16.0815L32.2625 15.2138L38.1012 9.46838L38.9838 10.3361L33.145 16.0815Z" fill="#3C72FC"/>
<path d="M27.2295 24.4593C29.156 24.4593 30.7179 22.9235 30.7179 21.029C30.7179 19.1345 29.156 17.5988 27.2295 17.5988C25.303 17.5988 23.7412 19.1345 23.7412 21.029C23.7412 22.9235 25.303 24.4593 27.2295 24.4593Z" fill="#3C72FC"/>
<path d="M29.6895 18.6034L34.83 23.6546C36.1929 24.995 36.1929 27.1661 34.83 28.5028C33.4667 29.843 31.259 29.843 29.8998 28.5028L24.7593 23.4515L29.6895 18.6034Z" fill="#3C72FC"/>
<path d="M39.0705 36.1048C40.9971 36.1048 42.5587 34.5689 42.5587 32.6743C42.5587 30.78 40.9971 29.2441 39.0705 29.2441C37.1438 29.2441 35.5823 30.78 35.5823 32.6743C35.5823 34.5689 37.1438 36.1048 39.0705 36.1048Z" fill="#3C72FC"/>
<path d="M38.1012 32.5874L32.2625 26.8419L33.145 25.9741L38.9838 31.7195L38.1012 32.5874Z" fill="#3C72FC"/>
<path d="M21.2495 30.3539C23.1761 30.3539 24.7378 28.8183 24.7378 26.9238C24.7378 25.0293 23.1761 23.4935 21.2495 23.4935C19.323 23.4935 17.7612 25.0293 17.7612 26.9238C17.7612 28.8183 19.323 30.3539 21.2495 30.3539Z" fill="#3C72FC"/>
<path d="M23.7097 24.4973L28.8464 29.5485C30.2095 30.889 30.2095 33.0601 28.8464 34.3966C27.4834 35.7371 25.2755 35.7371 23.9162 34.3966L18.7795 29.3454L23.7097 24.4973Z" fill="#3C72FC"/>
<path d="M33.0906 41.9995C35.0169 41.9995 36.5788 40.4636 36.5788 38.5693C36.5788 36.6747 35.0169 35.1388 33.0906 35.1388C31.1639 35.1388 29.6021 36.6747 29.6021 38.5693C29.6021 40.4636 31.1639 41.9995 33.0906 41.9995Z" fill="#3C72FC"/>
<path d="M32.1183 38.4812L26.2759 32.7393L27.1583 31.8717L33.0009 37.6133L32.1183 38.4812Z" fill="#3C72FC"/>
<path d="M21.2473 30.3539C23.1738 30.3539 24.7356 28.8183 24.7356 26.9238C24.7356 25.0293 23.1738 23.4935 21.2473 23.4935C19.3208 23.4935 17.759 25.0293 17.759 26.9238C17.759 28.8183 19.3208 30.3539 21.2473 30.3539Z" fill="#3C72FC"/>
<path d="M23.7083 29.3465L18.5716 34.4015C17.2085 35.7417 15.0007 35.7417 13.6414 34.4015C12.2784 33.0612 12.2784 30.8899 13.6414 29.5534L18.7781 24.5021L23.7083 29.3465Z" fill="#3C72FC"/>
<path d="M9.40307 41.9995C11.3296 41.9995 12.8913 40.4636 12.8913 38.5693C12.8913 36.6747 11.3296 35.1388 9.40307 35.1388C7.47654 35.1388 5.91479 36.6747 5.91479 38.5693C5.91479 40.4636 7.47654 41.9995 9.40307 41.9995Z" fill="#3C72FC"/>
<path d="M10.3751 38.4812L9.49268 37.6133L15.3353 31.8717L16.2177 32.7393L10.3751 38.4812Z" fill="#3C72FC"/>
<path d="M15.4744 24.6829C17.4009 24.6829 18.9626 23.1471 18.9626 21.2526C18.9626 19.3582 17.4009 17.8224 15.4744 17.8224C13.5478 17.8224 11.9861 19.3582 11.9861 21.2526C11.9861 23.1471 13.5478 24.6829 15.4744 24.6829Z" fill="#3C72FC"/>
<path d="M17.9351 23.6791L12.7984 28.7303C11.4354 30.0705 9.22749 30.0705 7.86821 28.7303C6.50519 27.39 6.50519 25.2188 7.86821 23.8822L13.0049 18.8309L17.9351 23.6791Z" fill="#3C72FC"/>
<path d="M3.63329 36.3324C5.55983 36.3324 7.1216 34.7965 7.1216 32.9019C7.1216 31.0076 5.55983 29.4717 3.63329 29.4717C1.70678 29.4717 0.14502 31.0076 0.14502 32.9019C0.14502 34.7965 1.70678 36.3324 3.63329 36.3324Z" fill="#3C72FC"/>
<path d="M4.60528 32.8101L3.7229 31.9459L9.56174 26.2006L10.4441 27.0683L4.60528 32.8101Z" fill="#3C72FC"/>
<path d="M15.4744 24.6838C17.4009 24.6838 18.9626 23.148 18.9626 21.2535C18.9626 19.359 17.4009 17.8232 15.4744 17.8232C13.5478 17.8232 11.9861 19.359 11.9861 21.2535C11.9861 23.148 13.5478 24.6838 15.4744 24.6838Z" fill="#3C72FC"/>
<path d="M13.0049 23.6797L7.86821 18.6284C6.50519 17.2881 6.50519 15.1169 7.86821 13.7803C9.23123 12.4399 11.4391 12.4399 12.7984 13.7803L17.9351 18.8315L13.0049 23.6797Z" fill="#3C72FC"/>
<path d="M3.63329 13.0373C5.55983 13.0373 7.1216 11.5015 7.1216 9.60701C7.1216 7.71252 5.55983 6.17676 3.63329 6.17676C1.70678 6.17676 0.14502 7.71252 0.14502 9.60701C0.14502 11.5015 1.70678 13.0373 3.63329 13.0373Z" fill="#3C72FC"/>
<path d="M9.56174 16.3049L3.7229 10.5632L4.60528 9.69543L10.4441 15.4409L9.56174 16.3049Z" fill="#3C72FC"/>
</g>
<defs>
<clipPath id="clip0_622_1165">
<rect width="196" height="42" fill="white"/>
</clipPath>
</defs>
</svg>
